<svg width="540" height="350" viewBox="0 0 540 350" fill="none" xmlns="http://www.w3.org/2000/svg">
<g filter="url(#filter0_b_2_18193)">
<path d="M20 36C20 27.1634 27.1634 20 36 20H504C512.837 20 520 27.1634 520 36V334C520 342.837 512.837 350 504 350H36C27.1634 350 20 342.837 20 334V36Z" fill="url(#paint0_linear_2_18193)" fill-opacity="0.05"/>
<path d="M20.5 36C20.5 27.4396 27.4396 20.5 36 20.5H504C512.56 20.5 519.5 27.4396 519.5 36V334C519.5 342.56 512.56 349.5 504 349.5H36C27.4396 349.5 20.5 342.56 20.5 334V36Z" stroke="url(#paint1_linear_2_18193)"/>
</g>
<g filter="url(#filter1_b_2_18193)">
<path d="M10 26C10 17.1634 17.1634 10 26 10H514C522.837 10 530 17.1634 530 26V324C530 332.837 522.837 340 514 340H26C17.1634 340 10 332.837 10 324V26Z" fill="url(#paint2_linear_2_18193)" fill-opacity="0.05"/>
<path d="M10.5 26C10.5 17.4396 17.4396 10.5 26 10.5H514C522.56 10.5 529.5 17.4396 529.5 26V324C529.5 332.56 522.56 339.5 514 339.5H26C17.4396 339.5 10.5 332.56 10.5 324V26Z" stroke="url(#paint3_linear_2_18193)"/>
</g>
<rect x="1.5" y="1.5" width="537" height="327" rx="14.5" fill="url(#paint4_linear_2_18193)"/>
<path d="M40.4993 35C40.4993 35.663 40.2359 36.2989 39.7671 36.7678C39.2983 37.2366 38.6624 37.5 37.9993 37.5C37.3363 37.5 36.7004 37.2366 36.2316 36.7678C35.7627 36.2989 35.4993 35.663 35.4993 35C35.4993 34.337 35.7627 33.7011 36.2316 33.2322C36.7004 32.7634 37.3363 32.5 37.9993 32.5C38.6624 32.5 39.2983 32.7634 39.7671 33.2322C40.2359 33.7011 40.4993 34.337 40.4993 35V35ZM33 44.412C33.0214 43.1002 33.5576 41.8494 34.4928 40.9294C35.428 40.0093 36.6874 39.4936 37.9993 39.4936C39.3113 39.4936 40.5707 40.0093 41.5059 40.9294C42.4411 41.8494 42.9772 43.1002 42.9987 44.412C41.4303 45.1312 39.7248 45.5023 37.9993 45.5C36.2153 45.5 34.522 45.1107 33 44.412Z" stroke="white" stroke-width="1.5" stroke-linecap="round" stroke-linejoin="round"/>
<path d="M57.428 44V34.2H58.436L64.638 42.67L64.47 42.754C64.4233 42.4553 64.386 42.11 64.358 41.718C64.33 41.3167 64.3067 40.85 64.288 40.318C64.2787 39.786 64.274 39.1793 64.274 38.498V34.2H65.38V44H64.358L58.17 35.642L58.338 35.516C58.3847 36.02 58.4173 36.4633 58.436 36.846C58.464 37.2287 58.4873 37.56 58.506 37.84C58.5247 38.1107 58.534 38.3487 58.534 38.554C58.534 38.75 58.534 38.9273 58.534 39.086V44H57.428ZM72.4565 44V39.1C72.4565 38.624 72.2885 38.2413 71.9525 37.952C71.6165 37.6627 71.1731 37.518 70.6225 37.518C70.1651 37.518 69.7498 37.6113 69.3765 37.798C69.0031 37.9847 68.6718 38.2647 68.3825 38.638L67.6825 37.938C68.1025 37.462 68.5598 37.1073 69.0545 36.874C69.5585 36.6407 70.1045 36.524 70.6925 36.524C71.2525 36.524 71.7378 36.6173 72.1485 36.804C72.5591 36.9907 72.8718 37.2613 73.0865 37.616C73.3105 37.9707 73.4225 38.4 73.4225 38.904V44H72.4565ZM69.9365 44.14C69.4605 44.14 69.0358 44.0467 68.6625 43.86C68.2891 43.6733 67.9905 43.4167 67.7665 43.09C67.5518 42.754 67.4445 42.362 67.4445 41.914C67.4445 41.55 67.5098 41.228 67.6405 40.948C67.7805 40.668 67.9811 40.4347 68.2425 40.248C68.5038 40.0613 68.8351 39.9213 69.2365 39.828C69.6378 39.7253 70.0951 39.674 70.6085 39.674H72.9325L72.8485 40.556H70.4685C70.1418 40.556 69.8525 40.584 69.6005 40.64C69.3578 40.696 69.1478 40.7847 68.9705 40.906C68.8025 41.018 68.6718 41.158 68.5785 41.326C68.4945 41.4847 68.4525 41.676 68.4525 41.9C68.4525 42.1613 68.5178 42.3947 68.6485 42.6C68.7885 42.796 68.9705 42.95 69.1945 43.062C69.4278 43.1647 69.6891 43.216 69.9785 43.216C70.3611 43.216 70.7205 43.1507 71.0565 43.02C71.3925 42.88 71.6911 42.6933 71.9525 42.46C72.2231 42.2173 72.4378 41.9467 72.5965 41.648L72.8905 42.32C72.6851 42.6747 72.4285 42.992 72.1205 43.272C71.8125 43.5427 71.4718 43.7573 71.0985 43.916C70.7345 44.0653 70.3471 44.14 69.9365 44.14ZM75.2586 44V36.65H76.3226L76.3366 38.316L76.0846 38.414C76.1966 38.134 76.3413 37.882 76.5186 37.658C76.696 37.4247 76.9013 37.2287 77.1346 37.07C77.3773 36.902 77.634 36.7713 77.9046 36.678C78.1846 36.5847 78.4693 36.538 78.7586 36.538C79.1693 36.538 79.5333 36.608 79.8506 36.748C80.1773 36.8787 80.4433 37.084 80.6486 37.364C80.8633 37.644 81.0173 37.9987 81.1106 38.428H80.9146L80.9986 38.19C81.1106 37.9473 81.2553 37.728 81.4326 37.532C81.6193 37.3267 81.8293 37.1493 82.0626 37C82.3053 36.8507 82.5573 36.7387 82.8186 36.664C83.0893 36.58 83.3553 36.538 83.6166 36.538C84.158 36.538 84.6106 36.6453 84.9746 36.86C85.3386 37.0747 85.614 37.406 85.8006 37.854C85.9873 38.2927 86.0806 38.8527 86.0806 39.534V44H85.0166V39.576C85.0166 38.8667 84.872 38.3487 84.5826 38.022C84.2933 37.6953 83.864 37.532 83.2946 37.532C82.996 37.532 82.716 37.5833 82.4546 37.686C82.2026 37.7793 81.9833 37.9147 81.7966 38.092C81.61 38.2693 81.4653 38.4653 81.3626 38.68C81.26 38.8947 81.2086 39.1233 81.2086 39.366V44H80.1306V39.562C80.1306 38.8807 79.986 38.372 79.6966 38.036C79.4073 37.7 78.992 37.532 78.4506 37.532C78.1426 37.532 77.858 37.5833 77.5966 37.686C77.3446 37.7887 77.1206 37.924 76.9246 38.092C76.738 38.26 76.5933 38.4513 76.4906 38.666C76.388 38.8713 76.3366 39.0813 76.3366 39.296V44H75.2586ZM91.3341 44.14C90.5968 44.14 89.9435 43.9813 89.3741 43.664C88.8048 43.3373 88.3568 42.8893 88.0301 42.32C87.7128 41.7507 87.5541 41.102 87.5541 40.374C87.5541 39.8047 87.6428 39.2867 87.8201 38.82C88.0068 38.344 88.2588 37.938 88.5761 37.602C88.9028 37.2567 89.2901 36.9907 89.7381 36.804C90.1861 36.6173 90.6761 36.524 91.2081 36.524C91.6748 36.524 92.1088 36.608 92.5101 36.776C92.9208 36.944 93.2755 37.1867 93.5741 37.504C93.8728 37.812 94.1015 38.1807 94.2601 38.61C94.4188 39.03 94.4888 39.4967 94.4701 40.01L94.4561 40.542H88.3241L88.1001 39.674H93.5741L93.3781 39.912L93.3921 39.562C93.3735 39.1607 93.2615 38.806 93.0561 38.498C92.8508 38.19 92.5848 37.9473 92.2581 37.77C91.9408 37.5927 91.5908 37.504 91.2081 37.504C90.6668 37.504 90.2001 37.6207 89.8081 37.854C89.4161 38.078 89.1175 38.4 88.9121 38.82C88.7161 39.2307 88.6135 39.7253 88.6041 40.304C88.6135 40.8827 88.7348 41.3867 88.9681 41.816C89.2015 42.236 89.5281 42.5673 89.9481 42.81C90.3775 43.0433 90.8721 43.16 91.4321 43.16C91.8335 43.16 92.2068 43.0947 92.5521 42.964C92.8975 42.824 93.2475 42.5953 93.6021 42.278L94.1341 43.034C93.9101 43.258 93.6441 43.454 93.3361 43.622C93.0375 43.7807 92.7155 43.9067 92.3701 44C92.0248 44.0933 91.6795 44.14 91.3341 44.14Z" fill="white"/>
<path d="M159.644 33.7C159.434 33.7 159.322 33.798 159.322 34.008V35.38C159.322 35.59 159.434 35.702 159.644 35.702H164.04V43.192C164.04 43.402 164.138 43.5 164.348 43.5H165.874C166.084 43.5 166.182 43.402 166.182 43.192V35.702H170.578C170.788 35.702 170.9 35.59 170.9 35.38V34.008C170.9 33.798 170.788 33.7 170.578 33.7H159.644ZM172.469 33.7C172.259 33.7 172.147 33.798 172.147 34.008V43.192C172.147 43.402 172.259 43.5 172.469 43.5H173.981C174.191 43.5 174.289 43.402 174.289 43.192V39.468H180.841V43.192C180.841 43.402 180.939 43.5 181.149 43.5H182.661C182.871 43.5 182.983 43.402 182.983 43.192V34.008C182.983 33.798 182.871 33.7 182.661 33.7H181.149C180.939 33.7 180.841 33.798 180.841 34.008V37.648H174.289V34.008C174.289 33.798 174.191 33.7 173.981 33.7H172.469ZM185.254 33.7C184.974 33.7 184.834 33.84 184.834 34.12V43.192C184.834 43.402 184.946 43.5 185.156 43.5H186.668C186.878 43.5 186.976 43.402 186.976 43.192V40.406H191.498L193.71 43.318C193.794 43.444 193.864 43.5 194.102 43.5H195.908C196.16 43.5 196.174 43.248 196.09 43.15L193.696 40.182C195.166 39.916 195.782 38.978 195.782 37.382V36.584C195.782 34.694 194.914 33.7 192.772 33.7H185.254ZM186.976 35.786C186.976 35.674 187.032 35.618 187.158 35.618H192.338C193.29 35.618 193.64 36.024 193.64 36.864V37.452C193.64 38.292 193.29 38.698 192.338 38.698H186.976V35.786ZM201.07 33.7C198.242 33.7 197.15 34.708 197.15 37.396V39.804C197.15 42.492 198.242 43.5 201.07 43.5H207.23C207.44 43.5 207.552 43.402 207.552 43.192V41.862C207.552 41.652 207.44 41.554 207.23 41.554H201.112C199.656 41.554 199.25 41.12 199.25 39.65V39.412H207.16C207.37 39.412 207.468 39.314 207.468 39.104V37.998C207.468 37.788 207.37 37.69 207.16 37.69H199.25V37.55C199.25 36.08 199.656 35.646 201.112 35.646H207.23C207.44 35.646 207.552 35.548 207.552 35.338V34.008C207.552 33.798 207.44 33.7 207.23 33.7H201.07ZM212.964 33.7C210.136 33.7 209.044 34.708 209.044 37.396V39.804C209.044 42.492 210.136 43.5 212.964 43.5H219.124C219.334 43.5 219.446 43.402 219.446 43.192V41.862C219.446 41.652 219.334 41.554 219.124 41.554H213.006C211.55 41.554 211.144 41.12 211.144 39.65V39.412H219.054C219.264 39.412 219.362 39.314 219.362 39.104V37.998C219.362 37.788 219.264 37.69 219.054 37.69H211.144V37.55C211.144 36.08 211.55 35.646 213.006 35.646H219.124C219.334 35.646 219.446 35.548 219.446 35.338V34.008C219.446 33.798 219.334 33.7 219.124 33.7H212.964ZM221.471 33.7C221.191 33.7 221.051 33.84 221.051 34.12V43.08C221.051 43.36 221.191 43.5 221.471 43.5H229.787C231.649 43.5 232.265 42.562 232.265 41.078V40.266C232.265 39.44 231.957 38.838 231.299 38.46C231.887 38.068 232.195 37.48 232.195 36.682V36.01C232.195 34.456 231.467 33.7 229.535 33.7H221.471ZM228.933 39.3C229.857 39.3 230.151 39.608 230.151 40.182V40.714C230.151 41.302 229.857 41.568 229.115 41.568H223.375C223.249 41.568 223.193 41.512 223.193 41.386V39.3H228.933ZM223.193 35.814C223.193 35.688 223.249 35.632 223.375 35.632H229.101C229.829 35.632 230.137 35.898 230.137 36.472V36.948C230.137 37.494 229.857 37.774 228.933 37.774H223.193V35.814ZM238.326 33.7C238.116 33.7 238.004 33.798 238.004 34.008V35.38C238.004 35.59 238.116 35.702 238.326 35.702H242.722V43.192C242.722 43.402 242.82 43.5 243.03 43.5H244.556C244.766 43.5 244.864 43.402 244.864 43.192V35.702H249.26C249.47 35.702 249.582 35.59 249.582 35.38V34.008C249.582 33.798 249.47 33.7 249.26 33.7H238.326ZM254.363 33.7C251.535 33.7 250.443 34.708 250.443 37.396V39.804C250.443 42.492 251.535 43.5 254.363 43.5H258.689C261.531 43.5 262.609 42.492 262.609 39.804V37.396C262.609 34.708 261.531 33.7 258.689 33.7H254.363ZM252.585 37.55C252.585 36.08 253.005 35.646 254.447 35.646H258.605C260.047 35.646 260.467 36.08 260.467 37.55V39.65C260.467 41.12 260.047 41.554 258.605 41.554H254.447C253.005 41.554 252.585 41.12 252.585 39.65V37.55ZM264.672 33.7C264.462 33.7 264.35 33.798 264.35 34.008V43.192C264.35 43.402 264.462 43.5 264.672 43.5H266.184C266.394 43.5 266.492 43.402 266.492 43.192V39.356H268.62C269.488 39.356 269.81 39.496 270.188 39.986L272.764 43.318C272.862 43.444 272.918 43.5 273.156 43.5H274.948C275.228 43.5 275.2 43.234 275.13 43.136L272.26 39.496C271.91 39.048 271.574 38.726 271.196 38.488C271.462 38.264 271.714 37.97 272.036 37.55L274.752 34.036C274.85 33.91 274.808 33.7 274.57 33.7H272.834C272.582 33.7 272.526 33.756 272.428 33.882L270.02 37.102C269.614 37.634 269.348 37.732 268.466 37.732H266.492V34.008C266.492 33.798 266.394 33.7 266.184 33.7H264.672ZM279.683 33.7C276.855 33.7 275.763 34.708 275.763 37.396V39.804C275.763 42.492 276.855 43.5 279.683 43.5H285.843C286.053 43.5 286.165 43.402 286.165 43.192V41.862C286.165 41.652 286.053 41.554 285.843 41.554H279.725C278.269 41.554 277.863 41.12 277.863 39.65V39.412H285.773C285.983 39.412 286.081 39.314 286.081 39.104V37.998C286.081 37.788 285.983 37.69 285.773 37.69H277.863V37.55C277.863 36.08 278.269 35.646 279.725 35.646H285.843C286.053 35.646 286.165 35.548 286.165 35.338V34.008C286.165 33.798 286.053 33.7 285.843 33.7H279.683ZM289.03 33.7C288.176 33.7 287.77 34.022 287.77 35.156V43.192C287.77 43.402 287.882 43.5 288.092 43.5H289.562C289.772 43.5 289.87 43.402 289.87 43.192V35.884C289.87 35.786 289.898 35.744 289.982 35.744H290.108C290.192 35.744 290.234 35.772 290.29 35.842L295.512 42.674C296.072 43.416 296.282 43.5 297.136 43.5H298.34C299.194 43.5 299.6 43.178 299.6 42.044V34.008C299.6 33.798 299.502 33.7 299.292 33.7H297.822C297.612 33.7 297.514 33.798 297.514 34.008V41.316C297.514 41.414 297.472 41.456 297.402 41.456H297.276C297.192 41.456 297.136 41.428 297.094 41.358L291.886 34.526C291.354 33.812 291.158 33.7 290.262 33.7H289.03Z" fill="white"/>
<rect opacity="0.1" x="30" y="70" width="480" height="1" fill="white"/>
<path d="M44 99L42.5 98.1247M44 99V100.5M44 99L42.5 99.8753M32 99L33.5 98.1247M32 99L33.5 99.8753M32 99V100.5M38 102.5L39.5 101.625M38 102.5L36.5 101.625M38 102.5V104M38 108.5L39.5 107.625M38 108.5V107M38 108.5L36.5 107.625M36.5 96.3747L38 95.5L39.5 96.3753M44 103.5V105L42.5 105.875M33.5 105.875L32 105V103.5" stroke="white" stroke-width="1.5" stroke-linecap="round" stroke-linejoin="round"/>
<path d="M60.34 107.14C59.528 107.14 58.814 106.986 58.198 106.678C57.5913 106.361 57.078 105.899 56.658 105.292L57.442 104.424C57.862 105.04 58.3053 105.479 58.772 105.74C59.248 106.001 59.808 106.132 60.452 106.132C60.8627 106.132 61.2313 106.062 61.558 105.922C61.894 105.782 62.16 105.591 62.356 105.348C62.552 105.105 62.65 104.83 62.65 104.522C62.65 104.317 62.6127 104.13 62.538 103.962C62.4727 103.794 62.3653 103.645 62.216 103.514C62.076 103.383 61.8987 103.262 61.684 103.15C61.4693 103.038 61.222 102.94 60.942 102.856C60.6713 102.763 60.3633 102.674 60.018 102.59C59.5327 102.487 59.108 102.352 58.744 102.184C58.3893 102.016 58.086 101.815 57.834 101.582C57.582 101.349 57.3953 101.083 57.274 100.784C57.1527 100.476 57.092 100.131 57.092 99.748C57.092 99.2253 57.2367 98.7633 57.526 98.362C57.8247 97.9607 58.2213 97.6433 58.716 97.41C59.22 97.1767 59.7847 97.06 60.41 97.06C61.166 97.06 61.81 97.2 62.342 97.48C62.8833 97.76 63.3173 98.1567 63.644 98.67L62.86 99.44C62.5613 99.0013 62.2067 98.6653 61.796 98.432C61.3947 98.1893 60.9233 98.068 60.382 98.068C59.962 98.068 59.5887 98.138 59.262 98.278C58.9353 98.418 58.6787 98.614 58.492 98.866C58.3053 99.1087 58.212 99.3933 58.212 99.72C58.212 99.9533 58.254 100.168 58.338 100.364C58.4313 100.551 58.5667 100.714 58.744 100.854C58.9213 100.994 59.15 101.12 59.43 101.232C59.71 101.344 60.0413 101.442 60.424 101.526C60.9467 101.647 61.4133 101.792 61.824 101.96C62.244 102.128 62.5987 102.324 62.888 102.548C63.1773 102.772 63.3967 103.024 63.546 103.304C63.6953 103.584 63.77 103.901 63.77 104.256C63.77 104.835 63.6253 105.343 63.336 105.782C63.056 106.211 62.6593 106.547 62.146 106.79C61.6327 107.023 61.0307 107.14 60.34 107.14ZM66.7026 110.22L68.1306 106.818L68.1726 107.658L64.5886 99.65H65.8346L68.3546 105.446C68.4106 105.558 68.4619 105.689 68.5086 105.838C68.5646 105.978 68.6112 106.113 68.6486 106.244L68.3546 106.328C68.4199 106.16 68.4806 105.997 68.5366 105.838C68.6019 105.67 68.6626 105.507 68.7186 105.348L70.8746 99.65H72.1206L69.0826 107.056L67.8506 110.22H66.7026ZM73.1805 107V99.65H74.2445L74.2585 101.316L74.0065 101.414C74.1185 101.134 74.2632 100.882 74.4405 100.658C74.6178 100.425 74.8232 100.229 75.0565 100.07C75.2992 99.902 75.5558 99.7713 75.8265 99.678C76.1065 99.5847 76.3912 99.538 76.6805 99.538C77.0912 99.538 77.4552 99.608 77.7725 99.748C78.0992 99.8787 78.3652 100.084 78.5705 100.364C78.7852 100.644 78.9392 100.999 79.0325 101.428H78.8365L78.9205 101.19C79.0325 100.947 79.1772 100.728 79.3545 100.532C79.5412 100.327 79.7512 100.149 79.9845 100C80.2272 99.8507 80.4792 99.7387 80.7405 99.664C81.0112 99.58 81.2772 99.538 81.5385 99.538C82.0798 99.538 82.5325 99.6453 82.8965 99.86C83.2605 100.075 83.5358 100.406 83.7225 100.854C83.9092 101.293 84.0025 101.853 84.0025 102.534V107H82.9385V102.576C82.9385 101.867 82.7938 101.349 82.5045 101.022C82.2152 100.695 81.7858 100.532 81.2165 100.532C80.9178 100.532 80.6378 100.583 80.3765 100.686C80.1245 100.779 79.9052 100.915 79.7185 101.092C79.5318 101.269 79.3872 101.465 79.2845 101.68C79.1818 101.895 79.1305 102.123 79.1305 102.366V107H78.0525V102.562C78.0525 101.881 77.9078 101.372 77.6185 101.036C77.3292 100.7 76.9138 100.532 76.3725 100.532C76.0645 100.532 75.7798 100.583 75.5185 100.686C75.2665 100.789 75.0425 100.924 74.8465 101.092C74.6598 101.26 74.5152 101.451 74.4125 101.666C74.3098 101.871 74.2585 102.081 74.2585 102.296V107H73.1805ZM89.62 107.14C89.284 107.14 88.9527 107.084 88.626 106.972C88.2993 106.86 88.0007 106.711 87.73 106.524C87.4687 106.328 87.2447 106.109 87.058 105.866C86.8807 105.623 86.764 105.371 86.708 105.11L86.974 104.998V106.972H85.91V96.64H86.974V101.596L86.792 101.526C86.848 101.255 86.96 101.003 87.128 100.77C87.3053 100.527 87.52 100.313 87.772 100.126C88.0333 99.9393 88.318 99.7947 88.626 99.692C88.934 99.58 89.2513 99.524 89.578 99.524C90.25 99.524 90.8427 99.6873 91.356 100.014C91.8787 100.341 92.2893 100.789 92.588 101.358C92.896 101.927 93.05 102.581 93.05 103.318C93.05 104.046 92.896 104.699 92.588 105.278C92.2893 105.857 91.8787 106.314 91.356 106.65C90.8427 106.977 90.264 107.14 89.62 107.14ZM89.452 106.16C89.9467 106.16 90.3853 106.039 90.768 105.796C91.16 105.544 91.468 105.203 91.692 104.774C91.916 104.345 92.028 103.859 92.028 103.318C92.028 102.777 91.916 102.296 91.692 101.876C91.4773 101.447 91.174 101.111 90.782 100.868C90.3993 100.625 89.956 100.504 89.452 100.504C88.9667 100.504 88.5327 100.625 88.15 100.868C87.7767 101.111 87.478 101.447 87.254 101.876C87.0393 102.296 86.932 102.777 86.932 103.318C86.932 103.869 87.0393 104.359 87.254 104.788C87.478 105.208 87.7767 105.544 88.15 105.796C88.5327 106.039 88.9667 106.16 89.452 106.16ZM97.9233 107.14C97.2047 107.14 96.5607 106.977 95.9913 106.65C95.4313 106.314 94.988 105.861 94.6613 105.292C94.3347 104.713 94.1713 104.055 94.1713 103.318C94.1713 102.581 94.3347 101.927 94.6613 101.358C94.988 100.789 95.4313 100.341 95.9913 100.014C96.5607 99.6873 97.2047 99.524 97.9233 99.524C98.642 99.524 99.2813 99.6873 99.8413 100.014C100.411 100.341 100.854 100.789 101.171 101.358C101.498 101.927 101.661 102.581 101.661 103.318C101.661 104.055 101.498 104.713 101.171 105.292C100.854 105.861 100.411 106.314 99.8413 106.65C99.2813 106.977 98.642 107.14 97.9233 107.14ZM97.9233 106.16C98.4367 106.16 98.894 106.039 99.2953 105.796C99.706 105.544 100.023 105.203 100.247 104.774C100.481 104.345 100.593 103.859 100.583 103.318C100.593 102.767 100.481 102.282 100.247 101.862C100.023 101.442 99.706 101.111 99.2953 100.868C98.894 100.625 98.4367 100.504 97.9233 100.504C97.41 100.504 96.948 100.625 96.5373 100.868C96.136 101.111 95.8187 101.447 95.5853 101.876C95.352 102.296 95.24 102.777 95.2493 103.318C95.24 103.859 95.352 104.345 95.5853 104.774C95.8187 105.203 96.136 105.544 96.5373 105.796C96.948 106.039 97.41 106.16 97.9233 106.16ZM103.345 107V96.64H104.409V107H103.345Z" fill="white"/>
<path d="M159.644 96.7C159.434 96.7 159.322 96.798 159.322 97.008V98.38C159.322 98.59 159.434 98.702 159.644 98.702H164.04V106.192C164.04 106.402 164.138 106.5 164.348 106.5H165.874C166.084 106.5 166.182 106.402 166.182 106.192V98.702H170.578C170.788 98.702 170.9 98.59 170.9 98.38V97.008C170.9 96.798 170.788 96.7 170.578 96.7H159.644ZM172.469 96.7C172.259 96.7 172.147 96.798 172.147 97.008V106.192C172.147 106.402 172.259 106.5 172.469 106.5H173.981C174.191 106.5 174.289 106.402 174.289 106.192V102.468H180.841V106.192C180.841 106.402 180.939 106.5 181.149 106.5H182.661C182.871 106.5 182.983 106.402 182.983 106.192V97.008C182.983 96.798 182.871 96.7 182.661 96.7H181.149C180.939 96.7 180.841 96.798 180.841 97.008V100.648H174.289V97.008C174.289 96.798 174.191 96.7 173.981 96.7H172.469ZM185.254 96.7C184.974 96.7 184.834 96.84 184.834 97.12V106.192C184.834 106.402 184.946 106.5 185.156 106.5H186.668C186.878 106.5 186.976 106.402 186.976 106.192V103.406H191.498L193.71 106.318C193.794 106.444 193.864 106.5 194.102 106.5H195.908C196.16 106.5 196.174 106.248 196.09 106.15L193.696 103.182C195.166 102.916 195.782 101.978 195.782 100.382V99.584C195.782 97.694 194.914 96.7 192.772 96.7H185.254ZM186.976 98.786C186.976 98.674 187.032 98.618 187.158 98.618H192.338C193.29 98.618 193.64 99.024 193.64 99.864V100.452C193.64 101.292 193.29 101.698 192.338 101.698H186.976V98.786ZM201.07 96.7C198.242 96.7 197.15 97.708 197.15 100.396V102.804C197.15 105.492 198.242 106.5 201.07 106.5H207.23C207.44 106.5 207.552 106.402 207.552 106.192V104.862C207.552 104.652 207.44 104.554 207.23 104.554H201.112C199.656 104.554 199.25 104.12 199.25 102.65V102.412H207.16C207.37 102.412 207.468 102.314 207.468 102.104V100.998C207.468 100.788 207.37 100.69 207.16 100.69H199.25V100.55C199.25 99.08 199.656 98.646 201.112 98.646H207.23C207.44 98.646 207.552 98.548 207.552 98.338V97.008C207.552 96.798 207.44 96.7 207.23 96.7H201.07ZM212.964 96.7C210.136 96.7 209.044 97.708 209.044 100.396V102.804C209.044 105.492 210.136 106.5 212.964 106.5H219.124C219.334 106.5 219.446 106.402 219.446 106.192V104.862C219.446 104.652 219.334 104.554 219.124 104.554H213.006C211.55 104.554 211.144 104.12 211.144 102.65V102.412H219.054C219.264 102.412 219.362 102.314 219.362 102.104V100.998C219.362 100.788 219.264 100.69 219.054 100.69H211.144V100.55C211.144 99.08 211.55 98.646 213.006 98.646H219.124C219.334 98.646 219.446 98.548 219.446 98.338V97.008C219.446 96.798 219.334 96.7 219.124 96.7H212.964ZM221.471 96.7C221.191 96.7 221.051 96.84 221.051 97.12V106.08C221.051 106.36 221.191 106.5 221.471 106.5H229.787C231.649 106.5 232.265 105.562 232.265 104.078V103.266C232.265 102.44 231.957 101.838 231.299 101.46C231.887 101.068 232.195 100.48 232.195 99.682V99.01C232.195 97.456 231.467 96.7 229.535 96.7H221.471ZM228.933 102.3C229.857 102.3 230.151 102.608 230.151 103.182V103.714C230.151 104.302 229.857 104.568 229.115 104.568H223.375C223.249 104.568 223.193 104.512 223.193 104.386V102.3H228.933ZM223.193 98.814C223.193 98.688 223.249 98.632 223.375 98.632H229.101C229.829 98.632 230.137 98.898 230.137 99.472V99.948C230.137 100.494 229.857 100.774 228.933 100.774H223.193V98.814Z" fill="white"/>
<rect opacity="0.1" x="30" y="133" width="480" height="1" fill="white"/>
<path d="M37 161C36.0111 161 35.0444 161.293 34.2222 161.843C33.3999 162.392 32.759 163.173 32.3806 164.087C32.0022 165 31.9031 166.006 32.0961 166.975C32.289 167.945 32.7652 168.836 33.4645 169.536C34.1637 170.235 35.0546 170.711 36.0246 170.904C36.9945 171.097 37.9998 170.998 38.9134 170.619C39.827 170.241 40.6079 169.6 41.1574 168.778C41.7068 167.956 42 166.989 42 166H37V161Z" stroke="white" stroke-width="1.5" stroke-linecap="round" stroke-linejoin="round"/>
<path d="M39 164H44C44 162.674 43.4732 161.402 42.5355 160.464C41.5979 159.527 40.3261 159 39 159V164Z" stroke="white" stroke-width="1.5" stroke-linecap="round" stroke-linejoin="round"/>
<path d="M59.248 170V161.264H56.42V160.2H63.238V161.264H60.354V170H59.248ZM66.56 170.14C65.8414 170.14 65.1974 169.977 64.628 169.65C64.068 169.314 63.6247 168.861 63.298 168.292C62.9714 167.713 62.808 167.055 62.808 166.318C62.808 165.581 62.9714 164.927 63.298 164.358C63.6247 163.789 64.068 163.341 64.628 163.014C65.1974 162.687 65.8414 162.524 66.56 162.524C67.2787 162.524 67.918 162.687 68.478 163.014C69.0474 163.341 69.4907 163.789 69.808 164.358C70.1347 164.927 70.298 165.581 70.298 166.318C70.298 167.055 70.1347 167.713 69.808 168.292C69.4907 168.861 69.0474 169.314 68.478 169.65C67.918 169.977 67.2787 170.14 66.56 170.14ZM66.56 169.16C67.0734 169.16 67.5307 169.039 67.932 168.796C68.3427 168.544 68.66 168.203 68.884 167.774C69.1174 167.345 69.2294 166.859 69.22 166.318C69.2294 165.767 69.1174 165.282 68.884 164.862C68.66 164.442 68.3427 164.111 67.932 163.868C67.5307 163.625 67.0734 163.504 66.56 163.504C66.0467 163.504 65.5847 163.625 65.174 163.868C64.7727 164.111 64.4554 164.447 64.222 164.876C63.9887 165.296 63.8767 165.777 63.886 166.318C63.8767 166.859 63.9887 167.345 64.222 167.774C64.4554 168.203 64.7727 168.544 65.174 168.796C65.5847 169.039 66.0467 169.16 66.56 169.16ZM72.9053 170V160.774H73.9693V170H72.9053ZM71.2113 163.686V162.65H75.8033V163.686H71.2113ZM81.6576 170V165.1C81.6576 164.624 81.4896 164.241 81.1536 163.952C80.8176 163.663 80.3743 163.518 79.8236 163.518C79.3663 163.518 78.951 163.611 78.5776 163.798C78.2043 163.985 77.873 164.265 77.5836 164.638L76.8836 163.938C77.3036 163.462 77.761 163.107 78.2556 162.874C78.7596 162.641 79.3056 162.524 79.8936 162.524C80.4536 162.524 80.939 162.617 81.3496 162.804C81.7603 162.991 82.073 163.261 82.2876 163.616C82.5116 163.971 82.6236 164.4 82.6236 164.904V170H81.6576ZM79.1376 170.14C78.6616 170.14 78.237 170.047 77.8636 169.86C77.4903 169.673 77.1916 169.417 76.9676 169.09C76.753 168.754 76.6456 168.362 76.6456 167.914C76.6456 167.55 76.711 167.228 76.8416 166.948C76.9816 166.668 77.1823 166.435 77.4436 166.248C77.705 166.061 78.0363 165.921 78.4376 165.828C78.839 165.725 79.2963 165.674 79.8096 165.674H82.1336L82.0496 166.556H79.6696C79.343 166.556 79.0536 166.584 78.8016 166.64C78.559 166.696 78.349 166.785 78.1716 166.906C78.0036 167.018 77.873 167.158 77.7796 167.326C77.6956 167.485 77.6536 167.676 77.6536 167.9C77.6536 168.161 77.719 168.395 77.8496 168.6C77.9896 168.796 78.1716 168.95 78.3956 169.062C78.629 169.165 78.8903 169.216 79.1796 169.216C79.5623 169.216 79.9216 169.151 80.2576 169.02C80.5936 168.88 80.8923 168.693 81.1536 168.46C81.4243 168.217 81.639 167.947 81.7976 167.648L82.0916 168.32C81.8863 168.675 81.6296 168.992 81.3216 169.272C81.0136 169.543 80.673 169.757 80.2996 169.916C79.9356 170.065 79.5483 170.14 79.1376 170.14ZM84.6278 170V159.64H85.6918V170H84.6278ZM95.0802 170.14C94.2682 170.14 93.5542 169.986 92.9382 169.678C92.3316 169.361 91.8182 168.899 91.3982 168.292L92.1822 167.424C92.6022 168.04 93.0456 168.479 93.5122 168.74C93.9882 169.001 94.5482 169.132 95.1922 169.132C95.6029 169.132 95.9716 169.062 96.2982 168.922C96.6342 168.782 96.9002 168.591 97.0962 168.348C97.2922 168.105 97.3902 167.83 97.3902 167.522C97.3902 167.317 97.3529 167.13 97.2782 166.962C97.2129 166.794 97.1056 166.645 96.9562 166.514C96.8162 166.383 96.6389 166.262 96.4242 166.15C96.2096 166.038 95.9622 165.94 95.6822 165.856C95.4116 165.763 95.1036 165.674 94.7582 165.59C94.2729 165.487 93.8482 165.352 93.4842 165.184C93.1296 165.016 92.8262 164.815 92.5742 164.582C92.3222 164.349 92.1356 164.083 92.0142 163.784C91.8929 163.476 91.8322 163.131 91.8322 162.748C91.8322 162.225 91.9769 161.763 92.2662 161.362C92.5649 160.961 92.9616 160.643 93.4562 160.41C93.9602 160.177 94.5249 160.06 95.1502 160.06C95.9062 160.06 96.5502 160.2 97.0822 160.48C97.6236 160.76 98.0576 161.157 98.3842 161.67L97.6002 162.44C97.3016 162.001 96.9469 161.665 96.5362 161.432C96.1349 161.189 95.6636 161.068 95.1222 161.068C94.7022 161.068 94.3289 161.138 94.0022 161.278C93.6756 161.418 93.4189 161.614 93.2322 161.866C93.0456 162.109 92.9522 162.393 92.9522 162.72C92.9522 162.953 92.9942 163.168 93.0782 163.364C93.1716 163.551 93.3069 163.714 93.4842 163.854C93.6616 163.994 93.8902 164.12 94.1702 164.232C94.4502 164.344 94.7816 164.442 95.1642 164.526C95.6869 164.647 96.1536 164.792 96.5642 164.96C96.9842 165.128 97.3389 165.324 97.6282 165.548C97.9176 165.772 98.1369 166.024 98.2862 166.304C98.4356 166.584 98.5102 166.901 98.5102 167.256C98.5102 167.835 98.3656 168.343 98.0762 168.782C97.7962 169.211 97.3996 169.547 96.8862 169.79C96.3729 170.023 95.7709 170.14 95.0802 170.14ZM102.843 170.14C102.301 170.14 101.835 170.028 101.443 169.804C101.051 169.571 100.747 169.239 100.533 168.81C100.327 168.371 100.225 167.835 100.225 167.2V162.65H101.289V166.934C101.289 167.671 101.457 168.236 101.793 168.628C102.138 169.011 102.619 169.202 103.235 169.202C103.533 169.202 103.804 169.151 104.047 169.048C104.299 168.936 104.518 168.791 104.705 168.614C104.891 168.437 105.036 168.241 105.139 168.026C105.251 167.802 105.307 167.578 105.307 167.354V162.65H106.371V170H105.321L105.307 168.404L105.517 168.292C105.405 168.628 105.213 168.941 104.943 169.23C104.681 169.51 104.369 169.734 104.005 169.902C103.65 170.061 103.263 170.14 102.843 170.14ZM108.373 173.122V162.65H109.437L109.451 164.596L109.255 164.526C109.339 164.171 109.516 163.845 109.787 163.546C110.067 163.247 110.403 163.005 110.795 162.818C111.196 162.631 111.612 162.538 112.041 162.538C112.713 162.538 113.31 162.701 113.833 163.028C114.356 163.355 114.766 163.803 115.065 164.372C115.364 164.941 115.513 165.59 115.513 166.318C115.513 167.046 115.364 167.699 115.065 168.278C114.766 168.847 114.356 169.3 113.833 169.636C113.32 169.963 112.741 170.126 112.097 170.126C111.64 170.126 111.201 170.033 110.781 169.846C110.37 169.659 110.016 169.412 109.717 169.104C109.428 168.796 109.25 168.465 109.185 168.11L109.451 167.998V173.122H108.373ZM111.929 169.146C112.424 169.146 112.862 169.025 113.245 168.782C113.637 168.539 113.94 168.203 114.155 167.774C114.379 167.345 114.491 166.859 114.491 166.318C114.491 165.786 114.379 165.31 114.155 164.89C113.94 164.47 113.642 164.139 113.259 163.896C112.876 163.653 112.433 163.532 111.929 163.532C111.444 163.532 111.01 163.653 110.627 163.896C110.254 164.129 109.955 164.456 109.731 164.876C109.516 165.296 109.409 165.781 109.409 166.332C109.409 166.873 109.516 167.359 109.731 167.788C109.955 168.208 110.254 168.539 110.627 168.782C111.01 169.025 111.444 169.146 111.929 169.146ZM117.068 173.122V162.65H118.132L118.146 164.596L117.95 164.526C118.034 164.171 118.212 163.845 118.482 163.546C118.762 163.247 119.098 163.005 119.49 162.818C119.892 162.631 120.307 162.538 120.736 162.538C121.408 162.538 122.006 162.701 122.528 163.028C123.051 163.355 123.462 163.803 123.76 164.372C124.059 164.941 124.208 165.59 124.208 166.318C124.208 167.046 124.059 167.699 123.76 168.278C123.462 168.847 123.051 169.3 122.528 169.636C122.015 169.963 121.436 170.126 120.792 170.126C120.335 170.126 119.896 170.033 119.476 169.846C119.066 169.659 118.711 169.412 118.412 169.104C118.123 168.796 117.946 168.465 117.88 168.11L118.146 167.998V173.122H117.068ZM120.624 169.146C121.119 169.146 121.558 169.025 121.94 168.782C122.332 168.539 122.636 168.203 122.85 167.774C123.074 167.345 123.186 166.859 123.186 166.318C123.186 165.786 123.074 165.31 122.85 164.89C122.636 164.47 122.337 164.139 121.954 163.896C121.572 163.653 121.128 163.532 120.624 163.532C120.139 163.532 119.705 163.653 119.322 163.896C118.949 164.129 118.65 164.456 118.426 164.876C118.212 165.296 118.104 165.781 118.104 166.332C118.104 166.873 118.212 167.359 118.426 167.788C118.65 168.208 118.949 168.539 119.322 168.782C119.705 169.025 120.139 169.146 120.624 169.146ZM125.89 170V159.64H126.954V170H125.89ZM130.099 173.22L131.527 169.818L131.569 170.658L127.985 162.65H129.231L131.751 168.446C131.807 168.558 131.858 168.689 131.905 168.838C131.961 168.978 132.008 169.113 132.045 169.244L131.751 169.328C131.816 169.16 131.877 168.997 131.933 168.838C131.998 168.67 132.059 168.507 132.115 168.348L134.271 162.65H135.517L132.479 170.056L131.247 173.22H130.099Z" fill="white"/>
<path d="M160.442 159.7C160.232 159.7 160.134 159.798 160.134 160.008V161.254C160.134 161.464 160.232 161.562 160.442 161.562H167.526C168.058 161.562 168.268 161.87 168.268 162.36V162.962C168.268 163.48 168.044 163.746 167.54 163.746H162.22C160.61 163.746 159.77 164.614 159.77 166.154V168.31C159.77 169.122 160.134 169.5 161.072 169.5H170.004C170.214 169.5 170.326 169.402 170.326 169.192V167.946C170.326 167.736 170.214 167.638 170.004 167.638H162.122C161.926 167.638 161.842 167.54 161.842 167.344V166.154C161.842 165.622 162.066 165.356 162.57 165.356H167.89C169.5 165.356 170.34 164.488 170.34 162.962V161.982C170.34 160.624 169.556 159.7 167.862 159.7H160.442ZM171.73 159.7C171.52 159.7 171.408 159.798 171.408 160.008V161.254C171.408 161.464 171.52 161.562 171.73 161.562H172.528C172.738 161.562 172.822 161.66 172.822 161.856V169.192C172.822 169.402 172.92 169.5 173.13 169.5H174.572C174.782 169.5 174.88 169.402 174.88 169.192V160.89C174.88 160.078 174.516 159.7 173.592 159.7H171.73ZM177.006 167.54C176.796 167.54 176.684 167.638 176.684 167.848V169.206C176.684 169.416 176.796 169.514 177.006 169.514H177.244L176.866 171.6C176.824 171.796 176.894 171.908 177.132 171.908H177.692C177.916 171.908 178 171.838 178.07 171.6L178.588 169.696C178.672 169.402 178.686 169.276 178.686 169.038V167.848C178.686 167.638 178.588 167.54 178.378 167.54H177.006ZM184.007 159.7C181.179 159.7 180.087 160.708 180.087 163.396V165.804C180.087 168.492 181.179 169.5 184.007 169.5H187.241C190.069 169.5 191.161 168.492 191.161 165.804V163.396C191.161 160.708 190.069 159.7 187.241 159.7H184.007ZM182.159 163.48C182.159 161.996 182.565 161.562 184.007 161.562H187.241C188.683 161.562 189.089 161.996 189.089 163.48V165.72C189.089 167.204 188.683 167.638 187.241 167.638H184.007C182.565 167.638 182.159 167.204 182.159 165.72V163.48ZM196.709 159.7C193.881 159.7 192.789 160.708 192.789 163.396V165.804C192.789 168.492 193.881 169.5 196.709 169.5H199.943C202.771 169.5 203.863 168.492 203.863 165.804V163.396C203.863 160.708 202.771 159.7 199.943 159.7H196.709ZM194.861 163.48C194.861 161.996 195.267 161.562 196.709 161.562H199.943C201.385 161.562 201.791 161.996 201.791 163.48V165.72C201.791 167.204 201.385 167.638 199.943 167.638H196.709C195.267 167.638 194.861 167.204 194.861 165.72V163.48ZM209.41 159.7C206.582 159.7 205.49 160.708 205.49 163.396V165.804C205.49 168.492 206.582 169.5 209.41 169.5H212.644C215.472 169.5 216.564 168.492 216.564 165.804V163.396C216.564 160.708 215.472 159.7 212.644 159.7H209.41ZM207.562 163.48C207.562 161.996 207.968 161.562 209.41 161.562H212.644C214.086 161.562 214.492 161.996 214.492 163.48V165.72C214.492 167.204 214.086 167.638 212.644 167.638H209.41C207.968 167.638 207.562 167.204 207.562 165.72V163.48ZM218.295 167.54C218.085 167.54 217.973 167.638 217.973 167.848V169.206C217.973 169.416 218.085 169.514 218.295 169.514H218.533L218.155 171.6C218.113 171.796 218.183 171.908 218.421 171.908H218.981C219.205 171.908 219.289 171.838 219.359 171.6L219.877 169.696C219.961 169.402 219.975 169.276 219.975 169.038V167.848C219.975 167.638 219.877 167.54 219.667 167.54H218.295ZM225.296 159.7C222.468 159.7 221.376 160.708 221.376 163.396V165.804C221.376 168.492 222.468 169.5 225.296 169.5H228.53C231.358 169.5 232.45 168.492 232.45 165.804V163.396C232.45 160.708 231.358 159.7 228.53 159.7H225.296ZM223.448 163.48C223.448 161.996 223.854 161.562 225.296 161.562H228.53C229.972 161.562 230.378 161.996 230.378 163.48V165.72C230.378 167.204 229.972 167.638 228.53 167.638H225.296C223.854 167.638 223.448 167.204 223.448 165.72V163.48ZM237.998 159.7C235.17 159.7 234.078 160.708 234.078 163.396V165.804C234.078 168.492 235.17 169.5 237.998 169.5H241.232C244.06 169.5 245.152 168.492 245.152 165.804V163.396C245.152 160.708 244.06 159.7 241.232 159.7H237.998ZM236.15 163.48C236.15 161.996 236.556 161.562 237.998 161.562H241.232C242.674 161.562 243.08 161.996 243.08 163.48V165.72C243.08 167.204 242.674 167.638 241.232 167.638H237.998C236.556 167.638 236.15 167.204 236.15 165.72V163.48ZM250.699 159.7C247.871 159.7 246.779 160.708 246.779 163.396V165.804C246.779 168.492 247.871 169.5 250.699 169.5H253.933C256.761 169.5 257.853 168.492 257.853 165.804V163.396C257.853 160.708 256.761 159.7 253.933 159.7H250.699ZM248.851 163.48C248.851 161.996 249.257 161.562 250.699 161.562H253.933C255.375 161.562 255.781 161.996 255.781 163.48V165.72C255.781 167.204 255.375 167.638 253.933 167.638H250.699C249.257 167.638 248.851 167.204 248.851 165.72V163.48Z" fill="white"/>
<rect opacity="0.1" x="30" y="196" width="480" height="1" fill="white"/>
<path d="M32.5 222V229.5C32.5 229.898 32.658 230.279 32.9393 230.561C33.2206 230.842 33.6022 231 34 231H35.5M32.5 222H31.5M32.5 222H43.5M43.5 222H44.5M43.5 222V229.5C43.5 229.898 43.342 230.279 43.0607 230.561C42.7794 230.842 42.3978 231 42 231H40.5M35.5 231H40.5M35.5 231L34.8333 233M40.5 231L41.1667 233M41.1667 233L41.5 234M41.1667 233H34.8333M34.8333 233L34.5 234M35 228L37 226L38.432 227.432C39.1048 226.466 39.9814 225.66 41 225.07" stroke="white" stroke-width="1.5" stroke-linecap="round" stroke-linejoin="round"/>
<path d="M57.428 233V223.2H58.436L64.638 231.67L64.47 231.754C64.4233 231.455 64.386 231.11 64.358 230.718C64.33 230.317 64.3067 229.85 64.288 229.318C64.2787 228.786 64.274 228.179 64.274 227.498V223.2H65.38V233H64.358L58.17 224.642L58.338 224.516C58.3847 225.02 58.4173 225.463 58.436 225.846C58.464 226.229 58.4873 226.56 58.506 226.84C58.5247 227.111 58.534 227.349 58.534 227.554C58.534 227.75 58.534 227.927 58.534 228.086V233H57.428ZM71.1545 233.14C70.4171 233.14 69.7638 232.981 69.1945 232.664C68.6251 232.337 68.1771 231.889 67.8505 231.32C67.5331 230.751 67.3745 230.102 67.3745 229.374C67.3745 228.805 67.4631 228.287 67.6405 227.82C67.8271 227.344 68.0791 226.938 68.3965 226.602C68.7231 226.257 69.1105 225.991 69.5585 225.804C70.0065 225.617 70.4965 225.524 71.0285 225.524C71.4951 225.524 71.9291 225.608 72.3305 225.776C72.7411 225.944 73.0958 226.187 73.3945 226.504C73.6931 226.812 73.9218 227.181 74.0805 227.61C74.2391 228.03 74.3091 228.497 74.2905 229.01L74.2765 229.542H68.1445L67.9205 228.674H73.3945L73.1985 228.912L73.2125 228.562C73.1938 228.161 73.0818 227.806 72.8765 227.498C72.6711 227.19 72.4051 226.947 72.0785 226.77C71.7611 226.593 71.4111 226.504 71.0285 226.504C70.4871 226.504 70.0205 226.621 69.6285 226.854C69.2365 227.078 68.9378 227.4 68.7325 227.82C68.5365 228.231 68.4338 228.725 68.4245 229.304C68.4338 229.883 68.5551 230.387 68.7885 230.816C69.0218 231.236 69.3485 231.567 69.7685 231.81C70.1978 232.043 70.6925 232.16 71.2525 232.16C71.6538 232.16 72.0271 232.095 72.3725 231.964C72.7178 231.824 73.0678 231.595 73.4225 231.278L73.9545 232.034C73.7305 232.258 73.4645 232.454 73.1565 232.622C72.8578 232.781 72.5358 232.907 72.1905 233C71.8451 233.093 71.4998 233.14 71.1545 233.14ZM76.8702 233V223.774H77.9342V233H76.8702ZM75.1762 226.686V225.65H79.7682V226.686H75.1762ZM82.8628 233L80.3148 225.65L81.4068 225.636L83.4228 231.642L83.1428 231.628L85.2008 226.798H85.8448L87.9168 231.642L87.5948 231.656L89.6248 225.65H90.7028L88.1828 233H87.4688L85.3268 227.904L85.6208 227.932L83.5768 233H82.8628ZM95.0933 233.14C94.3746 233.14 93.7306 232.977 93.1613 232.65C92.6013 232.314 92.1579 231.861 91.8313 231.292C91.5046 230.713 91.3413 230.055 91.3413 229.318C91.3413 228.581 91.5046 227.927 91.8313 227.358C92.1579 226.789 92.6013 226.341 93.1613 226.014C93.7306 225.687 94.3746 225.524 95.0933 225.524C95.8119 225.524 96.4513 225.687 97.0113 226.014C97.5806 226.341 98.0239 226.789 98.3413 227.358C98.6679 227.927 98.8313 228.581 98.8313 229.318C98.8313 230.055 98.6679 230.713 98.3413 231.292C98.0239 231.861 97.5806 232.314 97.0113 232.65C96.4513 232.977 95.8119 233.14 95.0933 233.14ZM95.0933 232.16C95.6066 232.16 96.0639 232.039 96.4653 231.796C96.8759 231.544 97.1933 231.203 97.4173 230.774C97.6506 230.345 97.7626 229.859 97.7533 229.318C97.7626 228.767 97.6506 228.282 97.4173 227.862C97.1933 227.442 96.8759 227.111 96.4653 226.868C96.0639 226.625 95.6066 226.504 95.0933 226.504C94.5799 226.504 94.1179 226.625 93.7073 226.868C93.3059 227.111 92.9886 227.447 92.7553 227.876C92.5219 228.296 92.4099 228.777 92.4193 229.318C92.4099 229.859 92.5219 230.345 92.7553 230.774C92.9886 231.203 93.3059 231.544 93.7073 231.796C94.1179 232.039 94.5799 232.16 95.0933 232.16ZM100.389 233V225.65H101.453L101.467 227.778L101.341 227.414C101.434 227.078 101.593 226.765 101.817 226.476C102.05 226.187 102.33 225.958 102.657 225.79C102.983 225.613 103.343 225.524 103.735 225.524C103.893 225.524 104.043 225.538 104.183 225.566C104.323 225.585 104.439 225.613 104.533 225.65L104.253 226.812C104.122 226.765 103.987 226.728 103.847 226.7C103.716 226.663 103.59 226.644 103.469 226.644C103.179 226.644 102.909 226.705 102.657 226.826C102.414 226.938 102.204 227.092 102.027 227.288C101.849 227.484 101.709 227.708 101.607 227.96C101.513 228.203 101.467 228.455 101.467 228.716V233H100.389ZM106.536 230.634L106.494 229.43L110.316 225.65H111.772L106.536 230.634ZM105.598 233V222.64H106.662V233H105.598ZM110.61 233L107.586 229.486L108.342 228.786L111.982 233H110.61Z" fill="white"/>
<path d="M160.344 222.7C160.064 222.7 159.924 222.84 159.924 223.12V232.08C159.924 232.36 160.064 232.5 160.344 232.5H168.66C170.522 232.5 171.138 231.562 171.138 230.078V229.266C171.138 228.44 170.83 227.838 170.172 227.46C170.76 227.068 171.068 226.48 171.068 225.682V225.01C171.068 223.456 170.34 222.7 168.408 222.7H160.344ZM167.806 228.3C168.73 228.3 169.024 228.608 169.024 229.182V229.714C169.024 230.302 168.73 230.568 167.988 230.568H162.248C162.122 230.568 162.066 230.512 162.066 230.386V228.3H167.806ZM162.066 224.814C162.066 224.688 162.122 224.632 162.248 224.632H167.974C168.702 224.632 169.01 224.898 169.01 225.472V225.948C169.01 226.494 168.73 226.774 167.806 226.774H162.066V224.814ZM173.111 222.7C172.901 222.7 172.789 222.798 172.789 223.008V232.192C172.789 232.402 172.901 232.5 173.111 232.5H174.623C174.833 232.5 174.931 232.402 174.931 232.192V223.008C174.931 222.798 174.833 222.7 174.623 222.7H173.111ZM178.055 222.7C177.201 222.7 176.795 223.022 176.795 224.156V232.192C176.795 232.402 176.907 232.5 177.117 232.5H178.587C178.797 232.5 178.895 232.402 178.895 232.192V224.884C178.895 224.786 178.923 224.744 179.007 224.744H179.133C179.217 224.744 179.259 224.772 179.315 224.842L184.537 231.674C185.097 232.416 185.307 232.5 186.161 232.5H187.365C188.219 232.5 188.625 232.178 188.625 231.044V223.008C188.625 222.798 188.527 222.7 188.317 222.7H186.847C186.637 222.7 186.539 222.798 186.539 223.008V230.316C186.539 230.414 186.497 230.456 186.427 230.456H186.301C186.217 230.456 186.161 230.428 186.119 230.358L180.911 223.526C180.379 222.812 180.183 222.7 179.287 222.7H178.055ZM195.871 222.7C195.283 222.7 194.863 222.924 194.401 223.764L189.809 232.178C189.711 232.36 189.753 232.5 189.991 232.5H191.811C191.979 232.5 192.063 232.458 192.133 232.318L193.099 230.512H199.679L200.673 232.318C200.743 232.458 200.813 232.5 200.995 232.5H202.773C202.997 232.5 203.039 232.36 202.941 232.178L198.307 223.764C197.845 222.924 197.411 222.7 196.697 222.7H195.871ZM196.179 224.786C196.221 224.716 196.263 224.688 196.333 224.688H196.417C196.487 224.688 196.529 224.716 196.571 224.786L198.797 228.888H193.981L196.179 224.786ZM205.385 222.7C204.531 222.7 204.125 223.022 204.125 224.156V232.192C204.125 232.402 204.237 232.5 204.447 232.5H205.917C206.127 232.5 206.225 232.402 206.225 232.192V224.884C206.225 224.786 206.253 224.744 206.337 224.744H206.463C206.547 224.744 206.589 224.772 206.645 224.842L211.867 231.674C212.427 232.416 212.637 232.5 213.491 232.5H214.695C215.549 232.5 215.955 232.178 215.955 231.044V223.008C215.955 222.798 215.857 222.7 215.647 222.7H214.177C213.967 222.7 213.869 222.798 213.869 223.008V230.316C213.869 230.414 213.827 230.456 213.757 230.456H213.631C213.547 230.456 213.491 230.428 213.449 230.358L208.241 223.526C207.709 222.812 207.513 222.7 206.617 222.7H205.385ZM221.619 222.7C218.791 222.7 217.699 223.708 217.699 226.396V228.804C217.699 231.492 218.791 232.5 221.619 232.5H227.933C228.143 232.5 228.241 232.402 228.241 232.192V230.82C228.241 230.61 228.143 230.512 227.933 230.512H221.703C220.261 230.512 219.841 230.078 219.841 228.594V226.606C219.841 225.122 220.261 224.702 221.703 224.702H227.933C228.143 224.702 228.241 224.59 228.241 224.38V223.008C228.241 222.798 228.143 222.7 227.933 222.7H221.619ZM233.541 222.7C230.713 222.7 229.621 223.708 229.621 226.396V228.804C229.621 231.492 230.713 232.5 233.541 232.5H239.701C239.911 232.5 240.023 232.402 240.023 232.192V230.862C240.023 230.652 239.911 230.554 239.701 230.554H233.583C232.127 230.554 231.721 230.12 231.721 228.65V228.412H239.631C239.841 228.412 239.939 228.314 239.939 228.104V226.998C239.939 226.788 239.841 226.69 239.631 226.69H231.721V226.55C231.721 225.08 232.127 224.646 233.583 224.646H239.701C239.911 224.646 240.023 224.548 240.023 224.338V223.008C240.023 222.798 239.911 222.7 239.701 222.7H233.541ZM248.627 222.7C246.933 222.7 246.149 223.624 246.149 224.982V226.004C246.149 227.544 246.989 228.412 248.599 228.412H253.849C254.339 228.412 254.577 228.678 254.577 229.196V229.77C254.577 230.26 254.367 230.554 253.835 230.554H246.485C246.275 230.554 246.163 230.652 246.163 230.862V232.192C246.163 232.402 246.275 232.5 246.485 232.5H254.241C255.935 232.5 256.719 231.576 256.719 230.218V229.098C256.719 227.558 255.879 226.69 254.269 226.69H249.019C248.529 226.69 248.291 226.424 248.291 225.906V225.43C248.291 224.94 248.501 224.646 249.033 224.646H256.047C256.257 224.646 256.355 224.548 256.355 224.338V223.008C256.355 222.798 256.257 222.7 256.047 222.7H248.627ZM259.566 222.7C258.572 222.7 258.32 223.092 258.32 224.156V232.192C258.32 232.402 258.432 232.5 258.642 232.5H260.07C260.28 232.5 260.378 232.402 260.378 232.192V224.884C260.378 224.786 260.406 224.744 260.49 224.744H260.616C260.714 224.744 260.77 224.772 260.798 224.856L263.626 231.128C264.088 232.136 264.48 232.5 265.418 232.5H266.09C267.028 232.5 267.42 232.136 267.882 231.128L270.71 224.856C270.738 224.772 270.794 224.744 270.892 224.744H271.018C271.102 224.744 271.13 224.786 271.13 224.884V232.192C271.13 232.402 271.228 232.5 271.438 232.5H272.866C273.076 232.5 273.188 232.402 273.188 232.192V224.156C273.188 223.092 272.936 222.7 271.956 222.7H270.458C269.632 222.7 269.352 222.882 268.974 223.764L266.062 230.484C266.02 230.582 265.964 230.61 265.866 230.61H265.698C265.6 230.61 265.544 230.582 265.502 230.484L262.59 223.764C262.212 222.882 261.932 222.7 261.092 222.7H259.566ZM280.431 222.7C279.843 222.7 279.423 222.924 278.961 223.764L274.369 232.178C274.271 232.36 274.313 232.5 274.551 232.5H276.371C276.539 232.5 276.623 232.458 276.693 232.318L277.659 230.512H284.239L285.233 232.318C285.303 232.458 285.373 232.5 285.555 232.5H287.333C287.557 232.5 287.599 232.36 287.501 232.178L282.867 223.764C282.405 222.924 281.971 222.7 281.257 222.7H280.431ZM280.739 224.786C280.781 224.716 280.823 224.688 280.893 224.688H280.977C281.047 224.688 281.089 224.716 281.131 224.786L283.357 228.888H278.541L280.739 224.786ZM289.106 222.7C288.826 222.7 288.686 222.84 288.686 223.12V232.192C288.686 232.402 288.798 232.5 289.008 232.5H290.52C290.73 232.5 290.828 232.402 290.828 232.192V229.406H295.35L297.562 232.318C297.646 232.444 297.716 232.5 297.954 232.5H299.76C300.012 232.5 300.026 232.248 299.942 232.15L297.548 229.182C299.018 228.916 299.634 227.978 299.634 226.382V225.584C299.634 223.694 298.766 222.7 296.624 222.7H289.106ZM290.828 224.786C290.828 224.674 290.884 224.618 291.01 224.618H296.19C297.142 224.618 297.492 225.024 297.492 225.864V226.452C297.492 227.292 297.142 227.698 296.19 227.698H290.828V224.786ZM300.915 222.7C300.705 222.7 300.593 222.798 300.593 223.008V224.38C300.593 224.59 300.705 224.702 300.915 224.702H305.311V232.192C305.311 232.402 305.409 232.5 305.619 232.5H307.145C307.355 232.5 307.453 232.402 307.453 232.192V224.702H311.849C312.059 224.702 312.171 224.59 312.171 224.38V223.008C312.171 222.798 312.059 222.7 311.849 222.7H300.915ZM321.916 222.7C319.088 222.7 317.996 223.708 317.996 226.396V228.804C317.996 231.492 319.088 232.5 321.916 232.5H328.23C328.44 232.5 328.538 232.402 328.538 232.192V230.82C328.538 230.61 328.44 230.512 328.23 230.512H322C320.558 230.512 320.138 230.078 320.138 228.594V226.606C320.138 225.122 320.558 224.702 322 224.702H328.23C328.44 224.702 328.538 224.59 328.538 224.38V223.008C328.538 222.798 328.44 222.7 328.23 222.7H321.916ZM330.351 222.7C330.141 222.7 330.029 222.798 330.029 223.008V232.192C330.029 232.402 330.141 232.5 330.351 232.5H331.863C332.073 232.5 332.171 232.402 332.171 232.192V228.468H338.723V232.192C338.723 232.402 338.821 232.5 339.031 232.5H340.543C340.753 232.5 340.865 232.402 340.865 232.192V223.008C340.865 222.798 340.753 222.7 340.543 222.7H339.031C338.821 222.7 338.723 222.798 338.723 223.008V226.648H332.171V223.008C332.171 222.798 332.073 222.7 331.863 222.7H330.351ZM348.107 222.7C347.519 222.7 347.099 222.924 346.637 223.764L342.045 232.178C341.947 232.36 341.989 232.5 342.227 232.5H344.047C344.215 232.5 344.299 232.458 344.369 232.318L345.335 230.512H351.915L352.909 232.318C352.979 232.458 353.049 232.5 353.231 232.5H355.009C355.233 232.5 355.275 232.36 355.177 232.178L350.543 223.764C350.081 222.924 349.647 222.7 348.933 222.7H348.107ZM348.415 224.786C348.457 224.716 348.499 224.688 348.569 224.688H348.653C348.723 224.688 348.765 224.716 348.807 224.786L351.033 228.888H346.217L348.415 224.786ZM356.684 222.7C356.474 222.7 356.361 222.798 356.361 223.008V232.192C356.361 232.402 356.474 232.5 356.684 232.5H358.196C358.406 232.5 358.504 232.402 358.504 232.192V223.008C358.504 222.798 358.406 222.7 358.196 222.7H356.684ZM361.627 222.7C360.773 222.7 360.367 223.022 360.367 224.156V232.192C360.367 232.402 360.479 232.5 360.689 232.5H362.159C362.369 232.5 362.467 232.402 362.467 232.192V224.884C362.467 224.786 362.495 224.744 362.579 224.744H362.705C362.789 224.744 362.831 224.772 362.887 224.842L368.109 231.674C368.669 232.416 368.879 232.5 369.733 232.5H370.937C371.791 232.5 372.197 232.178 372.197 231.044V223.008C372.197 222.798 372.099 222.7 371.889 222.7H370.419C370.209 222.7 370.111 222.798 370.111 223.008V230.316C370.111 230.414 370.069 230.456 369.999 230.456H369.873C369.789 230.456 369.733 230.428 369.691 230.358L364.483 223.526C363.951 222.812 363.755 222.7 362.859 222.7H361.627Z" fill="white"/>
<rect opacity="0.1" x="30" y="259" width="480" height="1" fill="white"/>
<path d="M38 287V295M36 293.121L36.586 293.561C37.3667 294.147 38.6327 294.147 39.414 293.561C40.1953 292.975 40.1953 292.025 39.414 291.439C39.024 291.146 38.512 291 38 291C37.5167 291 37.0333 290.853 36.6647 290.561C35.9273 289.975 35.9273 289.025 36.6647 288.439C37.402 287.853 38.598 287.853 39.3353 288.439L39.612 288.659M44 291C44 291.788 43.8448 292.568 43.5433 293.296C43.2417 294.024 42.7998 294.685 42.2426 295.243C41.6855 295.8 41.0241 296.242 40.2961 296.543C39.5681 296.845 38.7879 297 38 297C37.2121 297 36.4319 296.845 35.7039 296.543C34.9759 296.242 34.3145 295.8 33.7574 295.243C33.2002 294.685 32.7583 294.024 32.4567 293.296C32.1552 292.568 32 291.788 32 291C32 289.409 32.6321 287.883 33.7574 286.757C34.8826 285.632 36.4087 285 38 285C39.5913 285 41.1174 285.632 42.2426 286.757C43.3679 287.883 44 289.409 44 291Z" stroke="white" stroke-width="1.5" stroke-linecap="round" stroke-linejoin="round"/>
<path d="M61.432 296.14C60.7413 296.14 60.1067 296.019 59.528 295.776C58.9587 295.533 58.4593 295.188 58.03 294.74C57.61 294.292 57.2833 293.76 57.05 293.144C56.826 292.528 56.714 291.851 56.714 291.114C56.714 290.405 56.8353 289.747 57.078 289.14C57.3207 288.524 57.6567 287.992 58.086 287.544C58.5247 287.087 59.0333 286.732 59.612 286.48C60.1907 286.228 60.8253 286.102 61.516 286.102C61.992 286.102 62.454 286.172 62.902 286.312C63.35 286.452 63.756 286.648 64.12 286.9C64.4933 287.152 64.806 287.441 65.058 287.768L64.302 288.538C63.9007 288.109 63.462 287.782 62.986 287.558C62.5193 287.325 62.0293 287.208 61.516 287.208C60.9933 287.208 60.508 287.306 60.06 287.502C59.612 287.698 59.22 287.969 58.884 288.314C58.5573 288.659 58.3007 289.075 58.114 289.56C57.9273 290.036 57.834 290.554 57.834 291.114C57.834 291.702 57.9273 292.239 58.114 292.724C58.3007 293.2 58.5573 293.611 58.884 293.956C59.22 294.292 59.6167 294.553 60.074 294.74C60.5313 294.927 61.04 295.02 61.6 295.02C61.9453 295.02 62.2813 294.978 62.608 294.894C62.9347 294.801 63.238 294.67 63.518 294.502C63.798 294.334 64.0547 294.138 64.288 293.914L64.862 294.824C64.6287 295.076 64.33 295.305 63.966 295.51C63.602 295.706 63.2007 295.86 62.762 295.972C62.3327 296.084 61.8893 296.14 61.432 296.14ZM69.855 296.14C69.1363 296.14 68.4923 295.977 67.923 295.65C67.363 295.314 66.9196 294.861 66.593 294.292C66.2663 293.713 66.103 293.055 66.103 292.318C66.103 291.581 66.2663 290.927 66.593 290.358C66.9196 289.789 67.363 289.341 67.923 289.014C68.4923 288.687 69.1363 288.524 69.855 288.524C70.5736 288.524 71.213 288.687 71.773 289.014C72.3423 289.341 72.7856 289.789 73.103 290.358C73.4296 290.927 73.593 291.581 73.593 292.318C73.593 293.055 73.4296 293.713 73.103 294.292C72.7856 294.861 72.3423 295.314 71.773 295.65C71.213 295.977 70.5736 296.14 69.855 296.14ZM69.855 295.16C70.3683 295.16 70.8256 295.039 71.227 294.796C71.6376 294.544 71.955 294.203 72.179 293.774C72.4123 293.345 72.5243 292.859 72.515 292.318C72.5243 291.767 72.4123 291.282 72.179 290.862C71.955 290.442 71.6376 290.111 71.227 289.868C70.8256 289.625 70.3683 289.504 69.855 289.504C69.3416 289.504 68.8796 289.625 68.469 289.868C68.0676 290.111 67.7503 290.447 67.517 290.876C67.2836 291.296 67.1716 291.777 67.181 292.318C67.1716 292.859 67.2836 293.345 67.517 293.774C67.7503 294.203 68.0676 294.544 68.469 294.796C68.8796 295.039 69.3416 295.16 69.855 295.16ZM75.1503 296V288.65H76.2142V290.218L76.0042 290.344C76.1069 290.017 76.2936 289.719 76.5643 289.448C76.8349 289.177 77.1616 288.958 77.5443 288.79C77.9269 288.613 78.3236 288.524 78.7343 288.524C79.2849 288.524 79.7469 288.631 80.1203 288.846C80.5029 289.051 80.7923 289.373 80.9883 289.812C81.1843 290.251 81.2823 290.806 81.2823 291.478V296H80.2183V291.548C80.2183 291.072 80.1483 290.68 80.0083 290.372C79.8776 290.064 79.6769 289.84 79.4063 289.7C79.1449 289.56 78.8136 289.495 78.4123 289.504C78.0949 289.504 77.8009 289.555 77.5303 289.658C77.2689 289.761 77.0403 289.901 76.8443 290.078C76.6483 290.246 76.4943 290.437 76.3823 290.652C76.2703 290.857 76.2142 291.063 76.2142 291.268V296H75.6963C75.6123 296 75.5236 296 75.4303 296C75.3369 296 75.2436 296 75.1503 296ZM84.2803 296V286.774H85.3443V296H84.2803ZM82.5863 289.686V288.65H87.1783V289.686H82.5863ZM88.453 296V288.65H89.517L89.531 290.778L89.405 290.414C89.4983 290.078 89.657 289.765 89.881 289.476C90.1143 289.187 90.3943 288.958 90.721 288.79C91.0477 288.613 91.407 288.524 91.799 288.524C91.9577 288.524 92.107 288.538 92.247 288.566C92.387 288.585 92.5037 288.613 92.597 288.65L92.317 289.812C92.1863 289.765 92.051 289.728 91.911 289.7C91.7803 289.663 91.6543 289.644 91.533 289.644C91.2437 289.644 90.973 289.705 90.721 289.826C90.4783 289.938 90.2683 290.092 90.091 290.288C89.9137 290.484 89.7737 290.708 89.671 290.96C89.5777 291.203 89.531 291.455 89.531 291.716V296H88.453ZM97.9955 296V291.1C97.9955 290.624 97.8275 290.241 97.4915 289.952C97.1555 289.663 96.7122 289.518 96.1615 289.518C95.7042 289.518 95.2888 289.611 94.9155 289.798C94.5422 289.985 94.2108 290.265 93.9215 290.638L93.2215 289.938C93.6415 289.462 94.0988 289.107 94.5935 288.874C95.0975 288.641 95.6435 288.524 96.2315 288.524C96.7915 288.524 97.2768 288.617 97.6875 288.804C98.0982 288.991 98.4108 289.261 98.6255 289.616C98.8495 289.971 98.9615 290.4 98.9615 290.904V296H97.9955ZM95.4755 296.14C94.9995 296.14 94.5748 296.047 94.2015 295.86C93.8282 295.673 93.5295 295.417 93.3055 295.09C93.0908 294.754 92.9835 294.362 92.9835 293.914C92.9835 293.55 93.0488 293.228 93.1795 292.948C93.3195 292.668 93.5202 292.435 93.7815 292.248C94.0428 292.061 94.3742 291.921 94.7755 291.828C95.1768 291.725 95.6342 291.674 96.1475 291.674H98.4715L98.3875 292.556H96.0075C95.6808 292.556 95.3915 292.584 95.1395 292.64C94.8968 292.696 94.6868 292.785 94.5095 292.906C94.3415 293.018 94.2108 293.158 94.1175 293.326C94.0335 293.485 93.9915 293.676 93.9915 293.9C93.9915 294.161 94.0568 294.395 94.1875 294.6C94.3275 294.796 94.5095 294.95 94.7335 295.062C94.9668 295.165 95.2282 295.216 95.5175 295.216C95.9002 295.216 96.2595 295.151 96.5955 295.02C96.9315 294.88 97.2302 294.693 97.4915 294.46C97.7622 294.217 97.9768 293.947 98.1355 293.648L98.4295 294.32C98.2242 294.675 97.9675 294.992 97.6595 295.272C97.3515 295.543 97.0108 295.757 96.6375 295.916C96.2735 296.065 95.8862 296.14 95.4755 296.14ZM104.032 296.14C103.332 296.14 102.706 295.972 102.156 295.636C101.614 295.3 101.185 294.847 100.868 294.278C100.56 293.699 100.406 293.046 100.406 292.318C100.406 291.599 100.56 290.955 100.868 290.386C101.185 289.807 101.614 289.355 102.156 289.028C102.706 288.692 103.332 288.524 104.032 288.524C104.666 288.524 105.24 288.65 105.754 288.902C106.267 289.145 106.673 289.485 106.972 289.924L106.356 290.652C106.188 290.428 105.982 290.232 105.74 290.064C105.497 289.887 105.236 289.751 104.956 289.658C104.676 289.555 104.396 289.504 104.116 289.504C103.602 289.504 103.14 289.625 102.73 289.868C102.328 290.111 102.011 290.447 101.778 290.876C101.544 291.296 101.428 291.777 101.428 292.318C101.428 292.859 101.544 293.345 101.778 293.774C102.02 294.203 102.347 294.544 102.758 294.796C103.168 295.048 103.626 295.174 104.13 295.174C104.41 295.174 104.68 295.132 104.942 295.048C105.212 294.955 105.464 294.824 105.698 294.656C105.931 294.488 106.15 294.283 106.356 294.04L106.958 294.782C106.65 295.183 106.23 295.51 105.698 295.762C105.175 296.014 104.62 296.14 104.032 296.14ZM109.341 296V286.774H110.405V296H109.341ZM107.647 289.686V288.65H112.239V289.686H107.647Z" fill="white"/>
<path d="M163.38 287C161.36 287 160.58 287.72 160.58 289.64V291.36C160.58 293.28 161.36 294 163.38 294H165.69C167.71 294 168.49 293.28 168.49 291.36V289.64C168.49 287.72 167.71 287 165.69 287H163.38ZM162.06 289.7C162.06 288.64 162.35 288.33 163.38 288.33H165.69C166.72 288.33 167.01 288.64 167.01 289.7V291.3C167.01 292.36 166.72 292.67 165.69 292.67H163.38C162.35 292.67 162.06 292.36 162.06 291.3V289.7ZM176.222 287C176.062 287 175.982 287.05 175.902 287.14L173.592 289.46L171.412 287.14C171.332 287.05 171.252 287 171.092 287H169.722C169.542 287 169.542 287.17 169.622 287.26L172.592 290.32L169.302 293.74C169.212 293.83 169.222 294 169.392 294H170.692C170.862 294 170.932 293.96 171.022 293.86L173.502 291.27L175.972 293.86C176.052 293.96 176.132 294 176.292 294H177.662C177.842 294 177.852 293.83 177.762 293.74L174.552 290.37L177.622 287.26C177.712 287.17 177.702 287 177.522 287H176.222ZM178.939 287C178.739 287 178.639 287.1 178.639 287.3V293.7C178.639 293.9 178.739 294 178.939 294H184.879C186.209 294 186.649 293.33 186.649 292.27V291.69C186.649 291.1 186.429 290.67 185.959 290.4C186.379 290.12 186.599 289.7 186.599 289.13V288.65C186.599 287.54 186.079 287 184.699 287H178.939ZM184.269 291C184.929 291 185.139 291.22 185.139 291.63V292.01C185.139 292.43 184.929 292.62 184.399 292.62H180.299C180.209 292.62 180.169 292.58 180.169 292.49V291H184.269ZM180.169 288.51C180.169 288.42 180.209 288.38 180.299 288.38H184.389C184.909 288.38 185.129 288.57 185.129 288.98V289.32C185.129 289.71 184.929 289.91 184.269 289.91H180.169V288.51ZM188.198 287C188.048 287 187.978 287.07 187.978 287.22V288.11C187.978 288.26 188.048 288.33 188.198 288.33H193.258C193.638 288.33 193.788 288.55 193.788 288.9V289.33C193.788 289.7 193.628 289.89 193.268 289.89H189.468C188.318 289.89 187.718 290.51 187.718 291.61V293.15C187.718 293.73 187.978 294 188.648 294H195.028C195.178 294 195.258 293.93 195.258 293.78V292.89C195.258 292.74 195.178 292.67 195.028 292.67H189.398C189.258 292.67 189.198 292.6 189.198 292.46V291.61C189.198 291.23 189.358 291.04 189.718 291.04H193.518C194.668 291.04 195.268 290.42 195.268 289.33V288.63C195.268 287.66 194.708 287 193.498 287H188.198ZM199.181 287C197.161 287 196.381 287.72 196.381 289.64V291.36C196.381 293.28 197.161 294 199.181 294H202.101C203.421 294 203.921 293.37 203.921 292.31V291.58C203.921 290.51 203.461 289.89 202.171 289.89H197.861V289.7C197.861 288.64 198.151 288.33 199.181 288.33H203.431C203.581 288.33 203.651 288.26 203.651 288.11V287.22C203.651 287.07 203.581 287 203.431 287H199.181ZM201.871 290.99C202.291 290.99 202.451 291.17 202.451 291.58V292.11C202.451 292.52 202.281 292.71 201.861 292.71H199.181C198.151 292.71 197.861 292.4 197.861 291.35V290.99H201.871ZM207.012 287C205.632 287 205.112 287.54 205.112 288.65V289.13C205.112 289.7 205.322 290.14 205.732 290.42C205.272 290.68 205.062 291.1 205.062 291.69V292.27C205.062 293.33 205.512 294 206.832 294H211.172C212.492 294 212.942 293.33 212.942 292.27V291.69C212.942 291.1 212.732 290.68 212.272 290.42C212.682 290.14 212.892 289.7 212.892 289.13V288.65C212.892 287.54 212.372 287 210.992 287H207.012ZM206.552 291.63C206.552 291.22 206.752 291 207.412 291H210.592C211.252 291 211.462 291.22 211.462 291.63V292.07C211.462 292.49 211.242 292.68 210.712 292.68H207.292C206.762 292.68 206.552 292.49 206.552 292.07V291.63ZM206.562 288.96C206.562 288.55 206.772 288.32 207.302 288.32H210.702C211.232 288.32 211.442 288.55 211.442 288.96V289.33C211.442 289.72 211.252 289.93 210.592 289.93H207.412C206.752 289.93 206.562 289.72 206.562 289.33V288.96ZM215.005 287C214.335 287 214.075 287.27 214.075 287.85V290.19C214.075 290.78 214.335 291.04 215.005 291.04H219.625C219.985 291.04 220.145 291.23 220.145 291.6V292.1C220.145 292.45 219.995 292.67 219.615 292.67H214.315C214.165 292.67 214.085 292.74 214.085 292.89V293.78C214.085 293.93 214.165 294 214.315 294H219.855C221.065 294 221.625 293.34 221.625 292.37V291.6C221.625 290.51 221.025 289.89 219.875 289.89H215.755C215.615 289.89 215.555 289.82 215.555 289.68V288.54C215.555 288.4 215.615 288.33 215.755 288.33H221.145C221.295 288.33 221.365 288.26 221.365 288.11V287.22C221.365 287.07 221.295 287 221.145 287H215.005ZM225.538 287C223.518 287 222.738 287.72 222.738 289.64V291.36C222.738 293.28 223.518 294 225.538 294H229.938C230.088 294 230.168 293.93 230.168 293.78V292.83C230.168 292.68 230.088 292.61 229.938 292.61H225.568C224.528 292.61 224.238 292.3 224.238 291.25V291.08H229.888C230.038 291.08 230.108 291.01 230.108 290.86V290.07C230.108 289.92 230.038 289.85 229.888 289.85H224.238V289.75C224.238 288.7 224.528 288.39 225.568 288.39H229.938C230.088 288.39 230.168 288.32 230.168 288.17V287.22C230.168 287.07 230.088 287 229.938 287H225.538ZM234.034 287C232.014 287 231.234 287.72 231.234 289.64V291.36C231.234 293.28 232.014 294 234.034 294H238.544C238.694 294 238.764 293.93 238.764 293.78V292.8C238.764 292.65 238.694 292.58 238.544 292.58H234.094C233.064 292.58 232.764 292.27 232.764 291.21V289.79C232.764 288.73 233.064 288.43 234.094 288.43H238.544C238.694 288.43 238.764 288.35 238.764 288.2V287.22C238.764 287.07 238.694 287 238.544 287H234.034ZM239.63 287C239.48 287 239.4 287.07 239.4 287.22V288.04C239.4 288.18 239.48 288.26 239.63 288.26H245.43C245.48 288.26 245.52 288.29 245.52 288.33V288.38C245.52 288.45 245.49 288.49 245.44 288.55L240.52 293.73C240.43 293.83 240.47 294 240.63 294H242.03C242.24 294 242.33 293.95 242.46 293.81L246.72 289.23C247.01 288.91 247.11 288.73 247.11 288.3V287.61C247.11 287.25 246.9 287 246.47 287H239.63ZM250.841 287C248.821 287 248.041 287.72 248.041 289.64V291.36C248.041 293.28 248.821 294 250.841 294H255.241C255.391 294 255.471 293.93 255.471 293.78V292.83C255.471 292.68 255.391 292.61 255.241 292.61H250.871C249.831 292.61 249.541 292.3 249.541 291.25V291.08H255.191C255.341 291.08 255.411 291.01 255.411 290.86V290.07C255.411 289.92 255.341 289.85 255.191 289.85H249.541V289.75C249.541 288.7 249.831 288.39 250.871 288.39H255.241C255.391 288.39 255.471 288.32 255.471 288.17V287.22C255.471 287.07 255.391 287 255.241 287H250.841ZM259.337 287C257.317 287 256.537 287.72 256.537 289.64V293.78C256.537 293.93 256.617 294 256.767 294H257.847C257.997 294 258.067 293.93 258.067 293.78V291.18H263.687C263.837 291.18 263.907 291.11 263.907 290.96V290.17C263.907 290.02 263.837 289.95 263.687 289.95H258.067V289.75C258.067 288.7 258.367 288.39 259.397 288.39H263.737C263.887 288.39 263.967 288.32 263.967 288.17V287.22C263.967 287.07 263.887 287 263.737 287H259.337ZM265.017 287C264.867 287 264.797 287.07 264.797 287.22V288.11C264.797 288.26 264.867 288.33 265.017 288.33H269.907C270.437 288.33 270.657 288.52 270.657 288.94V289.29C270.657 289.68 270.457 289.89 269.797 289.89H265.077C264.927 289.89 264.847 289.96 264.847 290.11V290.82C264.847 290.97 264.927 291.04 265.077 291.04H269.797C270.457 291.04 270.667 291.27 270.667 291.68V292.05C270.667 292.48 270.447 292.67 269.927 292.67H265.017C264.867 292.67 264.797 292.74 264.797 292.89V293.78C264.797 293.93 264.867 294 265.017 294H270.377C271.697 294 272.147 293.33 272.147 292.27V291.69C272.147 291.12 271.947 290.68 271.507 290.4C271.897 290.11 272.097 289.68 272.097 289.13V288.65C272.097 287.54 271.577 287 270.197 287H265.017ZM276.105 287C274.085 287 273.305 287.72 273.305 289.64V291.36C273.305 293.28 274.085 294 276.105 294H279.025C280.345 294 280.845 293.37 280.845 292.31V291.58C280.845 290.51 280.385 289.89 279.095 289.89H274.785V289.7C274.785 288.64 275.075 288.33 276.105 288.33H280.355C280.505 288.33 280.575 288.26 280.575 288.11V287.22C280.575 287.07 280.505 287 280.355 287H276.105ZM278.795 290.99C279.215 290.99 279.375 291.17 279.375 291.58V292.11C279.375 292.52 279.205 292.71 278.785 292.71H276.105C275.075 292.71 274.785 292.4 274.785 291.35V290.99H278.795ZM284.786 287C282.766 287 281.986 287.72 281.986 289.64V291.36C281.986 293.28 282.766 294 284.786 294H287.096C289.116 294 289.896 293.28 289.896 291.36V289.64C289.896 287.72 289.116 287 287.096 287H284.786ZM283.466 289.7C283.466 288.64 283.756 288.33 284.786 288.33H287.096C288.126 288.33 288.416 288.64 288.416 289.7V291.3C288.416 292.36 288.126 292.67 287.096 292.67H284.786C283.756 292.67 283.466 292.36 283.466 291.3V289.7ZM294.989 287C294.569 287 294.269 287.16 293.939 287.76L290.659 293.77C290.589 293.9 290.619 294 290.789 294H292.089C292.209 294 292.269 293.97 292.319 293.87L293.009 292.58H297.709L298.419 293.87C298.469 293.97 298.519 294 298.649 294H299.919C300.079 294 300.109 293.9 300.039 293.77L296.729 287.76C296.399 287.16 296.089 287 295.579 287H294.989ZM295.209 288.49C295.239 288.44 295.269 288.42 295.319 288.42H295.379C295.429 288.42 295.459 288.44 295.489 288.49L297.079 291.42H293.639L295.209 288.49ZM303.605 287C301.585 287 300.805 287.72 300.805 289.64V291.36C300.805 293.28 301.585 294 303.605 294H305.915C307.935 294 308.715 293.28 308.715 291.36V289.64C308.715 287.72 307.935 287 305.915 287H303.605ZM302.285 289.7C302.285 288.64 302.575 288.33 303.605 288.33H305.915C306.945 288.33 307.235 288.64 307.235 289.7V291.3C307.235 292.36 306.945 292.67 305.915 292.67H303.605C302.575 292.67 302.285 292.36 302.285 291.3V289.7ZM311.757 287C310.457 287 309.847 287.59 309.847 288.8V289.46C309.847 290.54 310.447 291.08 311.687 291.08H315.917V291.3C315.917 292.36 315.627 292.67 314.597 292.67H310.307C310.157 292.67 310.087 292.74 310.087 292.89V293.78C310.087 293.93 310.157 294 310.307 294H314.597C316.617 294 317.397 293.28 317.397 291.36V289.64C317.397 287.72 316.617 287 314.597 287H311.757ZM311.307 289.34V288.89C311.307 288.48 311.477 288.29 311.887 288.29H314.597C315.627 288.29 315.917 288.6 315.917 289.65V289.98H311.887C311.467 289.98 311.307 289.75 311.307 289.34ZM318.729 290.39C318.419 290.6 318.339 290.83 318.339 291.2V291.96C318.339 292.32 318.549 292.57 318.979 292.57H324.239V293.78C324.239 293.93 324.319 294 324.469 294H325.499C325.649 294 325.719 293.93 325.719 293.78V292.57H326.539C326.689 292.57 326.759 292.5 326.759 292.35V291.54C326.759 291.39 326.689 291.31 326.539 291.31H325.719V288.02C325.719 287.21 325.429 287 324.849 287H324.259C323.809 287 323.589 287.08 323.259 287.3L318.729 290.39ZM319.989 291.24V291.18C319.989 291.11 320.009 291.07 320.049 291.04L323.879 288.41C323.969 288.35 324.019 288.33 324.099 288.33H324.159C324.209 288.33 324.239 288.36 324.239 288.44V291.31H320.069C320.019 291.31 319.989 291.28 319.989 291.24ZM327.218 287C327.068 287 326.988 287.07 326.988 287.22V288.11C326.988 288.26 327.068 288.33 327.218 288.33H327.788C327.938 288.33 327.998 288.4 327.998 288.54V293.78C327.998 293.93 328.068 294 328.218 294H329.248C329.398 294 329.468 293.93 329.468 293.78V287.85C329.468 287.27 329.208 287 328.548 287H327.218ZM330.887 290.39C330.577 290.6 330.497 290.83 330.497 291.2V291.96C330.497 292.32 330.707 292.57 331.137 292.57H336.397V293.78C336.397 293.93 336.477 294 336.627 294H337.657C337.807 294 337.877 293.93 337.877 293.78V292.57H338.697C338.847 292.57 338.917 292.5 338.917 292.35V291.54C338.917 291.39 338.847 291.31 338.697 291.31H337.877V288.02C337.877 287.21 337.587 287 337.007 287H336.417C335.967 287 335.747 287.08 335.417 287.3L330.887 290.39ZM332.147 291.24V291.18C332.147 291.11 332.167 291.07 332.207 291.04L336.037 288.41C336.127 288.35 336.177 288.33 336.257 288.33H336.317C336.367 288.33 336.397 288.36 336.397 288.44V291.31H332.227C332.177 291.31 332.147 291.28 332.147 291.24ZM342.569 287C340.549 287 339.769 287.72 339.769 289.64V291.36C339.769 293.28 340.549 294 342.569 294H346.969C347.119 294 347.199 293.93 347.199 293.78V292.83C347.199 292.68 347.119 292.61 346.969 292.61H342.599C341.559 292.61 341.269 292.3 341.269 291.25V291.08H346.919C347.069 291.08 347.139 291.01 347.139 290.86V290.07C347.139 289.92 347.069 289.85 346.919 289.85H341.269V289.75C341.269 288.7 341.559 288.39 342.599 288.39H346.969C347.119 288.39 347.199 288.32 347.199 288.17V287.22C347.199 287.07 347.119 287 346.969 287H342.569ZM349.166 287C348.496 287 348.236 287.27 348.236 287.85V290.19C348.236 290.78 348.496 291.04 349.166 291.04H353.786C354.146 291.04 354.306 291.23 354.306 291.6V292.1C354.306 292.45 354.156 292.67 353.776 292.67H348.476C348.326 292.67 348.246 292.74 348.246 292.89V293.78C348.246 293.93 348.326 294 348.476 294H354.016C355.226 294 355.786 293.34 355.786 292.37V291.6C355.786 290.51 355.186 289.89 354.036 289.89H349.916C349.776 289.89 349.716 289.82 349.716 289.68V288.54C349.716 288.4 349.776 288.33 349.916 288.33H355.306C355.456 288.33 355.526 288.26 355.526 288.11V287.22C355.526 287.07 355.456 287 355.306 287H349.166ZM359.698 287C357.678 287 356.898 287.72 356.898 289.64V293.78C356.898 293.93 356.978 294 357.128 294H358.208C358.358 294 358.428 293.93 358.428 293.78V291.18H364.048C364.198 291.18 364.268 291.11 364.268 290.96V290.17C364.268 290.02 364.198 289.95 364.048 289.95H358.428V289.75C358.428 288.7 358.728 288.39 359.758 288.39H364.098C364.248 288.39 364.328 288.32 364.328 288.17V287.22C364.328 287.07 364.248 287 364.098 287H359.698ZM368.038 287C366.018 287 365.238 287.72 365.238 289.64V291.36C365.238 293.28 366.018 294 368.038 294H370.348C372.368 294 373.148 293.28 373.148 291.36V289.64C373.148 287.72 372.368 287 370.348 287H368.038ZM366.718 289.7C366.718 288.64 367.008 288.33 368.038 288.33H370.348C371.378 288.33 371.668 288.64 371.668 289.7V291.3C371.668 292.36 371.378 292.67 370.348 292.67H368.038C367.008 292.67 366.718 292.36 366.718 291.3V289.7ZM375.21 287C374.54 287 374.28 287.27 374.28 287.85V290.19C374.28 290.78 374.54 291.04 375.21 291.04H379.83C380.19 291.04 380.35 291.23 380.35 291.6V292.1C380.35 292.45 380.2 292.67 379.82 292.67H374.52C374.37 292.67 374.29 292.74 374.29 292.89V293.78C374.29 293.93 374.37 294 374.52 294H380.06C381.27 294 381.83 293.34 381.83 292.37V291.6C381.83 290.51 381.23 289.89 380.08 289.89H375.96C375.82 289.89 375.76 289.82 375.76 289.68V288.54C375.76 288.4 375.82 288.33 375.96 288.33H381.35C381.5 288.33 381.57 288.26 381.57 288.11V287.22C381.57 287.07 381.5 287 381.35 287H375.21ZM385.743 287C383.723 287 382.943 287.72 382.943 289.64V293.78C382.943 293.93 383.023 294 383.173 294H384.253C384.403 294 384.473 293.93 384.473 293.78V291.18H390.093C390.243 291.18 390.313 291.11 390.313 290.96V290.17C390.313 290.02 390.243 289.95 390.093 289.95H384.473V289.75C384.473 288.7 384.773 288.39 385.803 288.39H390.143C390.293 288.39 390.373 288.32 390.373 288.17V287.22C390.373 287.07 390.293 287 390.143 287H385.743ZM393.233 287C391.853 287 391.333 287.54 391.333 288.65V289.13C391.333 289.7 391.543 290.14 391.953 290.42C391.493 290.68 391.283 291.1 391.283 291.69V292.27C391.283 293.33 391.733 294 393.053 294H397.393C398.713 294 399.163 293.33 399.163 292.27V291.69C399.163 291.1 398.953 290.68 398.493 290.42C398.903 290.14 399.113 289.7 399.113 289.13V288.65C399.113 287.54 398.593 287 397.213 287H393.233ZM392.773 291.63C392.773 291.22 392.973 291 393.633 291H396.813C397.473 291 397.683 291.22 397.683 291.63V292.07C397.683 292.49 397.463 292.68 396.933 292.68H393.513C392.983 292.68 392.773 292.49 392.773 292.07V291.63ZM392.783 288.96C392.783 288.55 392.993 288.32 393.523 288.32H396.923C397.453 288.32 397.663 288.55 397.663 288.96V289.33C397.663 289.72 397.473 289.93 396.813 289.93H393.633C392.973 289.93 392.783 289.72 392.783 289.33V288.96ZM400.776 287C400.626 287 400.556 287.07 400.556 287.22V288.11C400.556 288.26 400.626 288.33 400.776 288.33H405.836C406.216 288.33 406.366 288.55 406.366 288.9V289.33C406.366 289.7 406.206 289.89 405.846 289.89H402.046C400.896 289.89 400.296 290.51 400.296 291.61V293.15C400.296 293.73 400.556 294 401.226 294H407.606C407.756 294 407.836 293.93 407.836 293.78V292.89C407.836 292.74 407.756 292.67 407.606 292.67H401.976C401.836 292.67 401.776 292.6 401.776 292.46V291.61C401.776 291.23 401.936 291.04 402.296 291.04H406.096C407.246 291.04 407.846 290.42 407.846 289.33V288.63C407.846 287.66 407.286 287 406.076 287H400.776ZM408.839 287C408.689 287 408.609 287.07 408.609 287.22V288.11C408.609 288.26 408.689 288.33 408.839 288.33H409.409C409.559 288.33 409.619 288.4 409.619 288.54V293.78C409.619 293.93 409.689 294 409.839 294H410.869C411.019 294 411.089 293.93 411.089 293.78V287.85C411.089 287.27 410.829 287 410.169 287H408.839ZM415.138 287C413.118 287 412.338 287.72 412.338 289.64V291.36C412.338 293.28 413.118 294 415.138 294H417.448C419.468 294 420.248 293.28 420.248 291.36V289.64C420.248 287.72 419.468 287 417.448 287H415.138ZM413.818 289.7C413.818 288.64 414.108 288.33 415.138 288.33H417.448C418.478 288.33 418.768 288.64 418.768 289.7V291.3C418.768 292.36 418.478 292.67 417.448 292.67H415.138C414.108 292.67 413.818 292.36 413.818 291.3V289.7ZM424.21 287C422.19 287 421.41 287.72 421.41 289.64V291.36C421.41 293.28 422.19 294 424.21 294H428.72C428.87 294 428.94 293.93 428.94 293.78V292.8C428.94 292.65 428.87 292.58 428.72 292.58H424.27C423.24 292.58 422.94 292.27 422.94 291.21V289.79C422.94 288.73 423.24 288.43 424.27 288.43H428.72C428.87 288.43 428.94 288.35 428.94 288.2V287.22C428.94 287.07 428.87 287 428.72 287H424.21ZM432.726 287C430.706 287 429.926 287.72 429.926 289.64V291.36C429.926 293.28 430.706 294 432.726 294H437.126C437.276 294 437.356 293.93 437.356 293.78V292.83C437.356 292.68 437.276 292.61 437.126 292.61H432.756C431.716 292.61 431.426 292.3 431.426 291.25V291.08H437.076C437.226 291.08 437.296 291.01 437.296 290.86V290.07C437.296 289.92 437.226 289.85 437.076 289.85H431.426V289.75C431.426 288.7 431.716 288.39 432.756 288.39H437.126C437.276 288.39 437.356 288.32 437.356 288.17V287.22C437.356 287.07 437.276 287 437.126 287H432.726ZM441.222 287C439.202 287 438.422 287.72 438.422 289.64V291.36C438.422 293.28 439.202 294 441.222 294H443.532C445.552 294 446.332 293.28 446.332 291.36V289.64C446.332 287.72 445.552 287 443.532 287H441.222ZM439.902 289.7C439.902 288.64 440.192 288.33 441.222 288.33H443.532C444.562 288.33 444.852 288.64 444.852 289.7V291.3C444.852 292.36 444.562 292.67 443.532 292.67H441.222C440.192 292.67 439.902 292.36 439.902 291.3V289.7ZM447.874 287C447.674 287 447.574 287.1 447.574 287.3V293.7C447.574 293.9 447.674 294 447.874 294H452.554C454.724 294 455.614 293.13 455.614 291.18V289.82C455.614 287.87 454.724 287 452.554 287H447.874ZM449.104 288.53C449.104 288.43 449.144 288.39 449.234 288.39H452.514C453.694 288.39 454.084 288.77 454.084 289.95V291.05C454.084 292.23 453.694 292.61 452.514 292.61H449.234C449.144 292.61 449.104 292.57 449.104 292.48V288.53ZM457.231 287C457.081 287 457.011 287.07 457.011 287.22V288.11C457.011 288.26 457.081 288.33 457.231 288.33H462.291C462.671 288.33 462.821 288.55 462.821 288.9V289.33C462.821 289.7 462.661 289.89 462.301 289.89H458.501C457.351 289.89 456.751 290.51 456.751 291.61V293.15C456.751 293.73 457.011 294 457.681 294H464.061C464.211 294 464.291 293.93 464.291 293.78V292.89C464.291 292.74 464.211 292.67 464.061 292.67H458.431C458.291 292.67 458.231 292.6 458.231 292.46V291.61C458.231 291.23 458.391 291.04 458.751 291.04H462.551C463.701 291.04 464.301 290.42 464.301 289.33V288.63C464.301 287.66 463.741 287 462.531 287H457.231ZM465.584 290.39C465.274 290.6 465.194 290.83 465.194 291.2V291.96C465.194 292.32 465.404 292.57 465.834 292.57H471.094V293.78C471.094 293.93 471.174 294 471.324 294H472.354C472.504 294 472.574 293.93 472.574 293.78V292.57H473.394C473.544 292.57 473.614 292.5 473.614 292.35V291.54C473.614 291.39 473.544 291.31 473.394 291.31H472.574V288.02C472.574 287.21 472.284 287 471.704 287H471.114C470.664 287 470.444 287.08 470.114 287.3L465.584 290.39ZM466.844 291.24V291.18C466.844 291.11 466.864 291.07 466.904 291.04L470.734 288.41C470.824 288.35 470.874 288.33 470.954 288.33H471.014C471.064 288.33 471.094 288.36 471.094 288.44V291.31H466.924C466.874 291.31 466.844 291.28 466.844 291.24ZM475.367 287C474.697 287 474.437 287.27 474.437 287.85V290.19C474.437 290.78 474.697 291.04 475.367 291.04H479.987C480.347 291.04 480.507 291.23 480.507 291.6V292.1C480.507 292.45 480.357 292.67 479.977 292.67H474.677C474.527 292.67 474.447 292.74 474.447 292.89V293.78C474.447 293.93 474.527 294 474.677 294H480.217C481.427 294 481.987 293.34 481.987 292.37V291.6C481.987 290.51 481.387 289.89 480.237 289.89H476.117C475.977 289.89 475.917 289.82 475.917 289.68V288.54C475.917 288.4 475.977 288.33 476.117 288.33H481.507C481.657 288.33 481.727 288.26 481.727 288.11V287.22C481.727 287.07 481.657 287 481.507 287H475.367ZM484.687 287C483.387 287 482.777 287.59 482.777 288.8V289.46C482.777 290.54 483.377 291.08 484.617 291.08H488.847V291.3C488.847 292.36 488.557 292.67 487.527 292.67H483.237C483.087 292.67 483.017 292.74 483.017 292.89V293.78C483.017 293.93 483.087 294 483.237 294H487.527C489.547 294 490.327 293.28 490.327 291.36V289.64C490.327 287.72 489.547 287 487.527 287H484.687ZM484.237 289.34V288.89C484.237 288.48 484.407 288.29 484.817 288.29H487.527C488.557 288.29 488.847 288.6 488.847 289.65V289.98H484.817C484.397 289.98 484.237 289.75 484.237 289.34ZM492.388 287C491.718 287 491.458 287.27 491.458 287.85V290.19C491.458 290.78 491.718 291.04 492.388 291.04H497.008C497.368 291.04 497.528 291.23 497.528 291.6V292.1C497.528 292.45 497.378 292.67 496.998 292.67H491.698C491.548 292.67 491.468 292.74 491.468 292.89V293.78C491.468 293.93 491.548 294 491.698 294H497.238C498.448 294 499.008 293.34 499.008 292.37V291.6C499.008 290.51 498.408 289.89 497.258 289.89H493.138C492.998 289.89 492.938 289.82 492.938 289.68V288.54C492.938 288.4 492.998 288.33 493.138 288.33H498.528C498.678 288.33 498.748 288.26 498.748 288.11V287.22C498.748 287.07 498.678 287 498.528 287H492.388ZM501.708 287C500.408 287 499.798 287.59 499.798 288.8V289.46C499.798 290.54 500.398 291.08 501.638 291.08H505.868V291.3C505.868 292.36 505.578 292.67 504.548 292.67H500.258C500.108 292.67 500.038 292.74 500.038 292.89V293.78C500.038 293.93 500.108 294 500.258 294H504.548C506.568 294 507.348 293.28 507.348 291.36V289.64C507.348 287.72 506.568 287 504.548 287H501.708ZM501.258 289.34V288.89C501.258 288.48 501.428 288.29 501.838 288.29H504.548C505.578 288.29 505.868 288.6 505.868 289.65V289.98H501.838C501.418 289.98 501.258 289.75 501.258 289.34ZM508.65 287C508.5 287 508.43 287.07 508.43 287.22V288.11C508.43 288.26 508.5 288.33 508.65 288.33H513.54C514.07 288.33 514.29 288.52 514.29 288.94V289.29C514.29 289.68 514.09 289.89 513.43 289.89H508.71C508.56 289.89 508.48 289.96 508.48 290.11V290.82C508.48 290.97 508.56 291.04 508.71 291.04H513.43C514.09 291.04 514.3 291.27 514.3 291.68V292.05C514.3 292.48 514.08 292.67 513.56 292.67H508.65C508.5 292.67 508.43 292.74 508.43 292.89V293.78C508.43 293.93 508.5 294 508.65 294H514.01C515.33 294 515.78 293.33 515.78 292.27V291.69C515.78 291.12 515.58 290.68 515.14 290.4C515.53 290.11 515.73 289.68 515.73 289.13V288.65C515.73 287.54 515.21 287 513.83 287H508.65Z" fill="white"/>
<rect x="1.5" y="1.5" width="537" height="327" rx="14.5" stroke="url(#paint5_linear_2_18193)" stroke-width="3"/>
<defs>
<filter id="filter0_b_2_18193" x="16" y="16" width="508" height="338" filterUnits="userSpaceOnUse" color-interpolation-filters="sRGB">
<feFlood flood-opacity="0" result="BackgroundImageFix"/>
<feGaussianBlur in="BackgroundImageFix" stdDeviation="2"/>
<feComposite in2="SourceAlpha" operator="in" result="effect1_backgroundBlur_2_18193"/>
<feBlend mode="normal" in="SourceGraphic" in2="effect1_backgroundBlur_2_18193" result="shape"/>
</filter>
<filter id="filter1_b_2_18193" x="6" y="6" width="528" height="338" filterUnits="userSpaceOnUse" color-interpolation-filters="sRGB">
<feFlood flood-opacity="0" result="BackgroundImageFix"/>
<feGaussianBlur in="BackgroundImageFix" stdDeviation="2"/>
<feComposite in2="SourceAlpha" operator="in" result="effect1_backgroundBlur_2_18193"/>
<feBlend mode="normal" in="SourceGraphic" in2="effect1_backgroundBlur_2_18193" result="shape"/>
</filter>
<linearGradient id="paint0_linear_2_18193" x1="-3.17547e-06" y1="221.129" x2="540.003" y2="220.535" gradientUnits="userSpaceOnUse">
<stop stop-color="white"/>
<stop offset="0.496708" stop-color="white" stop-opacity="0.16"/>
<stop offset="1" stop-color="white"/>
</linearGradient>
<linearGradient id="paint1_linear_2_18193" x1="-6.06107e-05" y1="192.397" x2="349.895" y2="450.305" gradientUnits="userSpaceOnUse">
<stop stop-color="white" stop-opacity="0.1"/>
<stop offset="0.482151" stop-color="white" stop-opacity="0"/>
<stop offset="1" stop-color="white" stop-opacity="0.1"/>
</linearGradient>
<linearGradient id="paint2_linear_2_18193" x1="-2.82999e-06" y1="211.129" x2="540.003" y2="210.535" gradientUnits="userSpaceOnUse">
<stop stop-color="white"/>
<stop offset="0.496708" stop-color="white" stop-opacity="0.16"/>
<stop offset="1" stop-color="white"/>
</linearGradient>
<linearGradient id="paint3_linear_2_18193" x1="-5.9249e-05" y1="182.397" x2="349.895" y2="440.305" gradientUnits="userSpaceOnUse">
<stop stop-color="white" stop-opacity="0.1"/>
<stop offset="0.482151" stop-color="white" stop-opacity="0"/>
<stop offset="1" stop-color="white" stop-opacity="0.1"/>
</linearGradient>
<linearGradient id="paint4_linear_2_18193" x1="889.239" y1="-475.419" x2="-294.79" y2="-281.397" gradientUnits="userSpaceOnUse">
<stop offset="0.236804" stop-color="#0F7ED3"/>
<stop offset="0.843739" stop-color="#083D90"/>
</linearGradient>
<linearGradient id="paint5_linear_2_18193" x1="-1.69511e-05" y1="153.621" x2="320.618" y2="418.834" gradientUnits="userSpaceOnUse">
<stop stop-color="white" stop-opacity="0.1"/>
<stop offset="0.482151" stop-color="white" stop-opacity="0"/>
<stop offset="1" stop-color="white" stop-opacity="0.1"/>
</linearGradient>
</defs>
</svg>
