<svg width="67" height="67" viewBox="0 0 67 67" fill="none" xmlns="http://www.w3.org/2000/svg">
<circle cx="33.5" cy="33.4521" r="33" fill="url(#paint0_linear_2_20032)"/>
<g clip-path="url(#clip0_2_20032)">
<path d="M32.2711 20.9102C32.2711 19.8056 31.3711 18.8969 30.2752 19.0352C22.5074 20.0162 16.5 26.6472 16.5 34.6812C16.5 43.3914 23.5609 50.4523 32.2711 50.4523C40.3052 50.4523 46.9361 44.445 47.9171 36.6771C48.0555 35.5813 47.1467 34.6812 46.0422 34.6812H34.2711C33.1665 34.6812 32.2711 33.7858 32.2711 32.6812V20.9102Z" fill="url(#paint1_linear_2_20032)"/>
<path d="M32.2711 20.9102C32.2711 19.8056 31.3711 18.8969 30.2752 19.0352C22.5074 20.0162 16.5 26.6472 16.5 34.6812C16.5 43.3914 23.5609 50.4523 32.2711 50.4523C40.3052 50.4523 46.9361 44.445 47.9171 36.6771C48.0555 35.5813 47.1467 34.6812 46.0422 34.6812H34.2711C33.1665 34.6812 32.2711 33.7858 32.2711 32.6812V20.9102Z" fill="url(#paint2_linear_2_20032)"/>
<path d="M36.7224 16.5772C35.6266 16.4388 34.7266 17.3476 34.7266 18.4521V30.2232C34.7266 31.3278 35.622 32.2232 36.7266 32.2232H48.4976C49.6022 32.2232 50.511 31.3232 50.3726 30.2274C49.4741 23.1132 43.8366 17.4757 36.7224 16.5772Z" fill="url(#paint3_linear_2_20032)"/>
<path d="M36.7224 16.5772C35.6266 16.4388 34.7266 17.3476 34.7266 18.4521V30.2232C34.7266 31.3278 35.622 32.2232 36.7266 32.2232H48.4976C49.6022 32.2232 50.511 31.3232 50.3726 30.2274C49.4741 23.1132 43.8366 17.4757 36.7224 16.5772Z" fill="url(#paint4_linear_2_20032)"/>
</g>
<defs>
<linearGradient id="paint0_linear_2_20032" x1="33.5" y1="0.452148" x2="33.5" y2="66.4521" gradientUnits="userSpaceOnUse">
<stop stop-color="white"/>
<stop offset="1" stop-color="white" stop-opacity="0.5"/>
</linearGradient>
<linearGradient id="paint1_linear_2_20032" x1="68.4417" y1="-26.5315" x2="-1.87108" y2="-19.4904" gradientUnits="userSpaceOnUse">
<stop offset="0.164688" stop-color="#DEC7FF"/>
<stop offset="0.855177" stop-color="#5C27FE"/>
</linearGradient>
<linearGradient id="paint2_linear_2_20032" x1="135.244" y1="71.9453" x2="78.0771" y2="-64.1998" gradientUnits="userSpaceOnUse">
<stop offset="0.311184" stop-color="#00E3FF"/>
<stop offset="0.711791" stop-color="#4C5CE1"/>
</linearGradient>
<linearGradient id="paint3_linear_2_20032" x1="60.6974" y1="-6.26868" x2="25.541" y2="-2.74811" gradientUnits="userSpaceOnUse">
<stop offset="0.164688" stop-color="#DEC7FF"/>
<stop offset="0.855177" stop-color="#5C27FE"/>
</linearGradient>
<linearGradient id="paint4_linear_2_20032" x1="94.0985" y1="42.9697" x2="65.5151" y2="-25.1028" gradientUnits="userSpaceOnUse">
<stop offset="0.311184" stop-color="#00E3FF"/>
<stop offset="0.711791" stop-color="#4C5CE1"/>
</linearGradient>
<clipPath id="clip0_2_20032">
<rect width="34" height="34" fill="white" transform="translate(16.5 16.4521)"/>
</clipPath>
</defs>
</svg>
