<svg width="66" height="67" viewBox="0 0 66 67" fill="none" xmlns="http://www.w3.org/2000/svg">
<circle cx="33" cy="33.4521" r="33" fill="url(#paint0_linear_2_20020)"/>
<g clip-path="url(#clip0_2_20020)">
<path d="M25.3535 41.3102C23.0855 41.3102 21.0681 39.8581 20.3356 37.6962L20.286 37.5333C20.1133 36.9608 20.0409 36.4793 20.0409 35.9976V26.3384L16.604 37.8109C16.162 39.4983 17.1693 41.2477 18.8593 41.7139L40.7658 47.5806C41.0393 47.6514 41.3127 47.6854 41.5819 47.6854C42.9928 47.6854 44.2821 46.7489 44.6434 45.3689L45.9197 41.3102H25.3535Z" fill="url(#paint1_linear_2_20020)"/>
<path d="M25.3535 41.3102C23.0855 41.3102 21.0681 39.8581 20.3356 37.6962L20.286 37.5333C20.1133 36.9608 20.0409 36.4793 20.0409 35.9976V26.3384L16.604 37.8109C16.162 39.4983 17.1693 41.2477 18.8593 41.7139L40.7658 47.5806C41.0393 47.6514 41.3127 47.6854 41.5819 47.6854C42.9928 47.6854 44.2821 46.7489 44.6434 45.3689L45.9197 41.3102H25.3535Z" fill="url(#paint2_linear_2_20020)"/>
<path d="M29.2515 26.4346C30.8141 26.4346 32.0847 25.1637 32.0847 23.6011C32.0847 22.0384 30.8141 20.7676 29.2515 20.7676C27.6888 20.7676 26.418 22.0384 26.418 23.6011C26.418 25.1637 27.6888 26.4346 29.2515 26.4346Z" fill="url(#paint3_linear_2_20020)"/>
<path d="M29.2515 26.4346C30.8141 26.4346 32.0847 25.1637 32.0847 23.6011C32.0847 22.0384 30.8141 20.7676 29.2515 20.7676C27.6888 20.7676 26.418 22.0384 26.418 23.6011C26.418 25.1637 27.6888 26.4346 29.2515 26.4346Z" fill="url(#paint4_linear_2_20020)"/>
<path d="M46.9562 16.5176H25.7057C23.7537 16.5176 22.1641 18.1072 22.1641 20.0595V35.643C22.1641 37.5953 23.7537 39.185 25.7057 39.185H46.9562C48.9085 39.185 50.4982 37.5953 50.4982 35.643V20.0595C50.4982 18.1072 48.9085 16.5176 46.9562 16.5176ZM25.7057 19.3511H46.9562C47.3474 19.3511 47.6647 19.6683 47.6647 20.0595V30.1167L43.1894 24.8946C42.7147 24.3379 42.0275 24.0403 41.2895 24.0235C40.5557 24.0276 39.8672 24.3534 39.3969 24.9174L34.1351 31.2329L32.421 29.5229C31.4521 28.554 29.8752 28.554 28.9076 29.5229L24.9976 33.4316V20.0595C24.9976 19.6683 25.3148 19.3511 25.7057 19.3511Z" fill="url(#paint5_linear_2_20020)"/>
<path d="M46.9562 16.5176H25.7057C23.7537 16.5176 22.1641 18.1072 22.1641 20.0595V35.643C22.1641 37.5953 23.7537 39.185 25.7057 39.185H46.9562C48.9085 39.185 50.4982 37.5953 50.4982 35.643V20.0595C50.4982 18.1072 48.9085 16.5176 46.9562 16.5176ZM25.7057 19.3511H46.9562C47.3474 19.3511 47.6647 19.6683 47.6647 20.0595V30.1167L43.1894 24.8946C42.7147 24.3379 42.0275 24.0403 41.2895 24.0235C40.5557 24.0276 39.8672 24.3534 39.3969 24.9174L34.1351 31.2329L32.421 29.5229C31.4521 28.554 29.8752 28.554 28.9076 29.5229L24.9976 33.4316V20.0595C24.9976 19.6683 25.3148 19.3511 25.7057 19.3511Z" fill="url(#paint6_linear_2_20020)"/>
</g>
<defs>
<linearGradient id="paint0_linear_2_20020" x1="33" y1="0.452148" x2="33" y2="66.4521" gradientUnits="userSpaceOnUse">
<stop stop-color="white"/>
<stop offset="1" stop-color="white" stop-opacity="0.5"/>
</linearGradient>
<linearGradient id="paint1_linear_2_20020" x1="64.9466" y1="-4.41549" x2="-0.0545004" y2="4.55527" gradientUnits="userSpaceOnUse">
<stop offset="0.164688" stop-color="#DEC7FF"/>
<stop offset="0.855177" stop-color="#5C27FE"/>
</linearGradient>
<linearGradient id="paint2_linear_2_20020" x1="127.254" y1="62.2314" x2="97.0361" y2="-36.9473" gradientUnits="userSpaceOnUse">
<stop offset="0.311184" stop-color="#00E3FF"/>
<stop offset="0.711791" stop-color="#4C5CE1"/>
</linearGradient>
<linearGradient id="paint3_linear_2_20020" x1="35.7496" y1="12.6034" x2="23.1175" y2="13.8683" gradientUnits="userSpaceOnUse">
<stop offset="0.164688" stop-color="#DEC7FF"/>
<stop offset="0.855177" stop-color="#5C27FE"/>
</linearGradient>
<linearGradient id="paint4_linear_2_20020" x1="47.7509" y1="30.2961" x2="37.4798" y2="5.83609" gradientUnits="userSpaceOnUse">
<stop offset="0.311184" stop-color="#00E3FF"/>
<stop offset="0.711791" stop-color="#4C5CE1"/>
</linearGradient>
<linearGradient id="paint5_linear_2_20020" x1="68.823" y1="-16.1385" x2="6.01222" y2="-8.27621" gradientUnits="userSpaceOnUse">
<stop offset="0.164688" stop-color="#DEC7FF"/>
<stop offset="0.855177" stop-color="#5C27FE"/>
</linearGradient>
<linearGradient id="paint6_linear_2_20020" x1="128.831" y1="54.6306" x2="94.0904" y2="-48.7886" gradientUnits="userSpaceOnUse">
<stop offset="0.311184" stop-color="#00E3FF"/>
<stop offset="0.711791" stop-color="#4C5CE1"/>
</linearGradient>
<clipPath id="clip0_2_20020">
<rect width="34" height="34" fill="white" transform="translate(16.5 16.4521)"/>
</clipPath>
</defs>
</svg>
