<svg width="67" height="67" viewBox="0 0 67 67" fill="none" xmlns="http://www.w3.org/2000/svg">
<circle cx="33.5" cy="33.4521" r="33" fill="url(#paint0_linear_2_20004)"/>
<g clip-path="url(#clip0_2_20004)">
<path d="M33.5 30.1738C36.6907 30.1738 39.2773 27.5872 39.2773 24.3965C39.2773 21.2057 36.6907 18.6191 33.5 18.6191C30.3093 18.6191 27.7227 21.2057 27.7227 24.3965C27.7227 27.5872 30.3093 30.1738 33.5 30.1738Z" fill="url(#paint1_linear_2_20004)"/>
<path d="M33.5 30.1738C36.6907 30.1738 39.2773 27.5872 39.2773 24.3965C39.2773 21.2057 36.6907 18.6191 33.5 18.6191C30.3093 18.6191 27.7227 21.2057 27.7227 24.3965C27.7227 27.5872 30.3093 30.1738 33.5 30.1738Z" fill="url(#paint2_linear_2_20004)"/>
<path d="M45.1875 30.1738C47.2046 30.1738 48.8398 28.5386 48.8398 26.5215C48.8398 24.5044 47.2046 22.8691 45.1875 22.8691C43.1704 22.8691 41.5352 24.5044 41.5352 26.5215C41.5352 28.5386 43.1704 30.1738 45.1875 30.1738Z" fill="url(#paint3_linear_2_20004)"/>
<path d="M45.1875 30.1738C47.2046 30.1738 48.8398 28.5386 48.8398 26.5215C48.8398 24.5044 47.2046 22.8691 45.1875 22.8691C43.1704 22.8691 41.5352 24.5044 41.5352 26.5215C41.5352 28.5386 43.1704 30.1738 45.1875 30.1738Z" fill="url(#paint4_linear_2_20004)"/>
<path d="M21.8125 30.1738C23.8296 30.1738 25.4648 28.5386 25.4648 26.5215C25.4648 24.5044 23.8296 22.8691 21.8125 22.8691C19.7954 22.8691 18.1602 24.5044 18.1602 26.5215C18.1602 28.5386 19.7954 30.1738 21.8125 30.1738Z" fill="url(#paint5_linear_2_20004)"/>
<path d="M21.8125 30.1738C23.8296 30.1738 25.4648 28.5386 25.4648 26.5215C25.4648 24.5044 23.8296 22.8691 21.8125 22.8691C19.7954 22.8691 18.1602 24.5044 18.1602 26.5215C18.1602 28.5386 19.7954 30.1738 21.8125 30.1738Z" fill="url(#paint6_linear_2_20004)"/>
<path d="M25.4111 33.4536C23.9734 32.2757 22.6713 32.4316 21.009 32.4316C18.5227 32.4316 16.5 34.4424 16.5 36.9134V44.1656C16.5 45.2387 17.3759 46.1113 18.453 46.1113C23.1032 46.1113 22.543 46.1955 22.543 45.9108C22.543 40.7719 21.9343 37.0032 25.4111 33.4536Z" fill="url(#paint7_linear_2_20004)"/>
<path d="M25.4111 33.4536C23.9734 32.2757 22.6713 32.4316 21.009 32.4316C18.5227 32.4316 16.5 34.4424 16.5 36.9134V44.1656C16.5 45.2387 17.3759 46.1113 18.453 46.1113C23.1032 46.1113 22.543 46.1955 22.543 45.9108C22.543 40.7719 21.9343 37.0032 25.4111 33.4536Z" fill="url(#paint8_linear_2_20004)"/>
<path d="M35.0806 32.4582C32.177 32.2161 29.6533 32.461 27.4764 34.2579C23.8336 37.1757 24.5346 41.1045 24.5346 45.9108C24.5346 47.1824 25.5692 48.2364 26.8602 48.2364C40.8773 48.2364 41.4352 48.6885 42.2664 46.8478C42.539 46.2253 42.4643 46.4231 42.4643 40.4682C42.4643 35.7383 38.3688 32.4582 35.0806 32.4582Z" fill="url(#paint9_linear_2_20004)"/>
<path d="M35.0806 32.4582C32.177 32.2161 29.6533 32.461 27.4764 34.2579C23.8336 37.1757 24.5346 41.1045 24.5346 45.9108C24.5346 47.1824 25.5692 48.2364 26.8602 48.2364C40.8773 48.2364 41.4352 48.6885 42.2664 46.8478C42.539 46.2253 42.4643 46.4231 42.4643 40.4682C42.4643 35.7383 38.3688 32.4582 35.0806 32.4582Z" fill="url(#paint10_linear_2_20004)"/>
<path d="M45.9919 32.4315C44.3205 32.4315 43.0256 32.2771 41.5898 33.4535C45.0406 36.9767 44.4579 40.4882 44.4579 45.9106C44.4579 46.1971 43.9929 46.1112 48.4782 46.1112C49.5938 46.1112 50.5009 45.2074 50.5009 44.0964V36.9132C50.5009 34.4423 48.4782 32.4315 45.9919 32.4315Z" fill="url(#paint11_linear_2_20004)"/>
<path d="M45.9919 32.4315C44.3205 32.4315 43.0256 32.2771 41.5898 33.4535C45.0406 36.9767 44.4579 40.4882 44.4579 45.9106C44.4579 46.1971 43.9929 46.1112 48.4782 46.1112C49.5938 46.1112 50.5009 45.2074 50.5009 44.0964V36.9132C50.5009 34.4423 48.4782 32.4315 45.9919 32.4315Z" fill="url(#paint12_linear_2_20004)"/>
</g>
<defs>
<linearGradient id="paint0_linear_2_20004" x1="33.5" y1="0.452148" x2="33.5" y2="66.4521" gradientUnits="userSpaceOnUse">
<stop stop-color="white"/>
<stop offset="1" stop-color="white" stop-opacity="0.5"/>
</linearGradient>
<linearGradient id="paint1_linear_2_20004" x1="46.7502" y1="1.97272" x2="20.9929" y2="4.55207" gradientUnits="userSpaceOnUse">
<stop offset="0.164688" stop-color="#DEC7FF"/>
<stop offset="0.855177" stop-color="#5C27FE"/>
</linearGradient>
<linearGradient id="paint2_linear_2_20004" x1="71.2215" y1="38.0472" x2="50.2799" y2="-11.8261" gradientUnits="userSpaceOnUse">
<stop offset="0.311184" stop-color="#00E3FF"/>
<stop offset="0.711791" stop-color="#4C5CE1"/>
</linearGradient>
<linearGradient id="paint3_linear_2_20004" x1="53.5641" y1="12.3455" x2="37.2807" y2="13.9762" gradientUnits="userSpaceOnUse">
<stop offset="0.164688" stop-color="#DEC7FF"/>
<stop offset="0.855177" stop-color="#5C27FE"/>
</linearGradient>
<linearGradient id="paint4_linear_2_20004" x1="69.0344" y1="35.1513" x2="55.7955" y2="3.62215" gradientUnits="userSpaceOnUse">
<stop offset="0.311184" stop-color="#00E3FF"/>
<stop offset="0.711791" stop-color="#4C5CE1"/>
</linearGradient>
<linearGradient id="paint5_linear_2_20004" x1="30.1891" y1="12.3455" x2="13.9057" y2="13.9762" gradientUnits="userSpaceOnUse">
<stop offset="0.164688" stop-color="#DEC7FF"/>
<stop offset="0.855177" stop-color="#5C27FE"/>
</linearGradient>
<linearGradient id="paint6_linear_2_20004" x1="45.6594" y1="35.1513" x2="32.4205" y2="3.62215" gradientUnits="userSpaceOnUse">
<stop offset="0.311184" stop-color="#00E3FF"/>
<stop offset="0.711791" stop-color="#4C5CE1"/>
</linearGradient>
<linearGradient id="paint7_linear_2_20004" x1="31.1742" y1="12.6904" x2="11.1955" y2="13.9919" gradientUnits="userSpaceOnUse">
<stop offset="0.164688" stop-color="#DEC7FF"/>
<stop offset="0.855177" stop-color="#5C27FE"/>
</linearGradient>
<linearGradient id="paint8_linear_2_20004" x1="50.0466" y1="55.4569" x2="18.3573" y2="6.36174" gradientUnits="userSpaceOnUse">
<stop offset="0.311184" stop-color="#00E3FF"/>
<stop offset="0.711791" stop-color="#4C5CE1"/>
</linearGradient>
<linearGradient id="paint9_linear_2_20004" x1="54.1106" y1="9.46533" x2="14.1118" y2="13.9965" gradientUnits="userSpaceOnUse">
<stop offset="0.164688" stop-color="#DEC7FF"/>
<stop offset="0.855177" stop-color="#5C27FE"/>
</linearGradient>
<linearGradient id="paint10_linear_2_20004" x1="92.2178" y1="59.1236" x2="65.8722" y2="-11.8549" gradientUnits="userSpaceOnUse">
<stop offset="0.311184" stop-color="#00E3FF"/>
<stop offset="0.711791" stop-color="#4C5CE1"/>
</linearGradient>
<linearGradient id="paint11_linear_2_20004" x1="56.264" y1="12.69" x2="36.2854" y2="13.9914" gradientUnits="userSpaceOnUse">
<stop offset="0.164688" stop-color="#DEC7FF"/>
<stop offset="0.855177" stop-color="#5C27FE"/>
</linearGradient>
<linearGradient id="paint12_linear_2_20004" x1="75.1365" y1="55.4574" x2="43.4462" y2="6.3618" gradientUnits="userSpaceOnUse">
<stop offset="0.311184" stop-color="#00E3FF"/>
<stop offset="0.711791" stop-color="#4C5CE1"/>
</linearGradient>
<clipPath id="clip0_2_20004">
<rect width="34" height="34" fill="white" transform="translate(16.5 16.4521)"/>
</clipPath>
</defs>
</svg>
