<svg width="38" height="38" viewBox="0 0 38 38" fill="none" xmlns="http://www.w3.org/2000/svg">
<circle opacity="0.05" cx="19" cy="19" r="19" fill="white"/>
<path d="M17.0797 20.04C17.0197 20.04 15.6997 20.04 15.0997 20.04C14.7797 20.04 14.6797 19.92 14.6797 19.62C14.6797 18.82 14.6797 18 14.6797 17.2C14.6797 16.88 14.7997 16.78 15.0997 16.78H17.0797C17.0797 16.72 17.0797 15.56 17.0797 15.02C17.0797 14.22 17.2197 13.46 17.6197 12.76C18.0397 12.04 18.6397 11.56 19.3997 11.28C19.8997 11.1 20.3997 11.02 20.9397 11.02H22.8997C23.1797 11.02 23.2997 11.14 23.2997 11.42V13.7C23.2997 13.98 23.1797 14.1 22.8997 14.1C22.3597 14.1 21.8197 14.1 21.2797 14.12C20.7397 14.12 20.4597 14.38 20.4597 14.94C20.4397 15.54 20.4597 16.12 20.4597 16.74H22.7797C23.0997 16.74 23.2197 16.86 23.2197 17.18V19.6C23.2197 19.92 23.1197 20.02 22.7797 20.02C22.0597 20.02 20.5197 20.02 20.4597 20.02V26.54C20.4597 26.88 20.3597 27 19.9997 27C19.1597 27 18.3397 27 17.4997 27C17.1997 27 17.0797 26.88 17.0797 26.58C17.0797 24.48 17.0797 20.1 17.0797 20.04Z" fill="white"/>
</svg>
