<svg width="38" height="38" viewBox="0 0 38 38" fill="none" xmlns="http://www.w3.org/2000/svg">
<circle opacity="0.05" cx="19" cy="19" r="19" fill="white"/>
<path d="M26.0006 26V20.8725C26.0006 18.3525 25.4581 16.4275 22.5181 16.4275C21.1006 16.4275 20.1556 17.1975 19.7706 17.9325H19.7356V16.655H16.9531V26H19.8581V21.3625C19.8581 20.1375 20.0856 18.965 21.5906 18.965C23.0781 18.965 23.0956 20.3475 23.0956 21.4325V25.9825H26.0006V26Z" fill="white"/>
<path d="M12.2266 16.6548H15.1316V25.9998H12.2266V16.6548Z" fill="white"/>
<path d="M13.68 12C12.7525 12 12 12.7525 12 13.68C12 14.6075 12.7525 15.3775 13.68 15.3775C14.6075 15.3775 15.36 14.6075 15.36 13.68C15.36 12.7525 14.6075 12 13.68 12Z" fill="white"/>
</svg>
