<svg width="38" height="38" viewBox="0 0 38 38" fill="none" xmlns="http://www.w3.org/2000/svg">
<circle opacity="0.05" cx="19" cy="19" r="19" fill="white"/>
<path d="M26 14.4206C25.4794 14.6615 24.9246 14.8212 24.3462 14.8988C24.9412 14.524 25.3954 13.9351 25.6089 13.2252C25.0541 13.5742 24.4416 13.8206 23.7889 13.9582C23.2621 13.3665 22.5114 13 21.6924 13C20.1034 13 18.8241 14.3606 18.8241 16.0286C18.8241 16.2686 18.8434 16.4994 18.8906 16.7191C16.5045 16.5963 14.3931 15.3898 12.9747 13.552C12.7271 14.0052 12.5819 14.524 12.5819 15.0825C12.5819 16.1311 13.0938 17.0606 13.8568 17.5988C13.3956 17.5895 12.9433 17.4483 12.56 17.2258C12.56 17.2351 12.56 17.2471 12.56 17.2591C12.56 18.7305 13.5549 19.9526 14.8595 20.2342C14.6259 20.3015 14.3712 20.3338 14.107 20.3338C13.9232 20.3338 13.7377 20.3228 13.5636 20.2822C13.9355 21.4812 14.9908 22.3628 16.2455 22.3914C15.269 23.1972 14.0291 23.6828 12.6869 23.6828C12.4515 23.6828 12.2257 23.6717 12 23.6412C13.2714 24.5062 14.7781 25 16.403 25C21.6845 25 24.572 20.3846 24.572 16.384C24.572 16.2502 24.5676 16.1209 24.5615 15.9926C25.1311 15.5662 25.6097 15.0335 26 14.4206Z" fill="white"/>
</svg>
