<svg width="160" height="42" viewBox="0 0 160 42" fill="none" xmlns="http://www.w3.org/2000/svg">
<g clip-path="url(#clip0_2_20345)">
<mask id="mask0_2_20345" style="mask-type:luminance" maskUnits="userSpaceOnUse" x="0" y="0" width="18" height="31">
<path d="M0.460912 30.7967C-0.272714 29.1481 0.0899764 26.6281 0.0899764 20.7167C0.0899764 8.07906 -1.57039 10.9547 9.37391 4.63584C9.90147 4.33085 16.2038 0.687459 16.6748 0.413086L13.3659 15.3282L17.1694 16.3197C17.8759 16.5999 18.2292 16.9826 16.9209 17.9259L0.460912 30.7967Z" fill="white"/>
</mask>
<g mask="url(#mask0_2_20345)">
<path d="M18.2258 0.413086H-1.57031V30.7967H18.2258V0.413086Z" fill="url(#paint0_linear_2_20345)"/>
</g>
<path fill-rule="evenodd" clip-rule="evenodd" d="M0.460912 30.7967C-0.272714 29.1481 0.0899764 26.6281 0.0899764 20.7167C0.0899764 8.07906 -1.57039 10.9547 9.37391 4.63584C9.90147 4.33085 16.2038 0.687459 16.6748 0.413086L0.462087 30.7943" fill="url(#paint1_linear_2_20345)"/>
<mask id="mask1_2_20345" style="mask-type:luminance" maskUnits="userSpaceOnUse" x="0" y="0" width="17" height="31">
<path d="M0.460912 30.7967C-0.272714 29.1481 0.0899764 26.6281 0.0899764 20.7167C0.0899764 8.07906 -1.57039 10.9547 9.37391 4.63584C9.90147 4.33085 16.2038 0.687459 16.6748 0.413086L0.462087 30.7943" fill="white"/>
</mask>
<g mask="url(#mask1_2_20345)">
<path d="M16.6738 0.413086H-1.57031V30.7967H16.6738V0.413086Z" fill="url(#paint2_linear_2_20345)"/>
</g>
<path fill-rule="evenodd" clip-rule="evenodd" d="M19.0283 0C20.8265 0.190766 22.8248 1.76635 27.9437 4.71852C38.8952 11.0373 37.2289 8.16174 37.2289 20.7994C37.2289 21.407 37.2289 28.6891 37.2359 29.232L25.9736 18.9094L23.2134 21.7073C22.6152 22.1783 22.11 22.2961 21.9452 20.6887L19.0283 0Z" fill="url(#paint3_linear_2_20345)"/>
<mask id="mask2_2_20345" style="mask-type:luminance" maskUnits="userSpaceOnUse" x="19" y="0" width="19" height="30">
<path d="M19.0283 0C20.8265 0.190766 22.8248 1.76635 27.9437 4.71852C38.8952 11.0373 37.2289 8.16174 37.2289 20.7994C37.2289 21.407 37.2289 28.6891 37.2359 29.232L25.9736 18.9094L23.2134 21.7073C22.6152 22.1783 22.11 22.2961 21.9452 20.6887L19.0283 0Z" fill="white"/>
</mask>
<g mask="url(#mask2_2_20345)">
<path d="M38.8882 0H19.0283V29.232H38.8882V0Z" fill="url(#paint4_linear_2_20345)"/>
</g>
<path fill-rule="evenodd" clip-rule="evenodd" d="M19.0283 0C20.8265 0.190766 22.8248 1.76635 27.9437 4.71852C38.8952 11.0373 37.2289 8.16174 37.2289 20.7994C37.2289 21.407 37.2289 28.6891 37.2359 29.232L19.0283 0Z" fill="url(#paint5_linear_2_20345)"/>
<mask id="mask3_2_20345" style="mask-type:luminance" maskUnits="userSpaceOnUse" x="19" y="0" width="19" height="30">
<path d="M19.0283 0C20.8265 0.190766 22.8248 1.76635 27.9437 4.71852C38.8952 11.0373 37.2289 8.16174 37.2289 20.7994C37.2289 21.407 37.2289 28.6891 37.2359 29.232L19.0283 0Z" fill="white"/>
</mask>
<g mask="url(#mask3_2_20345)">
<path d="M38.8882 0H19.0283V29.232H38.8882V0Z" fill="url(#paint6_linear_2_20345)"/>
</g>
<path fill-rule="evenodd" clip-rule="evenodd" d="M36.4222 31.4791C35.3624 32.9404 32.9967 33.8859 27.8778 36.8406C16.9335 43.1594 20.2531 43.1594 9.30875 36.8406C8.78235 36.5367 2.47884 32.8957 2.00781 32.6307L16.5778 28.0382L15.5357 24.2488C15.4238 23.4952 15.5816 23.0018 17.0512 23.66L36.4222 31.4791Z" fill="url(#paint7_linear_2_20345)"/>
<mask id="mask4_2_20345" style="mask-type:luminance" maskUnits="userSpaceOnUse" x="2" y="23" width="35" height="19">
<path d="M36.4222 31.4791C35.3624 32.9404 32.9967 33.8859 27.8778 36.8406C16.9335 43.1594 20.2531 43.1594 9.30875 36.8406C8.78235 36.5367 2.47884 32.8957 2.00781 32.6307L16.5778 28.0382L15.5357 24.2488C15.4238 23.4952 15.5816 23.0018 17.0512 23.66L36.4222 31.4791Z" fill="white"/>
</mask>
<g mask="url(#mask4_2_20345)">
<path d="M36.4163 23.002H1.99707V43.1596H36.4163V23.002Z" fill="url(#paint8_linear_2_20345)"/>
</g>
<path fill-rule="evenodd" clip-rule="evenodd" d="M36.4222 31.4785C35.3624 32.9399 32.9967 33.8854 27.8778 36.8401C16.9335 43.1589 20.2531 43.1589 9.30875 36.8401C8.78235 36.5362 2.47884 32.8952 2.00781 32.6302L36.4222 31.4785Z" fill="url(#paint9_linear_2_20345)"/>
<mask id="mask5_2_20345" style="mask-type:luminance" maskUnits="userSpaceOnUse" x="2" y="31" width="35" height="11">
<path d="M36.4222 31.4785C35.3624 32.9399 32.9967 33.8854 27.8778 36.8401C16.9335 43.1589 20.2531 43.1589 9.30875 36.8401C8.78235 36.5362 2.47884 32.8952 2.00781 32.6302L36.4222 31.4785Z" fill="white"/>
</mask>
<g mask="url(#mask5_2_20345)">
<path d="M36.4163 31.4785H1.99707V43.1589H36.4163V31.4785Z" fill="url(#paint10_linear_2_20345)"/>
</g>
<path fill-rule="evenodd" clip-rule="evenodd" d="M42.0301 15.7021H57.1537C57.1684 15.7049 57.1817 15.7128 57.191 15.7245C57.2003 15.7363 57.205 15.751 57.2043 15.766V18.9089C57.2043 18.9521 57.1873 18.9728 57.1537 18.9728H51.3785V29.408C51.3785 29.4493 51.3615 29.4718 51.3279 29.4718H47.8769C47.8429 29.4718 47.826 29.4493 47.826 29.408V18.9747H42.0301C41.9965 18.9747 41.9795 18.954 41.9795 18.9108V15.766C41.9795 15.7172 42.0038 15.7021 42.0301 15.7021ZM59.3465 15.7021H62.7862C62.8015 15.704 62.8155 15.7117 62.8251 15.7236C62.8351 15.7355 62.8398 15.7506 62.8388 15.766V21.0925H70.9666V15.766C70.9666 15.7228 70.9909 15.7021 71.0192 15.7021H74.4605C74.4758 15.704 74.4898 15.7117 74.4994 15.7236C74.5094 15.7355 74.5141 15.7506 74.5131 15.766V29.4099C74.5131 29.4512 74.4961 29.4737 74.4605 29.4737H71.0192C70.9852 29.4737 70.9666 29.4512 70.9666 29.4099V24.0834H62.8388V29.4099C62.8388 29.4512 62.8218 29.4737 62.7862 29.4737H59.3465C59.3129 29.4737 59.2959 29.4512 59.2959 29.4099V15.766C59.3016 15.7172 59.3202 15.7021 59.3465 15.7021ZM88.3352 15.7021H76.6629C76.6346 15.7021 76.6177 15.7172 76.6123 15.7735V29.423C76.6123 29.4644 76.629 29.4869 76.6629 29.4869H80.1026C80.1362 29.4869 80.1552 29.4644 80.1552 29.423V25.6924H85.536C86.8028 28.0706 87.4881 29.3329 87.592 29.4794H91.7846L91.8368 29.4531L89.678 25.4108L90.1226 25.1667C91.2656 24.3193 91.8368 23.2497 91.8368 21.958V19.4685C91.8365 18.6605 91.5838 17.8728 91.1142 17.2154C90.3207 16.2066 89.3944 15.7021 88.3352 15.7021ZM80.1552 22.4143V18.9747H86.9196C87.0994 18.9743 87.2778 19.0048 87.4472 19.0648C88.0044 19.3389 88.283 19.8909 88.283 20.7208C88.283 20.8968 88.2693 21.0726 88.2414 21.2465C88.05 22.0256 87.5937 22.4143 86.8784 22.4143H80.1552ZM93.9867 15.7021H109.101C109.116 15.7049 109.129 15.7128 109.138 15.7245C109.147 15.7363 109.152 15.751 109.152 15.766V18.9089C109.152 18.9521 109.135 18.9728 109.101 18.9728H97.4696V21.0906H106.074C106.089 21.0929 106.103 21.1007 106.113 21.1125C106.122 21.1243 106.127 21.1392 106.127 21.1545V24.0158C106.127 24.059 106.108 24.0815 106.074 24.0815H97.4696V26.2125H109.101C109.104 26.2123 109.106 26.2123 109.109 26.2125C109.111 26.2127 109.113 26.213 109.114 26.2133C109.116 26.2137 109.117 26.2141 109.119 26.2146C109.122 26.2156 109.125 26.217 109.128 26.2187C109.131 26.2201 109.133 26.2217 109.135 26.2235C109.137 26.2252 109.139 26.227 109.141 26.2289C109.143 26.2317 109.145 26.2347 109.147 26.238C109.149 26.2435 109.151 26.2495 109.152 26.2557V29.4099C109.152 29.4512 109.135 29.4737 109.101 29.4737H93.9867C93.9511 29.4737 93.9341 29.4512 93.9341 29.4099V15.766C93.9341 15.7172 93.9511 15.7021 93.9867 15.7021ZM126.417 15.7021H111.294C111.264 15.7021 111.26 15.7136 111.249 15.7488C111.247 15.754 111.245 15.7597 111.243 15.766V29.4099C111.243 29.4512 111.26 29.4737 111.294 29.4737H126.426C126.46 29.4737 126.477 29.4512 126.477 29.4099V26.2557C126.477 26.2528 126.476 26.25 126.476 26.2473C126.475 26.2441 126.474 26.241 126.472 26.238C126.469 26.2324 126.465 26.2275 126.461 26.2235C126.456 26.2195 126.451 26.2165 126.445 26.2146C126.439 26.2127 126.433 26.212 126.426 26.2125H114.786V24.0815H123.381C123.415 24.0815 123.432 24.059 123.432 24.0158V21.1545C123.432 21.1395 123.428 21.1248 123.418 21.113C123.409 21.1013 123.396 21.0933 123.381 21.0906H114.776V18.9728H126.417C126.451 18.9728 126.468 18.9521 126.468 18.9089V15.766C126.468 15.751 126.464 15.7363 126.454 15.7245C126.445 15.7128 126.432 15.7049 126.417 15.7021Z" fill="url(#paint11_linear_2_20345)"/>
<path d="M57.1539 15.7024L57.1689 15.6205L57.1616 15.6191H57.1539V15.7024ZM57.2045 15.7662L57.1213 15.7623V15.7662H57.2045ZM51.3787 18.973V18.8898H51.2954V18.973H51.3787ZM47.8262 18.9749H47.9094V18.8917H47.8262V18.9749ZM62.7864 15.7024L62.7967 15.6198L62.7914 15.6191H62.7864V15.7024ZM62.839 15.7662L62.7561 15.7604L62.7557 15.7633V15.7662H62.839ZM62.839 21.0927H62.7557V21.1759H62.839V21.0927ZM70.9668 21.0927V21.1759H71.05V21.0927H70.9668ZM74.4607 15.7024L74.471 15.6198L74.466 15.6191H74.4607V15.7024ZM74.5133 15.7662L74.4304 15.7604L74.4301 15.7633V15.7662H74.5133ZM70.9668 24.0836H71.05V24.0004H70.9668V24.0836ZM62.839 24.0836V24.0004H62.7557V24.0836H62.839ZM59.2961 15.7662L59.2136 15.7566L59.2129 15.7614V15.7662H59.2961ZM76.6125 15.7737L76.5297 15.7654L76.5293 15.7696V15.7737H76.6125ZM80.1554 25.6926V25.6094H80.0722V25.6926H80.1554ZM85.5362 25.6926L85.6098 25.6535L85.5861 25.6094H85.5362V25.6926ZM87.5922 29.4796L87.5243 29.5277L87.5493 29.5628H87.5922V29.4796ZM91.7848 29.4796V29.5628H91.8044L91.8217 29.554L91.7848 29.4796ZM91.837 29.4533L91.8743 29.5277L91.9508 29.4895L91.9106 29.4141L91.837 29.4533ZM89.6782 25.411L89.6379 25.338L89.566 25.3776L89.6046 25.4502L89.6782 25.411ZM90.1228 25.1669L90.1631 25.2399L90.1681 25.2371L90.1724 25.2338L90.1228 25.1669ZM91.1144 17.2156L91.182 17.1672L91.1796 17.1642L91.1144 17.2156ZM80.1554 18.9749V18.8917H80.0722V18.9749H80.1554ZM80.1554 22.4145H80.0722V22.4977H80.1554V22.4145ZM87.4474 19.065L87.4844 18.9903L87.48 18.9882L87.4754 18.9865L87.4474 19.065ZM88.2416 21.2467L88.3225 21.2665L88.3235 21.2632L88.3238 21.2598L88.2416 21.2467ZM109.101 15.7024L109.116 15.6205L109.109 15.6191H109.101V15.7024ZM109.152 15.7662L109.069 15.7623V15.7662H109.152ZM97.4698 18.973V18.8898H97.3866V18.973H97.4698ZM97.4698 21.0908H97.3866V21.174H97.4698V21.0908ZM106.074 21.0908L106.087 21.0086L106.081 21.0076H106.074V21.0908ZM106.127 21.1547L106.044 21.1512V21.1547H106.127ZM97.4698 24.0817V23.9985H97.3866V24.0817H97.4698ZM97.4698 26.2127H97.3866V26.2959H97.4698V26.2127ZM109.101 26.2127V26.2959H109.105L109.108 26.2956L109.101 26.2127ZM109.152 26.2559H109.235V26.2527L109.235 26.2495L109.152 26.2559ZM126.417 15.7024L126.432 15.6205L126.425 15.6191H126.417V15.7024ZM111.243 15.7662L111.165 15.739L111.16 15.7522V15.7662H111.243ZM126.477 26.2559H126.56V26.2527V26.2495L126.477 26.2559ZM126.461 26.2237L126.515 26.1604L126.515 26.1604L126.461 26.2237ZM126.445 26.2148L126.419 26.294H126.42L126.445 26.2148ZM126.427 26.2127V26.2959H126.43L126.434 26.2956L126.427 26.2127ZM114.786 26.2127H114.703V26.2959H114.786V26.2127ZM114.786 24.0817V23.9985H114.703V24.0817H114.786ZM123.432 21.1547L123.349 21.1508V21.1547H123.432ZM123.381 21.0908L123.396 21.009L123.389 21.0076H123.381V21.0908ZM114.777 21.0908H114.693V21.174H114.777V21.0908ZM114.777 18.973V18.8898H114.693V18.973H114.777ZM126.468 15.7662L126.385 15.7623V15.7662H126.468ZM57.1539 15.6191H42.0303V15.7856H57.1539V15.6191ZM57.2564 15.673C57.2345 15.6455 57.2035 15.6269 57.1689 15.6205L57.1389 15.7842C57.1336 15.7833 57.1293 15.7805 57.126 15.7765L57.2564 15.673ZM57.2877 15.7701C57.2894 15.735 57.2781 15.7005 57.2564 15.673L57.126 15.7765C57.123 15.7725 57.1213 15.7674 57.1213 15.7623L57.2877 15.7701ZM57.2877 18.9091V15.7662H57.1213V18.9091H57.2877ZM57.1539 19.0562C57.1885 19.0562 57.2285 19.0447 57.2568 19.0092C57.2824 18.9775 57.2877 18.9392 57.2877 18.9091H57.1213C57.1213 18.9148 57.1206 18.9168 57.121 18.9161C57.121 18.9153 57.1223 18.9108 57.1269 18.9053C57.1316 18.8993 57.1379 18.8948 57.1443 18.8921C57.1473 18.8909 57.1496 18.8903 57.1512 18.8901C57.1522 18.8899 57.1529 18.8898 57.1532 18.8898C57.1536 18.8898 57.1539 18.8898 57.1539 18.8898V19.0562ZM51.3787 19.0562H57.1539V18.8898H51.3787V19.0562ZM51.4619 29.4082V18.973H51.2954V29.4082H51.4619ZM51.3281 29.5553C51.365 29.5553 51.404 29.5418 51.4316 29.5069C51.4559 29.4756 51.4619 29.4382 51.4619 29.4082H51.2954C51.2954 29.4195 51.2928 29.4141 51.3004 29.4043C51.3048 29.3989 51.3104 29.3944 51.3168 29.3916C51.3227 29.389 51.3271 29.3888 51.3281 29.3888V29.5553ZM47.8771 29.5553H51.3281V29.3888H47.8771V29.5553ZM47.743 29.4082C47.743 29.4382 47.749 29.4756 47.7736 29.5069C47.8009 29.5418 47.8402 29.5553 47.8771 29.5553V29.3888C47.8778 29.3888 47.8821 29.389 47.8881 29.3916C47.8944 29.3944 47.9004 29.3989 47.9044 29.4043C47.912 29.4141 47.9094 29.4195 47.9094 29.4082H47.743ZM47.743 18.9749V29.4082H47.9094V18.9749H47.743ZM42.0303 19.0581H47.8262V18.8917H42.0303V19.0581ZM41.8965 18.911C41.8965 18.9411 41.9021 18.9793 41.9274 19.0111C41.9557 19.0466 41.9957 19.0581 42.0303 19.0581V18.8917C42.0303 18.8917 42.0306 18.8917 42.031 18.8917C42.0316 18.8917 42.0323 18.8918 42.033 18.8919C42.0346 18.8922 42.0369 18.8928 42.0399 18.894C42.0463 18.8967 42.0526 18.9012 42.0573 18.9071C42.0619 18.9127 42.0632 18.9172 42.0632 18.918C42.0636 18.9186 42.0629 18.9167 42.0629 18.911H41.8965ZM41.8965 15.7662V18.911H42.0629V15.7662H41.8965ZM42.0303 15.6191C42.002 15.6191 41.9644 15.6276 41.9351 15.6586C41.9058 15.6891 41.8965 15.7288 41.8965 15.7662H42.0629C42.0629 15.7547 42.0659 15.7626 42.0556 15.7733C42.0446 15.7846 42.0326 15.7856 42.0303 15.7856V15.6191ZM62.7864 15.6191H59.3467V15.7856H62.7864V15.6191ZM62.8895 15.6709C62.8662 15.6425 62.833 15.6243 62.7967 15.6198L62.776 15.7849C62.7704 15.7842 62.7651 15.7813 62.7611 15.7767L62.8895 15.6709ZM62.9218 15.772C62.9245 15.7354 62.9128 15.6992 62.8895 15.6709L62.7611 15.7767C62.7574 15.7721 62.7554 15.7663 62.7561 15.7604L62.9218 15.772ZM62.9222 21.0927V15.7662H62.7557V21.0927H62.9222ZM70.9668 21.0095H62.839V21.1759H70.9668V21.0095ZM70.8836 15.7662V21.0927H71.05V15.7662H70.8836ZM71.0194 15.6191C70.9844 15.6191 70.9478 15.6324 70.9208 15.662C70.8942 15.6913 70.8836 15.729 70.8836 15.7662H71.05C71.05 15.7602 71.0513 15.7659 71.044 15.7741C71.0363 15.7826 71.026 15.7856 71.0194 15.7856V15.6191ZM74.4607 15.6191H71.0194V15.7856H74.4607V15.6191ZM74.5639 15.6709C74.5406 15.6425 74.5073 15.6243 74.471 15.6198L74.4507 15.7849C74.4447 15.7842 74.4394 15.7813 74.4357 15.7767L74.5639 15.6709ZM74.5965 15.772C74.5988 15.7354 74.5875 15.6992 74.5639 15.6709L74.4357 15.7767C74.4317 15.7721 74.4301 15.7663 74.4304 15.7604L74.5965 15.772ZM74.5965 29.4101V15.7662H74.4301V29.4101H74.5965ZM74.4607 29.5572C74.4973 29.5572 74.5372 29.5447 74.5652 29.5097C74.5908 29.478 74.5965 29.44 74.5965 29.4101H74.4301C74.4301 29.4215 74.4274 29.4155 74.4357 29.4053C74.44 29.3998 74.446 29.3955 74.452 29.393C74.4574 29.3907 74.461 29.3907 74.4607 29.3907V29.5572ZM71.0194 29.5572H74.4607V29.3907H71.0194V29.5572ZM70.8836 29.4101C70.8836 29.4419 70.8906 29.4795 70.9162 29.5105C70.9438 29.544 70.9827 29.5572 71.0194 29.5572V29.3907C71.02 29.3907 71.024 29.3909 71.0293 29.3931C71.035 29.3956 71.0403 29.3995 71.0443 29.4045C71.0523 29.4139 71.05 29.4196 71.05 29.4101H70.8836ZM70.8836 24.0836V29.4101H71.05V24.0836H70.8836ZM62.839 24.1668H70.9668V24.0004H62.839V24.1668ZM62.9222 29.4101V24.0836H62.7557V29.4101H62.9222ZM62.7864 29.5572C62.8226 29.5572 62.8626 29.5447 62.8909 29.5097C62.9165 29.478 62.9222 29.44 62.9222 29.4101H62.7557C62.7557 29.4215 62.7531 29.4155 62.7611 29.4053C62.7657 29.3998 62.7714 29.3955 62.7777 29.393C62.783 29.3907 62.7867 29.3907 62.7864 29.3907V29.5572ZM59.3467 29.5572H62.7864V29.3907H59.3467V29.5572ZM59.2129 29.4101C59.2129 29.4401 59.2186 29.4774 59.2432 29.5088C59.2705 29.5437 59.3098 29.5572 59.3467 29.5572V29.3907C59.3474 29.3907 59.3517 29.3908 59.3577 29.3935C59.3643 29.3963 59.37 29.4008 59.3743 29.4062C59.382 29.416 59.3793 29.4214 59.3793 29.4101H59.2129ZM59.2129 15.7662V29.4101H59.3793V15.7662H59.2129ZM59.3467 15.6191C59.3164 15.6191 59.2795 15.6288 59.2512 15.661C59.2262 15.6893 59.2169 15.725 59.2136 15.7566L59.3787 15.7757C59.3797 15.768 59.3807 15.7644 59.381 15.7637C59.3813 15.763 59.3803 15.7664 59.376 15.771C59.3717 15.776 59.3657 15.7803 59.359 15.783C59.3527 15.7854 59.348 15.7856 59.3467 15.7856V15.6191ZM76.6631 15.7856H88.3355V15.6191H76.6631V15.7856ZM76.6951 15.782C76.6964 15.7713 76.6978 15.7654 76.6984 15.7628C76.6991 15.7602 76.6987 15.7632 76.6948 15.7682C76.6904 15.774 76.6834 15.7794 76.6754 15.7827C76.6681 15.7856 76.6631 15.7856 76.6631 15.7856V15.6191C76.6322 15.6191 76.5929 15.6286 76.5636 15.6656C76.5403 15.6957 76.5327 15.7333 76.5297 15.7654L76.6951 15.782ZM76.6958 29.4233V15.7737H76.5293V29.4233H76.6958ZM76.6631 29.4039C76.6638 29.4039 76.6681 29.404 76.6741 29.4066C76.6804 29.4094 76.6864 29.4139 76.6908 29.4194C76.6981 29.4291 76.6958 29.4345 76.6958 29.4233H76.5293C76.5293 29.4532 76.535 29.4906 76.5596 29.5219C76.5869 29.5569 76.6262 29.5703 76.6631 29.5703V29.4039ZM80.1028 29.4039H76.6631V29.5703H80.1028V29.4039ZM80.0722 29.4233C80.0722 29.4328 80.0698 29.4271 80.0775 29.4177C80.0815 29.4127 80.0871 29.4087 80.0928 29.4063C80.0981 29.404 80.1018 29.4039 80.1028 29.4039V29.5703C80.1394 29.5703 80.178 29.5572 80.206 29.5236C80.2313 29.4926 80.2386 29.455 80.2386 29.4233H80.0722ZM80.0722 25.6926V29.4233H80.2386V25.6926H80.0722ZM85.5362 25.6094H80.1554V25.7758H85.5362V25.6094ZM87.6601 29.4314C87.6371 29.3993 87.5776 29.2977 87.4777 29.1198C87.3795 28.9442 87.2447 28.6987 87.0733 28.3833C86.7308 27.7524 86.2428 26.8425 85.6098 25.6535L85.4626 25.7317C86.096 26.9209 86.5843 27.8312 86.9272 28.4627C87.0986 28.7784 87.2337 29.0246 87.3326 29.2012C87.4301 29.3755 87.495 29.4866 87.5243 29.5277L87.6601 29.4314ZM91.7848 29.3964H87.5922V29.5628H91.7848V29.3964ZM91.8001 29.3788L91.7475 29.4051L91.8217 29.554L91.8743 29.5277L91.8001 29.3788ZM89.6046 25.4502L91.7638 29.4925L91.9106 29.4141L89.7514 25.3718L89.6046 25.4502ZM90.0829 25.094L89.6379 25.338L89.7181 25.484L90.1631 25.2399L90.0829 25.094ZM91.7538 21.9582C91.7538 23.2207 91.1976 24.2665 90.0736 25.1001L90.1724 25.2338C91.3341 24.3725 91.9202 23.2793 91.9202 21.9582H91.7538ZM91.7538 19.4687V21.9582H91.9202V19.4687H91.7538ZM91.0465 17.264C91.5062 17.9073 91.7535 18.678 91.7538 19.4687H91.9202C91.9199 18.6434 91.6619 17.8387 91.182 17.1672L91.0465 17.264ZM88.3355 15.7856C89.3636 15.7856 90.2673 16.2736 91.0488 17.2671L91.1796 17.1642C90.3741 16.14 89.4255 15.6191 88.3355 15.6191V15.7856ZM80.0722 18.9749V22.4145H80.2386V18.9749H80.0722ZM86.9199 18.8917H80.1554V19.0581H86.9199V18.8917ZM87.4754 18.9865C87.297 18.9234 87.1089 18.8913 86.9199 18.8917V19.0581C87.0899 19.0578 87.2594 19.0867 87.4198 19.1434L87.4754 18.9865ZM88.3664 20.721C88.3664 19.8719 88.0795 19.2832 87.4844 18.9903L87.4108 19.1396C87.9297 19.395 88.2 19.9103 88.2 20.721H88.3664ZM88.3238 21.2598C88.3524 21.0816 88.3667 20.9015 88.3664 20.721H88.2C88.2 20.8926 88.1867 21.0641 88.1597 21.2335L88.3238 21.2598ZM86.8786 22.4977C87.252 22.4977 87.5652 22.3959 87.8109 22.186C88.0552 21.9769 88.2239 21.6674 88.3225 21.2665L88.161 21.2268C88.0678 21.6051 87.9131 21.8795 87.7024 22.0595C87.493 22.2388 87.2207 22.3313 86.8786 22.3313V22.4977ZM80.1554 22.4977H86.8786V22.3313H80.1554V22.4977ZM109.101 15.6191H93.9869V15.7856H109.101V15.6191ZM109.203 15.673C109.182 15.6455 109.15 15.6269 109.116 15.6205L109.086 15.7842C109.081 15.7833 109.076 15.7805 109.073 15.7765L109.203 15.673ZM109.235 15.7701C109.236 15.735 109.225 15.7005 109.203 15.673L109.073 15.7765C109.07 15.7725 109.068 15.7674 109.069 15.7623L109.235 15.7701ZM109.235 18.9091V15.7662H109.069V18.9091H109.235ZM109.101 19.0562C109.136 19.0562 109.175 19.0447 109.204 19.0092C109.229 18.9775 109.235 18.9392 109.235 18.9091H109.069C109.069 18.9148 109.068 18.9168 109.068 18.9161C109.068 18.9153 109.07 18.9108 109.074 18.9053C109.079 18.8993 109.085 18.8948 109.092 18.8921C109.094 18.8909 109.097 18.8903 109.099 18.8901C109.099 18.8899 109.1 18.8898 109.1 18.8898C109.101 18.8898 109.101 18.8898 109.101 18.8898V19.0562ZM97.4698 19.0562H109.101V18.8898H97.4698V19.0562ZM97.553 21.0908V18.973H97.3866V21.0908H97.553ZM106.074 21.0076H97.4698V21.174H106.074V21.0076ZM106.177 21.0598C106.154 21.0322 106.122 21.0139 106.087 21.0086L106.062 21.1731C106.057 21.1723 106.052 21.1696 106.049 21.1656L106.177 21.0598ZM106.21 21.1581C106.212 21.1224 106.2 21.0874 106.177 21.0598L106.049 21.1656C106.045 21.1616 106.044 21.1564 106.044 21.1512L106.21 21.1581ZM106.21 24.016V21.1547H106.044V24.016H106.21ZM106.074 24.1649C106.111 24.1649 106.15 24.1517 106.178 24.1174C106.203 24.086 106.21 24.048 106.21 24.016H106.044C106.044 24.0272 106.041 24.0221 106.049 24.0127C106.053 24.0077 106.058 24.0035 106.064 24.001C106.07 23.9986 106.074 23.9985 106.074 23.9985V24.1649ZM97.4698 24.1649H106.074V23.9985H97.4698V24.1649ZM97.553 26.2127V24.0817H97.3866V26.2127H97.553ZM109.101 26.1295H97.4698V26.2959H109.101V26.1295ZM109.117 26.1299C109.11 26.1292 109.102 26.1291 109.094 26.1298L109.108 26.2956C109.106 26.2958 109.104 26.2958 109.101 26.2956L109.117 26.1299ZM109.132 26.1321C109.127 26.1311 109.122 26.1304 109.117 26.1299L109.101 26.2956C109.1 26.2954 109.099 26.2952 109.097 26.2949L109.132 26.1321ZM109.145 26.1356C109.14 26.1342 109.136 26.133 109.132 26.1321L109.097 26.2949C109.096 26.2947 109.095 26.2944 109.094 26.294L109.145 26.1356ZM109.17 26.1471C109.162 26.1423 109.154 26.1384 109.145 26.1356L109.094 26.294C109.091 26.2932 109.089 26.2921 109.087 26.2908L109.17 26.1471ZM109.189 26.1604C109.183 26.1554 109.177 26.151 109.17 26.1471L109.087 26.2908C109.085 26.2897 109.083 26.2885 109.081 26.2871L109.189 26.1604ZM109.204 26.1753C109.2 26.17 109.195 26.165 109.189 26.1604L109.081 26.2871C109.08 26.2858 109.079 26.2844 109.077 26.283L109.204 26.1753ZM109.221 26.2004C109.216 26.1915 109.211 26.183 109.204 26.1753L109.077 26.283C109.075 26.2808 109.074 26.2784 109.073 26.2759L109.221 26.2004ZM109.235 26.2495C109.233 26.2324 109.229 26.2157 109.221 26.2004L109.073 26.2759C109.07 26.2716 109.069 26.267 109.069 26.2622L109.235 26.2495ZM109.235 29.4101V26.2559H109.069V29.4101H109.235ZM109.101 29.5572C109.138 29.5572 109.177 29.5437 109.204 29.5088C109.229 29.4774 109.235 29.4401 109.235 29.4101H109.069C109.069 29.4214 109.066 29.416 109.074 29.4062C109.078 29.4008 109.084 29.3963 109.09 29.3935C109.096 29.3908 109.1 29.3907 109.101 29.3907V29.5572ZM93.9869 29.5572H109.101V29.3907H93.9869V29.5572ZM93.8511 29.4101C93.8511 29.44 93.8571 29.478 93.8824 29.5097C93.9107 29.5447 93.9506 29.5572 93.9869 29.5572V29.3907C93.9865 29.3907 93.9902 29.3907 93.9959 29.393C94.0019 29.3955 94.0075 29.3998 94.0122 29.4053C94.0202 29.4155 94.0175 29.4215 94.0175 29.4101H93.8511ZM93.8511 15.7662V29.4101H94.0175V15.7662H93.8511ZM93.9869 15.6191C93.9596 15.6191 93.917 15.6246 93.8847 15.6609C93.8554 15.6942 93.8511 15.7361 93.8511 15.7662H94.0175C94.0175 15.7583 94.0182 15.7557 94.0182 15.7565C94.0178 15.7576 94.0158 15.7639 94.0098 15.771C94.0032 15.7785 93.9952 15.7827 93.9895 15.7845C93.9852 15.786 93.9832 15.7856 93.9869 15.7856V15.6191ZM111.294 15.7856H126.417V15.6191H111.294V15.7856ZM111.328 15.7752C111.331 15.7655 111.333 15.7611 111.334 15.7583C111.335 15.7554 111.334 15.7599 111.329 15.7659C111.326 15.7693 111.322 15.773 111.317 15.7763C111.312 15.7796 111.308 15.7819 111.303 15.7833C111.296 15.786 111.291 15.7856 111.294 15.7856V15.6191C111.269 15.6191 111.23 15.6243 111.201 15.659C111.19 15.6723 111.183 15.6863 111.18 15.6955C111.176 15.7046 111.172 15.7149 111.17 15.7229L111.328 15.7752ZM111.322 15.7934C111.324 15.7866 111.326 15.7804 111.328 15.7752L111.17 15.7229C111.168 15.7281 111.167 15.7333 111.165 15.739L111.322 15.7934ZM111.326 29.4101V15.7662H111.16V29.4101H111.326ZM111.294 29.3907C111.295 29.3907 111.299 29.3908 111.305 29.3935C111.311 29.3963 111.317 29.4008 111.321 29.4062C111.329 29.416 111.326 29.4214 111.326 29.4101H111.16C111.16 29.4401 111.166 29.4774 111.19 29.5088C111.218 29.5437 111.257 29.5572 111.294 29.5572V29.3907ZM126.427 29.3907H111.294V29.5572H126.427V29.3907ZM126.394 29.4101C126.394 29.4214 126.392 29.416 126.399 29.4062C126.403 29.4008 126.409 29.3963 126.416 29.3935C126.422 29.3908 126.426 29.3907 126.427 29.3907V29.5572C126.464 29.5572 126.503 29.5437 126.53 29.5088C126.555 29.4774 126.56 29.4401 126.56 29.4101H126.394ZM126.394 26.2559V29.4101H126.56V26.2559H126.394ZM126.395 26.2686C126.395 26.2666 126.395 26.2645 126.394 26.2623L126.56 26.2495C126.56 26.2417 126.558 26.2339 126.556 26.2264L126.395 26.2686ZM126.398 26.2758C126.397 26.2736 126.396 26.2711 126.395 26.2686L126.556 26.2264C126.554 26.2175 126.551 26.2087 126.546 26.2005L126.398 26.2758ZM126.407 26.2871C126.403 26.284 126.4 26.2801 126.398 26.2758L126.546 26.2005C126.539 26.1851 126.528 26.1715 126.515 26.1604L126.407 26.2871ZM126.42 26.294C126.415 26.2925 126.411 26.2902 126.407 26.2871L126.515 26.1604C126.502 26.1493 126.487 26.1408 126.471 26.1356L126.42 26.294ZM126.434 26.2956C126.429 26.296 126.424 26.2954 126.419 26.294L126.471 26.1356C126.454 26.1303 126.437 26.1283 126.42 26.1298L126.434 26.2956ZM114.786 26.2959H126.427V26.1295H114.786V26.2959ZM114.703 24.0817V26.2127H114.869V24.0817H114.703ZM123.381 23.9985H114.786V24.1649H123.381V23.9985ZM123.349 24.016C123.349 24.0216 123.348 24.0239 123.348 24.0237C123.348 24.0234 123.349 24.0195 123.353 24.0144C123.357 24.0089 123.363 24.0043 123.37 24.0014C123.376 23.9986 123.381 23.9985 123.381 23.9985V24.1649C123.418 24.1649 123.458 24.1514 123.486 24.1157C123.51 24.0839 123.515 24.0462 123.515 24.016H123.349ZM123.349 21.1547V24.016H123.515V21.1547H123.349ZM123.353 21.165C123.35 21.161 123.349 21.1559 123.349 21.1508L123.515 21.1586C123.517 21.1235 123.506 21.089 123.484 21.0615L123.353 21.165ZM123.366 21.1727C123.361 21.1717 123.357 21.169 123.353 21.165L123.484 21.0615C123.462 21.034 123.431 21.0153 123.396 21.009L123.366 21.1727ZM114.777 21.174H123.381V21.0076H114.777V21.174ZM114.693 18.973V21.0908H114.86V18.973H114.693ZM126.417 18.8898H114.777V19.0562H126.417V18.8898ZM126.385 18.9091C126.385 18.9148 126.384 18.9168 126.384 18.9161C126.385 18.9153 126.386 18.9108 126.39 18.9053C126.395 18.8993 126.401 18.8948 126.408 18.8921C126.411 18.8909 126.413 18.8903 126.415 18.8901C126.416 18.8899 126.416 18.8898 126.417 18.8898C126.417 18.8898 126.417 18.8898 126.417 18.8898V19.0562C126.452 19.0562 126.492 19.0447 126.52 19.0092C126.546 18.9775 126.551 18.9392 126.551 18.9091H126.385ZM126.385 15.7662V18.9091H126.551V15.7662H126.385ZM126.389 15.7765C126.386 15.7725 126.385 15.7674 126.385 15.7623L126.551 15.7701C126.553 15.735 126.542 15.7005 126.52 15.673L126.389 15.7765ZM126.402 15.7842C126.397 15.7833 126.393 15.7805 126.389 15.7765L126.52 15.673C126.498 15.6455 126.467 15.6269 126.432 15.6205L126.402 15.7842Z" fill="#735050"/>
<path opacity="0.27" d="M135.185 8.6543H129.893V33.2084H135.185V8.6543Z" fill="#E03332"/>
<path opacity="0.27" d="M134.498 8.6543H129.205V33.2084H134.498V8.6543Z" fill="#E03233"/>
<path opacity="0.27" d="M133.749 8.6543H128.456V33.2084H133.749V8.6543Z" fill="#E03134"/>
<path opacity="0.27" d="M133.38 8.6543H128.087V33.2084H133.38V8.6543Z" fill="#E03135"/>
<path d="M130.756 8.69336H151.396C153.739 8.69336 155.611 9.95505 157.013 12.4784C157.403 13.3791 157.614 14.3472 157.635 15.3285V15.6927C157.635 17.6404 156.872 19.3583 155.346 20.8465C156.872 22.4424 157.635 24.0308 157.635 25.6116V26.7062C157.635 28.6689 156.738 30.4175 154.944 31.952C153.738 32.6805 152.861 33.0454 152.316 33.0466C152.316 33.1217 152.243 33.1593 152.096 33.1593H130.756C130.694 33.1593 130.664 33.1217 130.664 33.0466V8.806C130.675 8.7309 130.707 8.69336 130.756 8.69336ZM136.941 14.5136V18.2687H149.676C150.445 18.2687 150.975 17.8506 151.268 17.0145C151.317 16.639 151.341 16.4287 151.341 16.3517C151.341 15.4568 150.903 14.8416 150.027 14.5062L136.941 14.5136ZM136.941 23.5877V27.3728H149.676C150.445 27.3728 150.975 26.9472 151.268 26.0961C151.317 25.7318 151.341 25.5196 151.341 25.4577C151.355 25.1126 151.274 24.7704 151.106 24.4686C150.938 24.1668 150.69 23.9172 150.389 23.7473C150.169 23.6349 149.923 23.58 149.676 23.5877H136.941Z" fill="url(#paint12_linear_2_20345)"/>
</g>
<defs>
<linearGradient id="paint0_linear_2_20345" x1="20.124" y1="-5.57015" x2="-8.97838" y2="46.6681" gradientUnits="userSpaceOnUse">
<stop stop-color="#021B8C"/>
<stop offset="0.33" stop-color="#0849AE"/>
<stop offset="1" stop-color="#15AFF7"/>
</linearGradient>
<linearGradient id="paint1_linear_2_20345" x1="16.1944" y1="-7.53904" x2="-12.0967" y2="43.2411" gradientUnits="userSpaceOnUse">
<stop stop-color="#021B8C"/>
<stop offset="0.18" stop-color="#0740A7"/>
<stop offset="0.45" stop-color="#0D70C9"/>
<stop offset="0.68" stop-color="#1192E2"/>
<stop offset="0.87" stop-color="#14A7F1"/>
<stop offset="1" stop-color="#15AFF7"/>
</linearGradient>
<linearGradient id="paint2_linear_2_20345" x1="24.4492" y1="32.5018" x2="-16.5972" y2="-8.54347" gradientUnits="userSpaceOnUse">
<stop stop-color="#021B8C"/>
<stop offset="0.18" stop-color="#0740A7"/>
<stop offset="0.45" stop-color="#0D70C9"/>
<stop offset="0.68" stop-color="#1192E2"/>
<stop offset="0.87" stop-color="#14A7F1"/>
<stop offset="1" stop-color="#15AFF7"/>
</linearGradient>
<linearGradient id="paint3_linear_2_20345" x1="41.5753" y1="32.9672" x2="20.4261" y2="3.48442" gradientUnits="userSpaceOnUse">
<stop stop-color="#E03136"/>
<stop offset="0.21" stop-color="#DA2E33"/>
<stop offset="0.47" stop-color="#CA242B"/>
<stop offset="0.77" stop-color="#B0141D"/>
<stop offset="1" stop-color="#96050F"/>
</linearGradient>
<linearGradient id="paint4_linear_2_20345" x1="42.5878" y1="33.6183" x2="20.8465" y2="3.30896" gradientUnits="userSpaceOnUse">
<stop stop-color="#E03136"/>
<stop offset="0.21" stop-color="#DA2E33"/>
<stop offset="0.47" stop-color="#CA242B"/>
<stop offset="0.77" stop-color="#B0141D"/>
<stop offset="1" stop-color="#96050F"/>
</linearGradient>
<linearGradient id="paint5_linear_2_20345" x1="19.0283" y1="14.616" x2="37.3195" y2="14.616" gradientUnits="userSpaceOnUse">
<stop stop-color="#E03136"/>
<stop offset="0.09" stop-color="#D2292F"/>
<stop offset="0.3" stop-color="#B81921"/>
<stop offset="0.51" stop-color="#A50E17"/>
<stop offset="0.73" stop-color="#9A0711"/>
<stop offset="0.97" stop-color="#96050F"/>
</linearGradient>
<linearGradient id="paint6_linear_2_20345" x1="47.1957" y1="25.1458" x2="22.5257" y2="10.9031" gradientUnits="userSpaceOnUse">
<stop stop-color="#E03136"/>
<stop offset="0.37" stop-color="#D2292F"/>
<stop offset="0.48" stop-color="#B81921"/>
<stop offset="0.68" stop-color="#A50E17"/>
<stop offset="0.85" stop-color="#9A0711"/>
<stop offset="0.97" stop-color="#96050F"/>
</linearGradient>
<linearGradient id="paint7_linear_2_20345" x1="-5.7759" y1="32.4659" x2="42.8541" y2="32.4659" gradientUnits="userSpaceOnUse">
<stop offset="0.12" stop-color="#855439"/>
<stop offset="0.34" stop-color="#89583D"/>
<stop offset="0.58" stop-color="#966349"/>
<stop offset="0.7" stop-color="#A06C52"/>
</linearGradient>
<linearGradient id="paint8_linear_2_20345" x1="-5.77605" y1="33.0808" x2="42.854" y2="33.0808" gradientUnits="userSpaceOnUse">
<stop offset="0.12" stop-color="#855439"/>
<stop offset="0.34" stop-color="#89583D"/>
<stop offset="0.58" stop-color="#966349"/>
<stop offset="0.7" stop-color="#A06C52"/>
</linearGradient>
<linearGradient id="paint9_linear_2_20345" x1="-5.7759" y1="36.5292" x2="38.4995" y2="36.5292" gradientUnits="userSpaceOnUse">
<stop stop-color="#A06C52"/>
<stop offset="0.77" stop-color="#8C5A3F"/>
<stop offset="0.98" stop-color="#855439"/>
</linearGradient>
<linearGradient id="paint10_linear_2_20345" x1="19.2072" y1="40.4115" x2="19.2072" y2="25.3858" gradientUnits="userSpaceOnUse">
<stop stop-color="#AF897B"/>
<stop offset="0.1" stop-color="#A27764"/>
<stop offset="0.23" stop-color="#96674F"/>
<stop offset="0.35" stop-color="#8E5D43"/>
<stop offset="0.47" stop-color="#8C5A3F"/>
<stop offset="0.98" stop-color="#855439"/>
</linearGradient>
<linearGradient id="paint11_linear_2_20345" x1="84.2282" y1="15.7021" x2="84.2282" y2="29.4869" gradientUnits="userSpaceOnUse">
<stop stop-color="#C39C37"/>
<stop offset="0.432292" stop-color="#EDEE88"/>
<stop offset="0.869792" stop-color="#C39C37"/>
</linearGradient>
<linearGradient id="paint12_linear_2_20345" x1="130.664" y1="20.9254" x2="157.635" y2="20.9254" gradientUnits="userSpaceOnUse">
<stop stop-color="#E03136"/>
<stop offset="0.21" stop-color="#DA2E33"/>
<stop offset="0.47" stop-color="#CA242B"/>
<stop offset="0.77" stop-color="#B0141D"/>
<stop offset="1" stop-color="#96050F"/>
</linearGradient>
<clipPath id="clip0_2_20345">
<rect width="157.77" height="41.606" fill="white"/>
</clipPath>
</defs>
</svg>
