<svg width="30" height="30" viewBox="0 0 30 30" fill="none" xmlns="http://www.w3.org/2000/svg">
<path d="M6.18576 18.0388C5.57006 19.5924 4.59686 21.1305 3.29361 22.6109C2.87888 23.082 2.82623 23.7544 3.16268 24.284C3.42178 24.6915 3.85757 24.9235 4.319 24.9235C4.449 24.9235 4.5813 24.9052 4.71176 24.8672C7.47391 24.0602 13.9169 21.1937 14.09 12.0311C14.1568 8.49303 11.5691 5.45349 8.19947 5.11108C6.34231 4.92522 4.48425 5.52855 3.1073 6.77322C1.72852 8.01925 0.9375 9.79812 0.9375 11.6543C0.9375 14.7511 3.13567 17.4592 6.18576 18.0388ZM4.36432 8.16435C5.24002 7.37288 6.34231 6.95128 7.51099 6.95128C7.67624 6.95128 7.84286 6.95952 8.00995 6.97691C10.4164 7.22089 12.2635 9.42549 12.215 11.9954C12.0955 18.3354 8.66272 21.1896 5.82001 22.4663C6.71951 21.2495 7.4263 19.998 7.92893 18.7295C8.12484 18.2356 8.09235 17.6836 7.84012 17.2148C7.57598 16.7232 7.10495 16.3744 6.54877 16.2576C4.38354 15.8049 2.8125 13.8685 2.8125 11.6543C2.8125 10.3277 3.37829 9.05563 4.36432 8.16435Z" fill="white"/>
<path d="M18.1338 24.2841C18.3929 24.6915 18.8287 24.9236 19.2901 24.9236C19.4202 24.9236 19.552 24.9053 19.6829 24.8673C22.4451 24.0603 28.8876 21.1937 29.0607 12.0311V12.0307C29.1266 8.49263 26.5393 5.45353 23.1692 5.11113C21.3098 4.92207 19.455 5.52815 18.078 6.77327C16.6992 8.0193 15.9082 9.79817 15.9082 11.6544C15.9082 14.7512 18.1064 17.4593 21.156 18.0388C20.5399 19.5939 19.5667 21.1319 18.2639 22.6114C17.8491 23.0829 17.7969 23.7549 18.1338 24.2841ZM22.8992 18.7305C23.0951 18.2366 23.063 17.6845 22.8113 17.2158C22.5467 16.7237 22.0761 16.3749 21.5194 16.2577C19.3542 15.8049 17.7832 13.8686 17.7832 11.6544C17.7832 10.3273 18.349 9.05568 19.335 8.16441C20.2102 7.37293 21.3125 6.95133 22.4817 6.95133C22.6465 6.95133 22.8131 6.95957 22.9806 6.97696C25.3866 7.22094 27.2342 9.42554 27.1857 11.9954C27.0666 18.3359 23.6334 21.1896 20.7907 22.4663C21.6897 21.2505 22.3956 19.999 22.8992 18.7305Z" fill="white"/>
</svg>
