<svg width="40" height="40" viewBox="0 0 40 40" fill="none" xmlns="http://www.w3.org/2000/svg">
<g clip-path="url(#clip0_1_2362)">
<path d="M3.95254 7.0368V9.32914H2.1348C1.49441 9.32914 1.12035 10.0513 1.4898 10.5744L5.47918 16.2224C5.79379 16.6679 6.45457 16.6679 6.76918 16.2224L10.7586 10.5744C11.128 10.0513 10.7539 9.32914 10.1136 9.32914H8.29582V7.0368C8.29582 5.55156 9.50418 4.3432 10.9895 4.3432C12.4748 4.3432 13.683 5.55156 13.683 7.0368V20.1065H18.0262V7.0368C18.0262 3.15672 14.8695 0 10.9894 0C7.10933 0 3.95254 3.15672 3.95254 7.0368V7.0368Z" fill="#00E3FF"/>
<path d="M18.0255 7.03664V20.1062H15.6336V7.03664C15.6336 3.56461 13.1056 0.67125 9.79297 0.102266C10.1817 0.0346094 10.5809 0 10.989 0C14.8691 0 18.0255 3.15656 18.0255 7.03664V7.03664Z" fill="#00D0FF"/>
<path d="M31.2029 40.0002H8.79977C8.00305 40.0002 7.33133 39.4061 7.23398 38.6153L5.24609 22.4673H34.7565L32.7687 38.6153C32.6713 39.4061 31.9996 40.0002 31.2029 40.0002V40.0002Z" fill="#865FFF"/>
<path d="M5.24609 22.4673L5.59867 25.3306H16.8534C17.4356 25.3306 17.9819 25.6428 18.2505 26.1592C18.5791 26.7913 19.2398 27.2229 20.0013 27.2229C20.763 27.2229 21.4236 26.7913 21.7522 26.1592C22.0208 25.6428 22.567 25.3306 23.1492 25.3306H28.9644C30.2641 25.3306 31.2705 26.4685 31.1117 27.7585L29.7753 38.6148C29.6775 39.406 29.0063 39.9999 28.2095 39.9999H31.203C31.9998 39.9999 32.671 39.406 32.7688 38.6148L34.7566 22.4673H5.24609Z" fill="#5C27FE"/>
<path d="M17.3707 36.3225C16.5938 36.3768 15.92 35.7911 15.8656 35.0141L15.4488 29.0535C15.3945 28.2766 15.9802 27.6028 16.7572 27.5484C17.534 27.4941 18.2079 28.0798 18.2622 28.8568L18.679 34.8174C18.7333 35.5943 18.1476 36.2681 17.3707 36.3225V36.3225Z" fill="#070A29"/>
<path d="M11.7584 36.2901C10.9872 36.3985 10.2741 35.8612 10.1658 35.09L9.33421 29.173C9.22585 28.4017 9.76311 27.6887 10.5344 27.5803C11.3056 27.4719 12.0187 28.0092 12.127 28.7805L12.9586 34.6975C13.0669 35.4687 12.5296 36.1818 11.7584 36.2901Z" fill="#070A29"/>
<path d="M22.7025 36.3225C23.4793 36.3768 24.1532 35.7911 24.2075 35.0141L24.6243 29.0535C24.6786 28.2766 24.0929 27.6028 23.316 27.5484C22.5391 27.4941 21.8653 28.0798 21.8109 28.8568L21.3941 34.8174C21.3399 35.5943 21.9256 36.2681 22.7025 36.3225Z" fill="#070A29"/>
<path d="M28.3156 36.2901C29.0869 36.3985 29.7999 35.8612 29.9083 35.09L30.7398 29.173C30.8482 28.4017 30.3109 27.6887 29.5397 27.5803C28.7685 27.4719 28.0554 28.0092 27.947 28.7805L27.1155 34.6975C27.007 35.4687 27.5444 36.1818 28.3156 36.2901Z" fill="#070A29"/>
<path d="M35.2805 23.359H4.72273C3.59875 23.359 2.6875 22.4479 2.6875 21.3238C2.6875 20.1998 3.59867 19.2886 4.72273 19.2886H35.2805C36.4045 19.2886 37.3158 20.1997 37.3158 21.3238C37.3158 22.4479 36.4045 23.359 35.2805 23.359Z" fill="#DEC7FF"/>
<path d="M37.315 21.3237C37.315 21.8861 37.087 22.394 36.7187 22.7624C36.3511 23.1308 35.8416 23.3587 35.2799 23.3587H32.4766C33.0382 23.3587 33.5477 23.1308 33.9153 22.7624C34.2837 22.394 34.5116 21.8861 34.5116 21.3237C34.5116 20.1996 33.6005 19.2886 32.4766 19.2886H35.2799C36.4039 19.2886 37.315 20.1997 37.315 21.3237Z" fill="#FCA863"/>
<path d="M36.0425 11.0612V18.9874H37.8602C38.5006 18.9874 38.8747 19.7096 38.5052 20.2326L34.5159 25.8807C34.2012 26.3261 33.5405 26.3261 33.2259 25.8807L29.2365 20.2326C28.867 19.7096 29.2411 18.9874 29.8815 18.9874H31.6992V11.0612C31.6992 9.57598 30.4909 8.36762 29.0055 8.36762C27.5202 8.36762 26.312 9.57598 26.312 11.0612V19.2888H21.9688V11.0612C21.9688 7.18105 25.1255 4.02441 29.0055 4.02441C32.8856 4.02441 36.0425 7.18113 36.0425 11.0612V11.0612Z" fill="#7986E8"/>
<path d="M38.5033 20.2327L34.5138 25.8802C34.1991 26.3261 33.5391 26.3261 33.2244 25.8802L32.7793 25.2501L36.323 20.2328C36.6923 19.7097 36.319 18.987 35.6783 18.987H34.665C34.2205 18.987 33.8602 18.6267 33.8602 18.1821V11.061C33.8602 7.55197 31.2783 4.63447 27.9141 4.10892C28.3525 4.04048 28.8032 4.01236 29.263 4.02916C33.0615 4.16759 36.0404 7.35119 36.0404 11.1522V18.9869H37.8585C38.4984 18.9869 38.8727 19.7096 38.5033 20.2327V20.2327Z" fill="#4C5CE1"/>
</g>
<defs>
<clipPath id="clip0_1_2362">
<rect width="40" height="40" fill="white"/>
</clipPath>
</defs>
</svg>
