<svg width="40" height="40" viewBox="0 0 40 40" fill="none" xmlns="http://www.w3.org/2000/svg">
<path d="M28.2031 34.0625C28.2031 34.7187 27.6876 35.2344 27.0312 35.2344H12.9688C12.3124 35.2344 11.7969 34.7187 11.7969 34.0625C11.7969 33.4062 12.3124 32.8906 12.9688 32.8906H27.0312C27.6876 32.8906 28.2031 33.4062 28.2031 34.0625Z" fill="#DEC7FF"/>
<path d="M28.2031 34.0625C28.2031 34.7187 27.6876 35.2344 27.0312 35.2344H17.6562V32.8906H27.0312C27.6876 32.8906 28.2031 33.4062 28.2031 34.0625Z" fill="#5C27FE"/>
<path d="M28.2031 5.9375C28.2031 6.59367 27.6876 7.10938 27.0312 7.10938H12.9688C12.3124 7.10938 11.7969 6.59367 11.7969 5.9375C11.7969 5.28117 12.3124 4.76562 12.9688 4.76562H27.0312C27.6876 4.76562 28.2031 5.28117 28.2031 5.9375Z" fill="#DEC7FF"/>
<path d="M35.3582 19.0756C34.9279 19.0756 34.5147 18.8387 34.3087 18.4278L29.374 8.55846C29.0845 7.9794 29.3191 7.27557 29.8982 6.98604C30.4761 6.69768 31.1811 6.92994 31.4706 7.51018L36.4053 17.3796C36.6948 17.9586 36.4602 18.6624 35.8811 18.952C35.7129 19.0355 35.5344 19.0756 35.3582 19.0756Z" fill="#5C27FE"/>
<path d="M30.4207 33.1384C30.2445 33.1384 30.0659 33.0983 29.8977 33.0148C29.4869 32.8099 29.25 32.3956 29.25 31.9665C29.25 31.7902 29.2901 31.6105 29.3736 31.4423L34.3083 21.573C34.599 20.9939 35.3005 20.7616 35.8807 21.0488C36.2916 21.2537 36.5284 21.668 36.5284 22.0971C36.5284 22.2734 36.4884 22.453 36.4048 22.6212L31.4702 32.4906C31.2641 32.9015 30.851 33.1384 30.4207 33.1384Z" fill="#5C27FE"/>
<path d="M4.63989 19.0756C4.46364 19.0756 4.28513 19.0355 4.11693 18.952C3.53786 18.6624 3.30325 17.9586 3.59278 17.3796L8.52747 7.51018C8.81818 6.92994 9.51966 6.69768 10.0999 6.98604C10.679 7.27557 10.9136 7.9794 10.624 8.55846L5.68935 18.4278C5.48333 18.8387 5.07021 19.0756 4.63989 19.0756Z" fill="#DEC7FF"/>
<path d="M9.57692 33.1379C9.14661 33.1379 8.73349 32.901 8.52747 32.4901L3.59278 22.6208C3.30325 22.0417 3.53786 21.3379 4.11693 21.0483C4.69482 20.7611 5.39982 20.9934 5.68935 21.5725L10.624 31.4418C10.9136 32.0209 10.679 32.7247 10.0999 33.0143C9.93169 33.0978 9.75317 33.1379 9.57692 33.1379Z" fill="#DEC7FF"/>
<path d="M34.3108 20.1237C34.1838 20.1237 34.0556 20.1031 33.9297 20.0597L26.4041 17.4687C25.7918 17.2582 25.4668 16.591 25.6774 15.9798C25.8879 15.3676 26.5563 15.0437 27.1663 15.2531L34.6919 17.844C35.3042 18.0546 35.6292 18.7218 35.4186 19.3329C35.2515 19.8194 34.7972 20.1237 34.3108 20.1237Z" fill="#5C27FE"/>
<path d="M25.2567 14.2105C25.0164 14.2105 24.7726 14.1361 24.5632 13.9827C24.0425 13.5994 23.9303 12.8658 24.3137 12.3439L27.8637 7.51679C28.247 6.99608 28.9783 6.88507 29.5025 7.26733C30.0232 7.65069 30.1354 8.38429 29.7519 8.90616L26.202 13.7333C25.9719 14.0456 25.6172 14.2105 25.2567 14.2105Z" fill="#5C27FE"/>
<path d="M23.7027 14.6561C23.4917 15.0078 23.1168 15.1953 22.7417 15.1953C22.5074 15.1953 22.2964 15.1249 22.0855 14.9843L17.6558 12.0311L11.9136 8.21083C11.3746 7.85935 11.234 7.13279 11.6089 6.59365C11.9604 6.05466 12.687 5.91404 13.2261 6.2656L17.6557 9.21857L23.3979 13.0389C23.937 13.3906 24.0776 14.1172 23.7027 14.6561Z" fill="#DEC7FF"/>
<path d="M19.0616 23.9846C18.8167 23.9846 18.5707 23.908 18.3601 23.75C17.8417 23.362 17.7364 22.6273 18.1255 22.1101L22.3438 16.4841C22.7328 15.9657 23.4676 15.8627 23.9837 16.2495C24.5021 16.6375 24.6074 17.3722 24.2183 17.8894L20 23.5154C19.77 23.8232 19.4187 23.9846 19.0616 23.9846Z" fill="#5C27FE"/>
<path d="M15.4355 25.1176C15.3131 25.1176 15.1884 25.0982 15.0648 25.057L5.44945 21.8526C4.83601 21.6489 4.50414 20.9851 4.70898 20.3706C4.91265 19.7583 5.57187 19.4218 6.19101 19.6301L15.8063 22.8345C16.4198 23.0382 16.7516 23.702 16.5468 24.3165C16.3831 24.8075 15.9265 25.1176 15.4355 25.1176Z" fill="#DEC7FF"/>
<path d="M27.5422 33.771C27.2859 33.771 27.0272 33.6875 26.811 33.5147L18.7521 27.0671C18.2474 26.662 18.165 25.925 18.5689 25.4191C18.9752 24.9156 19.7111 24.8309 20.2169 25.236L28.2758 31.6836C28.7805 32.0888 28.8629 32.8257 28.4589 33.3316C28.2265 33.6199 27.8867 33.771 27.5422 33.771Z" fill="#5C27FE"/>
<path d="M12.0303 33.3596C11.7854 33.3596 11.5394 33.283 11.3289 33.125C10.8104 32.737 10.7052 32.0023 11.0942 31.4851L15.3125 25.8591C15.7028 25.3407 16.4352 25.2377 16.9525 25.6245C17.4709 26.0125 17.5761 26.7472 17.1871 27.2644L12.9688 32.8904C12.7388 33.1982 12.3875 33.3596 12.0303 33.3596Z" fill="#DEC7FF"/>
<path d="M16.8312 23.6642C16.3574 23.6642 15.9099 23.3746 15.7337 22.9042L10.3481 8.54416C10.1215 7.9376 10.4281 7.26245 11.0335 7.03471C11.6377 6.80815 12.3152 7.1137 12.543 7.72018L17.9286 22.0803C18.1552 22.6868 17.8485 23.362 17.2431 23.5897C17.107 23.6402 16.9685 23.6642 16.8312 23.6642Z" fill="#DEC7FF"/>
<path d="M19.9286 25.2907C19.4033 25.2907 18.9261 24.936 18.7934 24.4027C18.6355 23.7756 19.0177 23.1393 19.646 22.9825L33.8481 19.4325C34.4741 19.2735 35.1115 19.6557 35.2683 20.2851C35.4262 20.9122 35.044 21.5486 34.4158 21.7053L20.2136 25.2553C20.1186 25.2793 20.0225 25.2907 19.9286 25.2907Z" fill="#5C27FE"/>
<path d="M27.0312 7.10938H17.6562V4.76562H27.0312C27.6876 4.76562 28.2031 5.28117 28.2031 5.9375C28.2031 6.59367 27.6876 7.10938 27.0312 7.10938Z" fill="#5C27FE"/>
<path d="M23.7031 14.6562C23.4921 15.0079 23.1172 15.1954 22.7421 15.1954C22.5078 15.1954 22.2968 15.125 22.0859 14.9844L17.6562 12.0312V9.21875L23.3984 13.0391C23.9374 13.3907 24.078 14.1173 23.7031 14.6562Z" fill="#5C27FE"/>
<path d="M17.6562 21.1719C15.7109 21.1719 14.1406 22.7421 14.1406 24.6875C14.1406 26.6327 15.7109 28.2031 17.6562 28.2031C19.6016 28.2031 21.1719 26.6327 21.1719 24.6875C21.1719 22.7421 19.6016 21.1719 17.6562 21.1719Z" fill="#00E3FF"/>
<path d="M21.1719 24.6875C21.1719 26.6327 19.6016 28.2031 17.6562 28.2031V21.1719C19.6016 21.1719 21.1719 22.7421 21.1719 24.6875Z" fill="#00E3FF"/>
<path d="M36.4062 23.5156C34.4677 23.5156 32.8906 21.9386 32.8906 20C32.8906 18.0614 34.4677 16.4844 36.4062 16.4844C38.3448 16.4844 40 18.0614 40 20C40 21.9386 38.3448 23.5156 36.4062 23.5156Z" fill="#00E3FF"/>
<path d="M29.375 9.45312C27.4364 9.45312 25.8594 7.87609 25.8594 5.9375C25.8594 3.99891 27.4364 2.42188 29.375 2.42188C31.3136 2.42188 32.8906 3.99891 32.8906 5.9375C32.8906 7.87609 31.3136 9.45312 29.375 9.45312Z" fill="#00E3FF"/>
<path d="M24.6875 18.8281C22.7489 18.8281 21.1719 17.2511 21.1719 15.3125C21.1719 13.3739 22.7489 11.7969 24.6875 11.7969C26.6261 11.7969 28.2031 13.3739 28.2031 15.3125C28.2031 17.2511 26.6261 18.8281 24.6875 18.8281Z" fill="#00E3FF"/>
<path d="M29.375 37.5781C27.4364 37.5781 25.8594 36.0011 25.8594 34.0625C25.8594 32.1239 27.4364 30.5469 29.375 30.5469C31.3136 30.5469 32.8906 32.1239 32.8906 34.0625C32.8906 36.0011 31.3136 37.5781 29.375 37.5781Z" fill="#00E3FF"/>
<path d="M3.59375 23.5156C1.65516 23.5156 0 21.9386 0 20C0 18.0614 1.65516 16.4844 3.59375 16.4844C5.53234 16.4844 7.10938 18.0614 7.10938 20C7.10938 21.9386 5.53234 23.5156 3.59375 23.5156Z" fill="#00E3FF"/>
<path d="M10.625 9.45312C8.68641 9.45312 7.10938 7.87609 7.10938 5.9375C7.10938 3.99891 8.68641 2.42188 10.625 2.42188C12.5636 2.42188 14.1406 3.99891 14.1406 5.9375C14.1406 7.87609 12.5636 9.45312 10.625 9.45312Z" fill="#00E3FF"/>
<path d="M10.625 37.5781C8.68641 37.5781 7.10938 36.0011 7.10938 34.0625C7.10938 32.1239 8.68641 30.5469 10.625 30.5469C12.5636 30.5469 14.1406 32.1239 14.1406 34.0625C14.1406 36.0011 12.5636 37.5781 10.625 37.5781Z" fill="#00E3FF"/>
</svg>
