<svg width="36" height="36" viewBox="0 0 36 36" fill="none" xmlns="http://www.w3.org/2000/svg">
<g clip-path="url(#clip0_1_2158)">
<path d="M18 36.334C27.9247 36.334 36 28.2594 36 18.334C36 8.40857 27.9247 0.333984 18 0.333984C8.07532 0.333984 0 8.40857 0 18.334C0 28.2594 8.07532 36.334 18 36.334ZM18 3.33398C26.2709 3.33398 33 10.0631 33 18.334C33 26.6049 26.2709 33.334 18 33.334C9.72913 33.334 3 26.6049 3 18.334C3 10.0631 9.72913 3.33398 18 3.33398Z" fill="white"/>
<path d="M11.2251 24.3337H24V21.3337H15.7749L17.0603 18.3337H22.5V15.3337H18.3464L19.9695 11.5464L17.2119 10.3643L15.0824 15.3337H10.5V18.3337H13.7963L11.2251 24.3337Z" fill="white"/>
</g>
<defs>
<clipPath id="clip0_1_2158">
<rect width="36" height="36" fill="white"/>
</clipPath>
</defs>
</svg>
