<svg width="36" height="36" viewBox="0 0 36 36" fill="none" xmlns="http://www.w3.org/2000/svg">
<path d="M2.23242 21.5713C3.28386 18.5541 9.26942 17.2826 18.0009 18.3341L19.6923 12.117C11.0523 11.0198 4.74373 12.2541 3.6923 16.1855L3.51967 16.8224L3.37886 18.9467L2.23242 21.5713Z" fill="white"/>
<path d="M33.7662 15.1035C32.7148 18.1206 26.7315 19.3858 18 18.3344L16.3086 24.5515C24.9486 25.6486 31.2571 24.4144 32.3086 20.483L32.4192 20.0746L32.4981 18.0908L33.7662 15.1035Z" fill="white" fill-opacity="0.5"/>
<path d="M7.75977 8.55111C20.5141 9.46542 33.5426 15.774 32.3083 20.4825L33.4512 16.2769C33.8169 14.9512 33.9998 14.2654 33.9998 13.7169C33.9998 8.91686 21.4283 3.06542 9.4512 2.33398L7.75977 8.55111Z" fill="white"/>
<path d="M28.24 28.117C15.4857 27.2027 2.45712 20.8941 3.69144 16.1855L2.54856 20.3912C2.18287 21.717 2 22.4027 2 22.9512C2 27.7512 14.5714 33.6027 26.5486 34.3341L28.24 28.117Z" fill="white" fill-opacity="0.5"/>
</svg>
