<svg width="105" height="105" viewBox="0 0 105 105" fill="none" xmlns="http://www.w3.org/2000/svg">
<g filter="url(#filter0_b_112_152)">
<circle cx="52.5" cy="52.5" r="52.5" fill="url(#paint0_linear_112_152)"/>
<circle cx="52.5" cy="52.5" r="50.5" stroke="url(#paint1_linear_112_152)" stroke-width="4"/>
</g>
<path fill-rule="evenodd" clip-rule="evenodd" d="M54.5004 39.1665H43.667V37.9998C43.667 32.8452 47.8457 28.6665 53.0003 28.6665H67.0003C72.1549 28.6665 76.3337 32.8452 76.3337 37.9998V51.9998C76.3337 57.1544 72.1549 61.3332 67.0003 61.3332H65.8337V50.4997C65.8337 44.2406 60.7596 39.1665 54.5004 39.1665ZM39.0003 75.3332H53.0003C58.1549 75.3332 62.3337 71.1544 62.3337 65.9998V51.9998C62.3337 46.8452 58.1549 42.6665 53.0003 42.6665H39.0003C33.8457 42.6665 29.667 46.8452 29.667 51.9998V65.9998C29.667 71.1544 33.8457 75.3332 39.0003 75.3332ZM54.1528 53.0162C54.8801 53.6525 54.9538 54.7583 54.3173 55.4856L47.6209 63.1387C46.1819 64.7832 43.7033 65.0033 41.997 63.6383L37.9071 60.3665C37.1524 59.7626 37.03 58.6613 37.6338 57.9067C38.2376 57.1518 39.3388 57.0296 40.0935 57.6334L44.1835 60.9052C44.4272 61.1003 44.7813 61.0688 44.9869 60.8338L51.6834 53.1807C52.3197 52.4534 53.4252 52.3797 54.1528 53.0162Z" fill="url(#paint2_linear_112_152)"/>
<defs>
<filter id="filter0_b_112_152" x="-4" y="-4" width="113" height="113" filterUnits="userSpaceOnUse" color-interpolation-filters="sRGB">
<feFlood flood-opacity="0" result="BackgroundImageFix"/>
<feGaussianBlur in="BackgroundImageFix" stdDeviation="2"/>
<feComposite in2="SourceAlpha" operator="in" result="effect1_backgroundBlur_112_152"/>
<feBlend mode="normal" in="SourceGraphic" in2="effect1_backgroundBlur_112_152" result="shape"/>
</filter>
<linearGradient id="paint0_linear_112_152" x1="248" y1="-61.0001" x2="7.07529" y2="-148.356" gradientUnits="userSpaceOnUse">
<stop offset="0.272195" stop-color="#0F7ED3"/>
<stop offset="0.798762" stop-color="#083D90"/>
</linearGradient>
<linearGradient id="paint1_linear_112_152" x1="-3.29605e-06" y1="48.8793" x2="83.6295" y2="91.1546" gradientUnits="userSpaceOnUse">
<stop stop-color="white" stop-opacity="0.1"/>
<stop offset="0.482151" stop-color="white" stop-opacity="0"/>
<stop offset="1" stop-color="white" stop-opacity="0.1"/>
</linearGradient>
<linearGradient id="paint2_linear_112_152" x1="53.0003" y1="28.6665" x2="53.0003" y2="75.3332" gradientUnits="userSpaceOnUse">
<stop stop-color="white"/>
<stop offset="1" stop-color="white" stop-opacity="0"/>
</linearGradient>
</defs>
</svg>
