<svg width="42" height="48" viewBox="0 0 42 48" fill="none" xmlns="http://www.w3.org/2000/svg">
<path fill-rule="evenodd" clip-rule="evenodd" d="M42 19.6839V37.9224C42 43.1199 37.8212 47.3332 32.6667 47.3332H9.33333C4.17867 47.3332 0 43.1199 0 37.9224V19.6839C0 16.8584 1.25916 14.1823 3.42967 12.395L15.0963 2.78832C18.532 -0.0407557 23.468 -0.0407791 26.9036 2.78832L38.5702 12.395C40.7409 14.1823 42 16.8584 42 19.6839ZM28.5833 36.2498V41.4998C28.5833 42.7885 27.5387 43.8332 26.25 43.8332H15.75C14.4613 43.8332 13.4167 42.7885 13.4167 41.4998V36.2498C13.4167 32.0617 16.8119 28.6665 21 28.6665C25.1881 28.6665 28.5833 32.0617 28.5833 36.2498Z" fill="url(#paint0_linear_99_91)"/>
<defs>
<linearGradient id="paint0_linear_99_91" x1="21" y1="0.666504" x2="21" y2="47.3332" gradientUnits="userSpaceOnUse">
<stop stop-color="white"/>
<stop offset="1" stop-color="white" stop-opacity="0"/>
</linearGradient>
</defs>
</svg>
