<svg width="48" height="42" viewBox="0 0 48 42" fill="none" xmlns="http://www.w3.org/2000/svg">
<path fill-rule="evenodd" clip-rule="evenodd" d="M10.0003 4.66667C10.0003 2.08934 12.0897 0 14.667 0H33.3337C35.9111 0 38.0003 2.08934 38.0003 4.66667V7H10.0003V4.66667ZM5.33366 15.1667C5.33366 12.5893 7.423 10.5 10.0003 10.5H38.0003C40.5777 10.5 42.667 12.5893 42.667 15.1667V17.5H5.33366V15.1667ZM0.666992 25.6667C0.666992 23.0893 2.75633 21 5.33366 21H42.667C45.2444 21 47.3337 23.0893 47.3337 25.6667V32.6667C47.3337 37.8212 43.1549 42 38.0003 42H10.0003C4.84567 42 0.666992 37.8212 0.666992 32.6667V25.6667ZM17.5837 28C17.5837 27.0335 18.3672 26.25 19.3337 26.25H28.667C29.6335 26.25 30.417 27.0335 30.417 28C30.417 28.9665 29.6335 29.75 28.667 29.75H19.3337C18.3672 29.75 17.5837 28.9665 17.5837 28Z" fill="url(#paint0_linear_99_74)"/>
<defs>
<linearGradient id="paint0_linear_99_74" x1="24.0003" y1="0" x2="24.0003" y2="42" gradientUnits="userSpaceOnUse">
<stop stop-color="white"/>
<stop offset="1" stop-color="white" stop-opacity="0"/>
</linearGradient>
</defs>
</svg>
