<svg width="105" height="105" viewBox="0 0 105 105" fill="none" xmlns="http://www.w3.org/2000/svg">
<g filter="url(#filter0_b_112_85)">
<circle cx="52.5" cy="52.5" r="52.5" fill="url(#paint0_linear_112_85)"/>
<circle cx="52.5" cy="52.5" r="50.5" stroke="url(#paint1_linear_112_85)" stroke-width="4"/>
</g>
<path fill-rule="evenodd" clip-rule="evenodd" d="M74 47.6839V65.9224C74 71.1199 69.8212 75.3332 64.6667 75.3332H41.3333C36.1787 75.3332 32 71.1199 32 65.9224V47.6839C32 44.8584 33.2592 42.1823 35.4297 40.395L47.0963 30.7883C50.532 27.9592 55.468 27.9592 58.9036 30.7883L70.5702 40.395C72.7409 42.1823 74 44.8584 74 47.6839ZM60.5833 64.2498V69.4998C60.5833 70.7885 59.5387 71.8332 58.25 71.8332H47.75C46.4613 71.8332 45.4167 70.7885 45.4167 69.4998V64.2498C45.4167 60.0617 48.8119 56.6665 53 56.6665C57.1881 56.6665 60.5833 60.0617 60.5833 64.2498Z" fill="url(#paint2_linear_112_85)"/>
<defs>
<filter id="filter0_b_112_85" x="-4" y="-4" width="113" height="113" filterUnits="userSpaceOnUse" color-interpolation-filters="sRGB">
<feFlood flood-opacity="0" result="BackgroundImageFix"/>
<feGaussianBlur in="BackgroundImageFix" stdDeviation="2"/>
<feComposite in2="SourceAlpha" operator="in" result="effect1_backgroundBlur_112_85"/>
<feBlend mode="normal" in="SourceGraphic" in2="effect1_backgroundBlur_112_85" result="shape"/>
</filter>
<linearGradient id="paint0_linear_112_85" x1="248" y1="-61.0001" x2="7.07529" y2="-148.356" gradientUnits="userSpaceOnUse">
<stop offset="0.272195" stop-color="#0F7ED3"/>
<stop offset="0.798762" stop-color="#083D90"/>
</linearGradient>
<linearGradient id="paint1_linear_112_85" x1="-3.29605e-06" y1="48.8793" x2="83.6295" y2="91.1546" gradientUnits="userSpaceOnUse">
<stop stop-color="white" stop-opacity="0.1"/>
<stop offset="0.482151" stop-color="white" stop-opacity="0"/>
<stop offset="1" stop-color="white" stop-opacity="0.1"/>
</linearGradient>
<linearGradient id="paint2_linear_112_85" x1="53" y1="28.6665" x2="53" y2="75.3332" gradientUnits="userSpaceOnUse">
<stop stop-color="white"/>
<stop offset="1" stop-color="white" stop-opacity="0"/>
</linearGradient>
</defs>
</svg>
