<svg width="36" height="36" viewBox="0 0 36 36" fill="none" xmlns="http://www.w3.org/2000/svg">
<g clip-path="url(#clip0_1_2154)">
<path d="M29.9827 19.2205C29.1464 18.139 27.8843 17.3962 26.1966 16.9924C28.3458 15.8961 29.2903 14.0355 29.031 11.4102C28.9443 10.4582 28.6812 9.63312 28.2411 8.93377C27.8006 8.23426 27.2063 7.67192 26.4558 7.2465C25.7059 6.82055 24.8903 6.4963 24.0109 6.27276C23.1313 6.04921 22.1214 5.8869 20.9819 5.78604V0.333984H17.6505V5.63456C17.0736 5.63456 16.1938 5.64895 15.0112 5.67783V0.333984H11.6792V5.78604C11.2031 5.80051 10.5037 5.80786 9.58066 5.80786L4.99414 5.78604V9.33425H7.39546C8.49166 9.33425 9.1335 9.82476 9.32097 10.8054V17.0148C9.4654 17.0148 9.58066 17.0222 9.66727 17.0366H9.32097V25.7335C9.20571 26.4689 8.7875 26.837 8.06624 26.837H5.66508L4.99429 30.7963H9.32135C9.59544 30.7963 9.99183 30.7999 10.5113 30.8065C11.0304 30.8137 11.4197 30.8174 11.6794 30.8174V36.3342H15.0119V30.8822C15.6175 30.897 16.4973 30.9041 17.6511 30.9041V36.3342H20.9827V30.8174C22.1657 30.7598 23.2149 30.6522 24.1304 30.493C25.0463 30.3338 25.9227 30.0854 26.7591 29.7462C27.5954 29.4075 28.2948 28.9853 28.8572 28.4805C29.4199 27.9761 29.8847 27.3339 30.2531 26.555C30.6203 25.776 30.855 24.8745 30.9556 23.8502C31.144 21.8459 30.8192 20.3025 29.9827 19.2205ZM15.076 9.57159C15.177 9.57159 15.4618 9.56795 15.9306 9.56067C16.3996 9.55325 16.7889 9.54612 17.0989 9.53885C17.4091 9.53173 17.8274 9.54976 18.354 9.59303C18.8805 9.6363 19.3239 9.69412 19.6844 9.76611C20.0449 9.8381 20.4419 9.95714 20.8742 10.123C21.3073 10.2887 21.6532 10.4908 21.9125 10.7287C22.1723 10.9667 22.3922 11.2697 22.5722 11.6375C22.7527 12.0053 22.8429 12.4271 22.8429 12.903C22.8429 13.3069 22.7781 13.6748 22.6484 14.0067C22.519 14.3384 22.3238 14.6161 22.0645 14.8396C21.8051 15.0633 21.5378 15.2582 21.2637 15.4239C20.9899 15.5896 20.6398 15.7231 20.2145 15.824C19.7892 15.925 19.4178 16.0044 19.1007 16.0619C18.7833 16.1197 18.3868 16.1595 17.9107 16.181C17.4346 16.2025 17.0739 16.2172 16.8289 16.2243C16.5836 16.2315 16.2483 16.2315 15.8227 16.2243C15.397 16.2172 15.1485 16.2134 15.0762 16.2134V9.57151H15.076V9.57159ZM24.1738 24.3048C24.0365 24.6367 23.8601 24.9254 23.6439 25.1707C23.4273 25.4155 23.1423 25.6321 22.7891 25.8193C22.436 26.0071 22.0931 26.1583 21.7616 26.2737C21.4297 26.3895 21.0293 26.4899 20.561 26.5768C20.0916 26.6634 19.6808 26.7243 19.3271 26.7606C18.9739 26.7968 18.5522 26.8255 18.0616 26.8473C17.5714 26.8685 17.189 26.8795 16.915 26.8795C16.6409 26.8795 16.2947 26.8756 15.8764 26.8685C15.4579 26.8618 15.1913 26.8581 15.0758 26.8581V19.5452C15.1911 19.5452 15.5337 19.5382 16.1035 19.5235C16.6735 19.5089 17.1383 19.5022 17.499 19.5022C17.8595 19.5022 18.3573 19.5235 18.9922 19.567C19.6264 19.61 20.1601 19.6746 20.5932 19.7612C21.0257 19.8479 21.4978 19.9811 22.0102 20.1616C22.522 20.3418 22.9369 20.5617 23.2544 20.8213C23.5717 21.0814 23.8384 21.4126 24.0546 21.8166C24.2714 22.2203 24.3796 22.682 24.3796 23.2013C24.3795 23.6056 24.3111 23.9728 24.1738 24.3048Z" fill="white"/>
</g>
<defs>
<clipPath id="clip0_1_2154">
<rect width="36" height="36" fill="white"/>
</clipPath>
</defs>
</svg>
