<svg width="36" height="36" viewBox="0 0 36 36" fill="none" xmlns="http://www.w3.org/2000/svg">
<path d="M28.357 9.29111L25.7576 19.8705L23.1484 9.29111H15.4997V13.1988C14.5824 9.7795 11.3419 8.92176 8.33948 8.87409C4.68204 8.82635 0.845859 10.4109 0.704742 15.2479H5.76619C5.76619 13.788 6.88605 12.9526 8.14887 12.9724C9.69764 12.9604 10.4125 13.6217 10.4482 14.6523C10.3947 15.5458 9.86632 16.1685 8.16075 16.1685H6.45848V19.6799H8.00423C8.88019 19.6799 10.1028 20.1564 10.1511 21.407C10.21 22.8966 9.17353 23.5519 7.89877 23.5638C5.62324 23.4803 5.25389 21.7308 5.25389 20.2279H0C0.0236953 21.2407 -0.226406 27.8408 8.00606 27.7931C11.9495 27.8289 14.7016 26.1728 15.5116 23.8855V27.3882H20.6941V15.9747L23.4939 27.3881H28.0212L30.8328 15.9866V27.4H36V9.29111H28.357ZM15.514 19.8466C14.8707 18.5122 13.9629 17.9277 13.4505 17.7439C14.5229 17.2673 15.0851 16.6204 15.514 15.3314V19.8466Z" fill="white"/>
</svg>
