<svg width="68" height="36" viewBox="0 0 68 36" fill="none" xmlns="http://www.w3.org/2000/svg">
<path fill-rule="evenodd" clip-rule="evenodd" d="M67.9993 18.8054C67.9993 13.9699 65.6571 10.1543 61.1804 10.1543C56.6849 10.1543 53.9648 13.9699 53.9648 18.7676C53.9648 24.4533 57.176 27.3243 61.7848 27.3243C64.0326 27.3243 65.7326 26.8143 67.017 26.0965V22.3186C65.7325 22.9609 64.2593 23.3576 62.3892 23.3576C60.557 23.3576 58.9325 22.7153 58.7248 20.4864H67.9614C67.9615 20.2409 67.9993 19.2586 67.9993 18.8054ZM58.6682 17.0109C58.6682 14.8764 59.9716 13.9886 61.1615 13.9886C62.3138 13.9886 63.5416 14.8764 63.5416 17.0109H58.6682Z" fill="white"/>
<path fill-rule="evenodd" clip-rule="evenodd" d="M46.6737 10.1543C44.8226 10.1543 43.6325 11.0231 42.9714 11.6277L42.7259 10.4566H38.5703V32.4811L43.2925 31.48L43.3114 26.1345C43.9914 26.6256 44.9925 27.3244 46.6547 27.3244C50.0358 27.3244 53.1147 24.6044 53.1147 18.6166C53.096 13.1387 49.9793 10.1543 46.6737 10.1543ZM45.5403 23.1687C44.4258 23.1687 43.7648 22.7721 43.3114 22.2809L43.2925 15.2731C43.7837 14.7253 44.4636 14.3476 45.5403 14.3476C47.2592 14.3476 48.4492 16.2742 48.4492 18.7487C48.4493 21.2798 47.2781 23.1687 45.5403 23.1687Z" fill="white"/>
<path fill-rule="evenodd" clip-rule="evenodd" d="M32.0742 9.03992L36.8153 8.01996V4.18555L32.0742 5.18665V9.03992Z" fill="white"/>
<path d="M36.8153 10.4756H32.0742V27.0033H36.8153V10.4756Z" fill="white"/>
<path fill-rule="evenodd" clip-rule="evenodd" d="M26.9916 11.8732L26.6894 10.4755H22.6094V27.0032H27.3316V15.8021C28.446 14.3476 30.3349 14.6121 30.9205 14.8198V10.4755C30.3161 10.2489 28.106 9.83333 26.9916 11.8732Z" fill="white"/>
<path fill-rule="evenodd" clip-rule="evenodd" d="M17.5477 6.37695L12.9388 7.3592L12.9199 22.4891C12.9199 25.2847 15.0166 27.3436 17.8121 27.3436C19.3611 27.3436 20.4943 27.0602 21.1177 26.7202V22.8858C20.5133 23.1314 17.5289 24.0002 17.5289 21.2048V14.4992H21.1177V10.4759H17.5289L17.5477 6.37695Z" fill="white"/>
<path fill-rule="evenodd" clip-rule="evenodd" d="M4.77894 15.2731C4.77894 14.5364 5.38334 14.2531 6.38445 14.2531C7.81996 14.2531 9.63331 14.6875 11.069 15.4621V11.0231C9.50117 10.3999 7.95224 10.1543 6.38445 10.1543C2.55003 10.1543 0 12.1565 0 15.4998C0 20.7131 7.17784 19.882 7.17784 22.1298C7.17784 22.9988 6.4223 23.282 5.36449 23.282C3.7967 23.282 1.79449 22.6398 0.207843 21.771V26.2665C1.96449 27.022 3.74012 27.3432 5.36449 27.3432C9.29332 27.3432 11.9945 25.3975 11.9945 22.0165C11.9756 16.3876 4.77894 17.3887 4.77894 15.2731Z" fill="white"/>
</svg>
